<?xml version="1.0" encoding="UTF-8"?>
<svg id="Layer_2" data-name="Layer 2" xmlns="http://www.w3.org/2000/svg" viewBox="0 0 589.17 920.39">
  <defs>
    <style>
      .cls-1 {
        fill: #515151;
      }

      .cls-1, .cls-2, .cls-3, .cls-4 {
        stroke-width: 0px;
      }

      .cls-2 {
        fill: #000;
      }

      .cls-3 {
        fill: #f6f6f6;
      }

      .cls-4 {
        fill: #090909;
      }
    </style>
  </defs>
  <g id="cart">
    <g id="Phone">
      <g>
        <rect class="cls-1" x="103.23" y="27.37" width="382.72" height="865.64" rx="36.34" ry="36.34" transform="translate(138.16 -63.34) rotate(15.99)"/>
        <rect class="cls-3" x="115.35" y="37.8" width="358.8" height="843.61" rx="28.98" ry="28.98" transform="translate(138 -63.41) rotate(15.99)"/>
        <rect class="cls-2" x="348.58" y="67.29" width="100.74" height="32.85" rx="16.43" ry="16.43" transform="translate(38.49 -106.65) rotate(15.99)"/>
      </g>
      <path class="cls-4" d="M239.57,499.24c-9.18-2.63-18.81,2.92-21.5,12.3-2.69,9.38,2.54,19.18,11.72,21.82,9.18,2.63,18.89-2.89,21.58-12.27,2.69-9.38-2.62-19.21-11.81-21.84ZM228.58,348.45l-4.89,17.06,16.69,4.78,11.5,73.34-17.25,17.66c-2.02,2.01-3.58,4.6-4.43,7.59-2.69,9.38,2.62,19.21,11.81,21.84l100.16,28.7,4.89-17.06-96.65-27.69c-1.17-.33-1.82-1.54-1.48-2.73l.54-.95,11.5-11.75,62.18,17.82c6.26,1.79,12.77-.12,17.12-4.6l45.74-46.78c1.01-1,1.76-2.36,2.17-3.81,1.34-4.69-1.31-9.6-5.9-10.92l-123.44-35.37-2.96-19.3-27.29-7.82ZM323.03,523.16c-9.18-2.63-18.81,2.92-21.5,12.3-2.69,9.38,2.54,19.18,11.72,21.82s18.89-2.89,21.58-12.27c2.69-9.38-2.62-19.21-11.81-21.84Z"/>
    </g>
  </g>
</svg>