<?xml version="1.0" encoding="UTF-8"?>
<svg id="Layer_2" data-name="Layer 2" xmlns="http://www.w3.org/2000/svg" xmlns:xlink="http://www.w3.org/1999/xlink" viewBox="0 0 708.57 881.8">
  <defs>
    <style>
      .cls-1 {
        fill: #704821;
      }

      .cls-1, .cls-2, .cls-3, .cls-4, .cls-5, .cls-6, .cls-7, .cls-8, .cls-9, .cls-10, .cls-11, .cls-12, .cls-13, .cls-14, .cls-15, .cls-16, .cls-17, .cls-18, .cls-19, .cls-20, .cls-21, .cls-22, .cls-23, .cls-24, .cls-25, .cls-26, .cls-27, .cls-28, .cls-29, .cls-30, .cls-31, .cls-32, .cls-33 {
        stroke-width: 0px;
      }

      .cls-34 {
        font-family: ZTNeueRalewe-Bold, 'ZTNeueRalewe Bold';
        font-size: 40px;
        font-weight: 700;
      }

      .cls-34, .cls-19 {
        fill: #434343;
      }

      .cls-2 {
        fill: #a3f6ff;
      }

      .cls-3 {
        fill: #acf1ff;
      }

      .cls-4 {
        fill: #5a887b;
      }

      .cls-35 {
        stroke: #643937;
      }

      .cls-35, .cls-36, .cls-37, .cls-38, .cls-39, .cls-40, .cls-41, .cls-42 {
        fill: none;
        stroke-linecap: round;
      }

      .cls-35, .cls-36, .cls-37, .cls-39, .cls-40, .cls-41, .cls-42 {
        stroke-linejoin: round;
      }

      .cls-35, .cls-39 {
        stroke-width: 1.5px;
      }

      .cls-5 {
        fill: #d8a843;
      }

      .cls-6 {
        fill: #785b5b;
      }

      .cls-7 {
        fill: #238fd8;
      }

      .cls-8 {
        fill: #fcf0b8;
      }

      .cls-9 {
        fill: #bf9b6c;
      }

      .cls-10 {
        fill: url(#linear-gradient);
      }

      .cls-11 {
        fill: #b55568;
      }

      .cls-43 {
        letter-spacing: 0em;
      }

      .cls-12 {
        fill: #272727;
      }

      .cls-13 {
        fill: #e8dcac;
      }

      .cls-14 {
        fill: #b76f5e;
      }

      .cls-15 {
        fill: #5797cd;
      }

      .cls-16 {
        fill: #272727;
      }

      .cls-17 {
        fill: #ec9064;
      }

      .cls-18 {
        fill: #2d382a;
      }

      .cls-20 {
        fill: #6284ae;
      }

      .cls-21 {
        fill: #72a3dd;
      }

      .cls-22 {
        fill: #8c5d3e;
      }

      .cls-36 {
        stroke-width: 1.53px;
      }

      .cls-36, .cls-37 {
        stroke: #ee9575;
      }

      .cls-37 {
        stroke-width: 1.51px;
      }

      .cls-23 {
        fill: #111;
      }

      .cls-24 {
        fill: #c7f8ff;
      }

      .cls-38 {
        stroke: #eaa492;
        stroke-miterlimit: 10;
      }

      .cls-39 {
        stroke: #000;
      }

      .cls-40 {
        stroke: #191e17;
      }

      .cls-40, .cls-41 {
        stroke-width: 1.37px;
      }

      .cls-25 {
        fill: #faf8eb;
      }

      .cls-26 {
        fill: url(#linear-gradient-2);
      }

      .cls-27 {
        fill: #664f33;
      }

      .cls-28 {
        fill: #e07248;
      }

      .cls-41 {
        stroke: #e4d8ce;
      }

      .cls-29 {
        fill: #b08837;
      }

      .cls-30 {
        fill: #434343;
      }

      .cls-31 {
        fill: #eaa492;
      }

      .cls-32 {
        fill: #f3b49c;
      }

      .cls-42 {
        stroke: #3e2210;
        stroke-width: 1.39px;
      }

      .cls-33 {
        fill: #a4c0b6;
      }
    </style>
    <linearGradient id="linear-gradient" x1="140.46" y1="112" x2="140.43" y2="107.12" gradientTransform="translate(252.53 88.53)" gradientUnits="userSpaceOnUse">
      <stop offset="0" stop-color="#442523"/>
      <stop offset="1" stop-color="#302420"/>
    </linearGradient>
    <linearGradient id="linear-gradient-2" x1="153.01" y1="112.44" x2="152.98" y2="107.56" gradientTransform="translate(252.49 86.9)" xlink:href="#linear-gradient"/>
  </defs>
  <g id="Scene">
    <g id="Scene-2" data-name="Scene">
      <g>
        <rect id="Background" class="cls-12" x="159.03" y="69.97" width="497.37" height="329.56"/>
        <path class="cls-30" d="M677.21,15.99c.05-17.14-17.86-15.98-17.86-15.98H155.36c-15.46,0-13.64,18.04-13.64,18.04v373.14h535.48s-.05-358.07,0-375.2ZM171.02,74.26h471.76v185.9H171.02V74.26ZM643.78,391.14H171.08v-52.97h472.69v52.97ZM643.97,326.15H171.58v-48.21h472.39v48.21Z"/>
        <g id="Onning">
          <polygon class="cls-20" points="408.07 118.88 349.5 118.88 356.14 43.1 409.13 43.1 408.07 118.88"/>
          <polygon class="cls-3" points="348.97 118.88 290.4 118.88 302.67 43.1 355.66 43.1 348.97 118.88"/>
          <polygon class="cls-20" points="289.87 118.88 231.3 118.88 249.21 43.1 302.2 43.1 289.87 118.88"/>
          <polygon class="cls-3" points="230.77 118.88 172.2 118.88 195.74 43.1 248.73 43.1 230.77 118.88"/>
          <polygon class="cls-20" points="171.67 118.88 113.1 118.88 142.28 43.1 195.27 43.1 171.67 118.88"/>
          <polygon class="cls-3" points="467.17 118.88 408.6 118.88 409.61 43.1 462.6 43.1 467.17 118.88"/>
          <polygon class="cls-20" points="526.35 118.88 467.78 118.88 463.14 43.1 516.13 43.1 526.35 118.88"/>
          <polygon class="cls-3" points="585.63 118.88 527.06 118.88 516.77 43.1 569.76 43.1 585.63 118.88"/>
          <polygon class="cls-20" points="644.91 118.88 586.34 118.88 570.4 43.1 623.39 43.1 644.91 118.88"/>
          <polygon class="cls-3" points="704.2 118.88 645.62 118.88 624.03 43.1 677.02 43.1 704.2 118.88"/>
          <path class="cls-21" d="M142.88,159.51s-29.78,2.51-29.78-40.63h58.57s.22,40.63-28.79,40.63Z"/>
          <path class="cls-2" d="M202.01,159.51s-29.78,2.51-29.78-40.63h58.57s.22,40.63-28.79,40.63Z"/>
          <path class="cls-21" d="M261.13,159.51s-29.78,2.51-29.78-40.63h58.57s.22,40.63-28.79,40.63Z"/>
          <path class="cls-2" d="M320.26,159.51s-29.78,2.51-29.78-40.63h58.57s.22,40.63-28.79,40.63Z"/>
          <path class="cls-21" d="M379.39,159.51s-29.78,2.51-29.78-40.63h58.57s.22,40.63-28.79,40.63Z"/>
          <path class="cls-2" d="M438.51,159.51s-29.78,2.51-29.78-40.63h58.57s.22,40.63-28.79,40.63Z"/>
          <path class="cls-21" d="M497.64,159.51s-29.78,2.51-29.78-40.63h58.57s.22,40.63-28.79,40.63Z"/>
          <path class="cls-2" d="M556.77,159.51s-29.78,2.51-29.78-40.63h58.57s.22,40.63-28.79,40.63Z"/>
          <path class="cls-21" d="M615.9,159.51s-29.78,2.51-29.78-40.63h58.57s.22,40.63-28.79,40.63Z"/>
          <path class="cls-2" d="M675.02,159.51s-29.78,2.51-29.78-40.63h58.57s.22,40.63-28.79,40.63Z"/>
        </g>
      </g>
      <g>
        <circle class="cls-7" cx="575.1" cy="234.77" r="1.13"/>
        <circle class="cls-7" cx="576.58" cy="233.12" r="1.13"/>
        <circle class="cls-7" cx="580.21" cy="234.44" r="1.13"/>
        <circle class="cls-7" cx="585.8" cy="234.2" r="1.13"/>
        <circle class="cls-7" cx="589.42" cy="234.72" r="1.13"/>
        <circle class="cls-7" cx="591.87" cy="233.51" r="1.13"/>
        <circle class="cls-7" cx="594.68" cy="232.96" r="1.13"/>
        <circle class="cls-7" cx="597.65" cy="232.19" r="1.13"/>
        <circle class="cls-7" cx="597.92" cy="234" r="1.13"/>
        <circle class="cls-7" cx="592.62" cy="235.42" r="1.13"/>
        <circle class="cls-7" cx="590.39" cy="235.13" r="1.13"/>
        <circle class="cls-7" cx="581.82" cy="235.65" r="1.13"/>
        <circle class="cls-7" cx="617.27" cy="235.09" r="1.13"/>
        <circle class="cls-7" cx="615.24" cy="235.27" r="1.13"/>
        <circle class="cls-7" cx="613.24" cy="234.89" r="1.13"/>
        <circle class="cls-7" cx="600.14" cy="232.84" r="1.13"/>
        <circle class="cls-7" cx="601.53" cy="233.6" r="1.13"/>
        <circle class="cls-7" cx="606.39" cy="233.67" r="1.13"/>
        <circle class="cls-7" cx="610.36" cy="233.01" r="1.13"/>
        <circle class="cls-7" cx="612.79" cy="232.71" r="1.13"/>
        <circle class="cls-7" cx="615.16" cy="233.49" r="1.13"/>
        <circle class="cls-7" cx="617.65" cy="232.78" r="1.13"/>
        <circle class="cls-7" cx="618.65" cy="233.89" r="1.13"/>
        <path class="cls-7" d="M622.09,232.73c0,.62-.5,1.13-1.13,1.13s-1.13-.5-1.13-1.13.5-1.13,1.13-1.13,1.13.5,1.13,1.13Z"/>
        <path class="cls-7" d="M625.72,232.79c0,.62-.5,1.13-1.13,1.13s-1.13-.5-1.13-1.13.5-1.13,1.13-1.13,1.13.5,1.13,1.13Z"/>
        <path class="cls-7" d="M624.68,234.06c0,.62-.5,1.13-1.13,1.13s-1.13-.5-1.13-1.13.5-1.13,1.13-1.13,1.13.5,1.13,1.13Z"/>
        <circle class="cls-7" cx="624.6" cy="234.77" r="1.13"/>
        <path class="cls-7" d="M622.48,234.55c0,.62-.5,1.13-1.13,1.13s-1.13-.5-1.13-1.13.5-1.13,1.13-1.13,1.13.5,1.13,1.13Z"/>
        <path class="cls-7" d="M612.91,234.77c0,.62-.5,1.13-1.13,1.13s-1.13-.5-1.13-1.13.5-1.13,1.13-1.13,1.13.5,1.13,1.13Z"/>
        <path class="cls-7" d="M609.59,235.21c0,.62-.5,1.13-1.13,1.13s-1.13-.5-1.13-1.13.5-1.13,1.13-1.13,1.13.5,1.13,1.13Z"/>
        <path class="cls-7" d="M605.21,235.65c0,.62-.5,1.13-1.13,1.13s-1.13-.5-1.13-1.13.5-1.13,1.13-1.13,1.13.5,1.13,1.13Z"/>
        <circle class="cls-7" cx="601" cy="235.71" r="1.13"/>
        <path class="cls-7" d="M598.61,235.65c0,.62-.5,1.13-1.13,1.13s-1.13-.5-1.13-1.13.5-1.13,1.13-1.13,1.13.5,1.13,1.13Z"/>
        <circle class="cls-7" cx="593.96" cy="235.6" r="1.13"/>
        <path class="cls-7" d="M591.57,235.54c0,.62-.5,1.13-1.13,1.13s-1.13-.5-1.13-1.13.5-1.13,1.13-1.13,1.13.5,1.13,1.13Z"/>
        <circle class="cls-7" cx="586.92" cy="235.49" r="1.13"/>
        <circle class="cls-7" cx="583.4" cy="235.43" r="1.13"/>
        <circle class="cls-7" cx="579.88" cy="235.38" r="1.13"/>
        <path class="cls-7" d="M577.49,235.32c0,.62-.5,1.13-1.13,1.13s-1.13-.5-1.13-1.13.5-1.13,1.13-1.13,1.13.5,1.13,1.13Z"/>
        <path class="cls-7" d="M579.64,234.11c0,.62-.5,1.13-1.13,1.13s-1.13-.5-1.13-1.13.5-1.13,1.13-1.13,1.13.5,1.13,1.13Z"/>
        <path class="cls-7" d="M583.16,233.51c0,.62-.5,1.13-1.13,1.13s-1.13-.5-1.13-1.13.5-1.13,1.13-1.13,1.13.5,1.13,1.13Z"/>
        <circle class="cls-7" cx="595.89" cy="234.77" r="1.13"/>
        <path class="cls-7" d="M600.32,234.88c0,.62-.5,1.13-1.13,1.13s-1.13-.5-1.13-1.13.5-1.13,1.13-1.13,1.13.5,1.13,1.13Z"/>
        <path class="cls-7" d="M604.94,233.12c0,.62-.5,1.13-1.13,1.13s-1.13-.5-1.13-1.13.5-1.13,1.13-1.13,1.13.5,1.13,1.13Z"/>
        <path class="cls-7" d="M609.5,233.51c0,.62-.5,1.13-1.13,1.13s-1.13-.5-1.13-1.13.5-1.13,1.13-1.13,1.13.5,1.13,1.13Z"/>
        <circle class="cls-7" cx="604.63" cy="234.22" r="1.13"/>
        <path class="cls-7" d="M603.67,235.6c0,.62-.5,1.13-1.13,1.13s-1.13-.5-1.13-1.13.5-1.13,1.13-1.13,1.13.5,1.13,1.13Z"/>
        <g>
          <path class="cls-8" d="M571.22,235.21v18.98c0,3.13,2.54,5.66,5.66,5.66h44.77c3.13,0,5.66-2.54,5.66-5.66v-18.98h-56.1Z"/>
          <g>
            <path class="cls-13" d="M574.8,235.21v15.59c0,.5,0,4.65.96,4.65h2.06c1.18,0,1.04-3.08,1.04-4.65v-15.59h-4.07Z"/>
            <path class="cls-13" d="M580.41,235.21v15.59c0,.5,0,4.65.96,4.65h2.06c1.18,0,1.04-3.08,1.04-4.65v-15.59h-4.07Z"/>
            <path class="cls-13" d="M586.02,235.21v15.59c0,.5,0,4.65.96,4.65h2.06c1.18,0,1.04-3.08,1.04-4.65v-15.59h-4.07Z"/>
            <path class="cls-13" d="M591.63,235.21v15.59c0,.5,0,4.65.96,4.65h2.06c1.18,0,1.04-3.08,1.04-4.65v-15.59h-4.07Z"/>
            <path class="cls-13" d="M597.24,235.21v15.59c0,.5,0,4.65.96,4.65h2.06c1.18,0,1.04-3.08,1.04-4.65v-15.59h-4.07Z"/>
            <path class="cls-13" d="M602.85,235.21v15.59c0,.5,0,4.65.96,4.65h2.06c1.18,0,1.04-3.08,1.04-4.65v-15.59h-4.07Z"/>
            <path class="cls-13" d="M608.46,235.21v15.59c0,.5,0,4.65.96,4.65h2.06c1.18,0,1.04-3.08,1.04-4.65v-15.59h-4.07Z"/>
            <path class="cls-13" d="M614.07,235.21v15.59c0,.5,0,4.65.96,4.65h2.06c1.18,0,1.04-3.08,1.04-4.65v-15.59h-4.07Z"/>
            <path class="cls-13" d="M619.68,235.21v15.59c0,.5,0,4.65.96,4.65h2.06c1.18,0,1.04-3.08,1.04-4.65v-15.59h-4.07Z"/>
          </g>
        </g>
      </g>
      <g>
        <circle class="cls-7" cx="367.19" cy="234.77" r="1.13"/>
        <circle class="cls-7" cx="368.67" cy="233.12" r="1.13"/>
        <circle class="cls-7" cx="372.3" cy="234.44" r="1.13"/>
        <circle class="cls-7" cx="377.89" cy="234.2" r="1.13"/>
        <circle class="cls-7" cx="381.51" cy="234.72" r="1.13"/>
        <circle class="cls-7" cx="383.96" cy="233.51" r="1.13"/>
        <circle class="cls-7" cx="386.77" cy="232.96" r="1.13"/>
        <circle class="cls-7" cx="389.74" cy="232.19" r="1.13"/>
        <circle class="cls-7" cx="390.01" cy="234" r="1.13"/>
        <circle class="cls-7" cx="384.71" cy="235.42" r="1.13"/>
        <circle class="cls-7" cx="382.48" cy="235.13" r="1.13"/>
        <circle class="cls-7" cx="373.91" cy="235.65" r="1.13"/>
        <circle class="cls-7" cx="409.36" cy="235.09" r="1.13"/>
        <circle class="cls-7" cx="407.33" cy="235.27" r="1.13"/>
        <circle class="cls-7" cx="405.33" cy="234.89" r="1.13"/>
        <circle class="cls-7" cx="392.23" cy="232.84" r="1.13"/>
        <circle class="cls-7" cx="393.62" cy="233.6" r="1.13"/>
        <circle class="cls-7" cx="398.48" cy="233.67" r="1.13"/>
        <circle class="cls-7" cx="402.45" cy="233.01" r="1.13"/>
        <circle class="cls-7" cx="404.88" cy="232.71" r="1.13"/>
        <circle class="cls-7" cx="407.25" cy="233.49" r="1.13"/>
        <circle class="cls-7" cx="409.74" cy="232.78" r="1.13"/>
        <circle class="cls-7" cx="410.74" cy="233.89" r="1.13"/>
        <path class="cls-7" d="M414.18,232.73c0,.62-.5,1.13-1.13,1.13s-1.13-.5-1.13-1.13.5-1.13,1.13-1.13,1.13.5,1.13,1.13Z"/>
        <path class="cls-7" d="M417.81,232.79c0,.62-.5,1.13-1.13,1.13s-1.13-.5-1.13-1.13.5-1.13,1.13-1.13,1.13.5,1.13,1.13Z"/>
        <path class="cls-7" d="M416.77,234.06c0,.62-.5,1.13-1.13,1.13s-1.13-.5-1.13-1.13.5-1.13,1.13-1.13,1.13.5,1.13,1.13Z"/>
        <circle class="cls-7" cx="416.69" cy="234.77" r="1.13"/>
        <path class="cls-7" d="M414.57,234.55c0,.62-.5,1.13-1.13,1.13s-1.13-.5-1.13-1.13.5-1.13,1.13-1.13,1.13.5,1.13,1.13Z"/>
        <path class="cls-7" d="M405,234.77c0,.62-.5,1.13-1.13,1.13s-1.13-.5-1.13-1.13.5-1.13,1.13-1.13,1.13.5,1.13,1.13Z"/>
        <path class="cls-7" d="M401.68,235.21c0,.62-.5,1.13-1.13,1.13s-1.13-.5-1.13-1.13.5-1.13,1.13-1.13,1.13.5,1.13,1.13Z"/>
        <path class="cls-7" d="M397.3,235.65c0,.62-.5,1.13-1.13,1.13s-1.13-.5-1.13-1.13.5-1.13,1.13-1.13,1.13.5,1.13,1.13Z"/>
        <circle class="cls-7" cx="393.09" cy="235.71" r="1.13"/>
        <path class="cls-7" d="M390.7,235.65c0,.62-.5,1.13-1.13,1.13s-1.13-.5-1.13-1.13.5-1.13,1.13-1.13,1.13.5,1.13,1.13Z"/>
        <circle class="cls-7" cx="386.05" cy="235.6" r="1.13"/>
        <path class="cls-7" d="M383.66,235.54c0,.62-.5,1.13-1.13,1.13s-1.13-.5-1.13-1.13.5-1.13,1.13-1.13,1.13.5,1.13,1.13Z"/>
        <circle class="cls-7" cx="379.01" cy="235.49" r="1.13"/>
        <circle class="cls-7" cx="375.49" cy="235.43" r="1.13"/>
        <circle class="cls-7" cx="371.97" cy="235.38" r="1.13"/>
        <path class="cls-7" d="M369.58,235.32c0,.62-.5,1.13-1.13,1.13s-1.13-.5-1.13-1.13.5-1.13,1.13-1.13,1.13.5,1.13,1.13Z"/>
        <path class="cls-7" d="M371.73,234.11c0,.62-.5,1.13-1.13,1.13s-1.13-.5-1.13-1.13.5-1.13,1.13-1.13,1.13.5,1.13,1.13Z"/>
        <path class="cls-7" d="M375.25,233.51c0,.62-.5,1.13-1.13,1.13s-1.13-.5-1.13-1.13.5-1.13,1.13-1.13,1.13.5,1.13,1.13Z"/>
        <circle class="cls-7" cx="387.98" cy="234.77" r="1.13"/>
        <path class="cls-7" d="M392.41,234.88c0,.62-.5,1.13-1.13,1.13s-1.13-.5-1.13-1.13.5-1.13,1.13-1.13,1.13.5,1.13,1.13Z"/>
        <path class="cls-7" d="M397.03,233.12c0,.62-.5,1.13-1.13,1.13s-1.13-.5-1.13-1.13.5-1.13,1.13-1.13,1.13.5,1.13,1.13Z"/>
        <path class="cls-7" d="M401.59,233.51c0,.62-.5,1.13-1.13,1.13s-1.13-.5-1.13-1.13.5-1.13,1.13-1.13,1.13.5,1.13,1.13Z"/>
        <circle class="cls-7" cx="396.72" cy="234.22" r="1.13"/>
        <path class="cls-7" d="M395.76,235.6c0,.62-.5,1.13-1.13,1.13s-1.13-.5-1.13-1.13.5-1.13,1.13-1.13,1.13.5,1.13,1.13Z"/>
        <g>
          <path class="cls-8" d="M363.31,235.21v18.98c0,3.13,2.54,5.66,5.66,5.66h44.77c3.13,0,5.66-2.54,5.66-5.66v-18.98h-56.1Z"/>
          <g>
            <path class="cls-13" d="M366.89,235.21v15.59c0,.5,0,4.65.96,4.65h2.06c1.18,0,1.04-3.08,1.04-4.65v-15.59h-4.07Z"/>
            <path class="cls-13" d="M372.5,235.21v15.59c0,.5,0,4.65.96,4.65h2.06c1.18,0,1.04-3.08,1.04-4.65v-15.59h-4.07Z"/>
            <path class="cls-13" d="M378.11,235.21v15.59c0,.5,0,4.65.96,4.65h2.06c1.18,0,1.04-3.08,1.04-4.65v-15.59h-4.07Z"/>
            <path class="cls-13" d="M383.72,235.21v15.59c0,.5,0,4.65.96,4.65h2.06c1.18,0,1.04-3.08,1.04-4.65v-15.59h-4.07Z"/>
            <path class="cls-13" d="M389.33,235.21v15.59c0,.5,0,4.65.96,4.65h2.06c1.18,0,1.04-3.08,1.04-4.65v-15.59h-4.07Z"/>
            <path class="cls-13" d="M394.94,235.21v15.59c0,.5,0,4.65.96,4.65h2.06c1.18,0,1.04-3.08,1.04-4.65v-15.59h-4.07Z"/>
            <path class="cls-13" d="M400.55,235.21v15.59c0,.5,0,4.65.96,4.65h2.06c1.18,0,1.04-3.08,1.04-4.65v-15.59h-4.07Z"/>
            <path class="cls-13" d="M406.16,235.21v15.59c0,.5,0,4.65.96,4.65h2.06c1.18,0,1.04-3.08,1.04-4.65v-15.59h-4.07Z"/>
            <path class="cls-13" d="M411.77,235.21v15.59c0,.5,0,4.65.96,4.65h2.06c1.18,0,1.04-3.08,1.04-4.65v-15.59h-4.07Z"/>
          </g>
        </g>
      </g>
      <g>
        <circle class="cls-7" cx="543.09" cy="300.19" r="1.13"/>
        <circle class="cls-7" cx="544.57" cy="298.54" r="1.13"/>
        <circle class="cls-7" cx="548.2" cy="299.86" r="1.13"/>
        <circle class="cls-7" cx="553.79" cy="299.62" r="1.13"/>
        <circle class="cls-7" cx="557.41" cy="300.14" r="1.13"/>
        <circle class="cls-7" cx="559.86" cy="298.93" r="1.13"/>
        <circle class="cls-7" cx="562.67" cy="298.38" r="1.13"/>
        <circle class="cls-7" cx="565.64" cy="297.61" r="1.13"/>
        <circle class="cls-7" cx="565.91" cy="299.42" r="1.13"/>
        <circle class="cls-7" cx="560.61" cy="300.84" r="1.13"/>
        <circle class="cls-7" cx="558.38" cy="300.55" r="1.13"/>
        <circle class="cls-7" cx="549.8" cy="301.07" r="1.13"/>
        <circle class="cls-7" cx="585.26" cy="300.51" r="1.13"/>
        <circle class="cls-7" cx="583.23" cy="300.69" r="1.13"/>
        <circle class="cls-7" cx="581.23" cy="300.31" r="1.13"/>
        <circle class="cls-7" cx="568.13" cy="298.26" r="1.13"/>
        <circle class="cls-7" cx="569.52" cy="299.02" r="1.13"/>
        <circle class="cls-7" cx="574.38" cy="299.09" r="1.13"/>
        <circle class="cls-7" cx="578.35" cy="298.43" r="1.13"/>
        <circle class="cls-7" cx="580.78" cy="298.13" r="1.13"/>
        <circle class="cls-7" cx="583.15" cy="298.91" r="1.13"/>
        <circle class="cls-7" cx="585.64" cy="298.2" r="1.13"/>
        <circle class="cls-7" cx="586.64" cy="299.31" r="1.13"/>
        <circle class="cls-7" cx="588.95" cy="298.15" r="1.13"/>
        <path class="cls-7" d="M593.71,298.21c0,.62-.5,1.13-1.13,1.13s-1.13-.5-1.13-1.13.5-1.13,1.13-1.13,1.13.5,1.13,1.13Z"/>
        <path class="cls-7" d="M592.67,299.48c0,.62-.5,1.13-1.13,1.13s-1.13-.5-1.13-1.13.5-1.13,1.13-1.13,1.13.5,1.13,1.13Z"/>
        <path class="cls-7" d="M593.72,300.19c0,.62-.5,1.13-1.13,1.13s-1.13-.5-1.13-1.13.5-1.13,1.13-1.13,1.13.5,1.13,1.13Z"/>
        <path class="cls-7" d="M590.47,299.97c0,.62-.5,1.13-1.13,1.13s-1.13-.5-1.13-1.13.5-1.13,1.13-1.13,1.13.5,1.13,1.13Z"/>
        <path class="cls-7" d="M580.9,300.19c0,.62-.5,1.13-1.13,1.13s-1.13-.5-1.13-1.13.5-1.13,1.13-1.13,1.13.5,1.13,1.13Z"/>
        <circle class="cls-7" cx="576.45" cy="300.63" r="1.13"/>
        <path class="cls-7" d="M573.2,301.07c0,.62-.5,1.13-1.13,1.13s-1.13-.5-1.13-1.13.5-1.13,1.13-1.13,1.13.5,1.13,1.13Z"/>
        <path class="cls-7" d="M570.12,301.13c0,.62-.5,1.13-1.13,1.13s-1.13-.5-1.13-1.13.5-1.13,1.13-1.13,1.13.5,1.13,1.13Z"/>
        <path class="cls-7" d="M566.6,301.07c0,.62-.5,1.13-1.13,1.13s-1.13-.5-1.13-1.13.5-1.13,1.13-1.13,1.13.5,1.13,1.13Z"/>
        <path class="cls-7" d="M563.08,301.02c0,.62-.5,1.13-1.13,1.13s-1.13-.5-1.13-1.13.5-1.13,1.13-1.13,1.13.5,1.13,1.13Z"/>
        <path class="cls-7" d="M559.56,300.96c0,.62-.5,1.13-1.13,1.13s-1.13-.5-1.13-1.13.5-1.13,1.13-1.13,1.13.5,1.13,1.13Z"/>
        <circle class="cls-7" cx="554.91" cy="300.91" r="1.13"/>
        <path class="cls-7" d="M552.52,300.85c0,.62-.5,1.13-1.13,1.13s-1.13-.5-1.13-1.13.5-1.13,1.13-1.13,1.13.5,1.13,1.13Z"/>
        <path class="cls-7" d="M549,300.8c0,.62-.5,1.13-1.13,1.13s-1.13-.5-1.13-1.13.5-1.13,1.13-1.13,1.13.5,1.13,1.13Z"/>
        <path class="cls-7" d="M545.48,300.74c0,.62-.5,1.13-1.13,1.13s-1.13-.5-1.13-1.13.5-1.13,1.13-1.13,1.13.5,1.13,1.13Z"/>
        <circle class="cls-7" cx="546.5" cy="299.53" r="1.13"/>
        <path class="cls-7" d="M551.14,298.93c0,.62-.5,1.13-1.13,1.13s-1.13-.5-1.13-1.13.5-1.13,1.13-1.13,1.13.5,1.13,1.13Z"/>
        <path class="cls-7" d="M565.01,300.19c0,.62-.5,1.13-1.13,1.13s-1.13-.5-1.13-1.13.5-1.13,1.13-1.13,1.13.5,1.13,1.13Z"/>
        <path class="cls-7" d="M568.31,300.3c0,.62-.5,1.13-1.13,1.13s-1.13-.5-1.13-1.13.5-1.13,1.13-1.13,1.13.5,1.13,1.13Z"/>
        <path class="cls-7" d="M572.93,298.54c0,.62-.5,1.13-1.13,1.13s-1.13-.5-1.13-1.13.5-1.13,1.13-1.13,1.13.5,1.13,1.13Z"/>
        <path class="cls-7" d="M577.49,298.93c0,.62-.5,1.13-1.13,1.13s-1.13-.5-1.13-1.13.5-1.13,1.13-1.13,1.13.5,1.13,1.13Z"/>
        <path class="cls-7" d="M573.75,299.64c0,.62-.5,1.13-1.13,1.13s-1.13-.5-1.13-1.13.5-1.13,1.13-1.13,1.13.5,1.13,1.13Z"/>
        <path class="cls-7" d="M571.66,301.02c0,.62-.5,1.13-1.13,1.13s-1.13-.5-1.13-1.13.5-1.13,1.13-1.13,1.13.5,1.13,1.13Z"/>
        <g>
          <path class="cls-8" d="M539.21,300.63v18.98c0,3.13,2.54,5.66,5.66,5.66h44.77c3.13,0,5.66-2.54,5.66-5.66v-18.98h-56.1Z"/>
          <g>
            <path class="cls-13" d="M542.78,300.63v15.59c0,.5,0,4.65.96,4.65h2.06c1.18,0,1.04-3.08,1.04-4.65v-15.59h-4.07Z"/>
            <path class="cls-13" d="M548.39,300.63v15.59c0,.5,0,4.65.96,4.65h2.06c1.18,0,1.04-3.08,1.04-4.65v-15.59h-4.07Z"/>
            <path class="cls-13" d="M554,300.63v15.59c0,.5,0,4.65.96,4.65h2.06c1.18,0,1.04-3.08,1.04-4.65v-15.59h-4.07Z"/>
            <path class="cls-13" d="M559.62,300.63v15.59c0,.5,0,4.65.96,4.65h2.06c1.18,0,1.04-3.08,1.04-4.65v-15.59h-4.07Z"/>
            <path class="cls-13" d="M565.23,300.63v15.59c0,.5,0,4.65.96,4.65h2.06c1.18,0,1.04-3.08,1.04-4.65v-15.59h-4.07Z"/>
            <path class="cls-13" d="M570.84,300.63v15.59c0,.5,0,4.65.96,4.65h2.06c1.18,0,1.04-3.08,1.04-4.65v-15.59h-4.07Z"/>
            <path class="cls-13" d="M576.45,300.63v15.59c0,.5,0,4.65.96,4.65h2.06c1.18,0,1.04-3.08,1.04-4.65v-15.59h-4.07Z"/>
            <path class="cls-13" d="M582.06,300.63v15.59c0,.5,0,4.65.96,4.65h2.06c1.18,0,1.04-3.08,1.04-4.65v-15.59h-4.07Z"/>
            <path class="cls-13" d="M587.67,300.63v15.59c0,.5,0,4.65.96,4.65h2.06c1.18,0,1.04-3.08,1.04-4.65v-15.59h-4.07Z"/>
          </g>
        </g>
      </g>
      <g id="Vendor">
        <g>
          <g id="Vendor-2" data-name="Vendor">
            <polygon class="cls-32" points="411.37 250.67 379.48 250.67 385.86 214.32 412.82 214.32 411.37 250.67"/>
            <path class="cls-32" d="M510,355.65c4.53,19.46-15.81,19.37-25.27,10.36-9.4-8.95-31.96-60.05-34.71-74.66-3.81-20.24,17.59-24.07,24.44-20.09,12.93,7.5,30.14,61.22,35.54,84.39Z"/>
            <g>
              <g>
                <path class="cls-32" d="M300.08,473.21c-.5,2.56.27,3.77,1.13,3.93.66.12,1.38-.39,1.57-1.39-.67,2.2.5,3.35,1.78,3.26.82-.06,1.68-.62,2.13-1.73.89-2.18.45-17.98,3.34-24.85-.66,4.68-1.65,9.66-1.61,12.18.02,1.52.47,2.5,2.01,2.79,2.02.39,3.03-.65,3.46-2.42,1.34-5.56,5.93-15.77,6.33-19.11,1.18-7.33-.28-17.84-.28-17.84,0,0-12.52-1.76-15.57,2.84-1.48,2.23-2.87,17.61-3.58,20.62-.61,2.59-2.42,23.33-.71,21.72Z"/>
                <path class="cls-37" d="M302.43,455.98c.03,6.38.07,12.76.1,19.13"/>
                <path class="cls-37" d="M300.23,469.33c.08,1.54-.15,3.87-.15,3.87"/>
                <path class="cls-37" d="M310.75,447.46c-.26,2.06-.42,2.67-.68,4.73"/>
              </g>
              <path class="cls-32" d="M311.84,356.85c-3.74,19.61,16.15,18.79,25.08,9.44,8.87-9.29,29.12-61.17,31.28-75.87,3-20.36-18.05-23.41-24.61-19.18-12.37,7.97-27.3,62.28-31.75,85.62Z"/>
              <path class="cls-32" d="M343.83,354.33c-1.04,23.14-23.7,74.47-23.7,74.47l-14.21.75s-1.03-82.53,14.32-95.06c7.3-5.96,24.07,9.19,23.59,19.84Z"/>
            </g>
            <g>
              <g>
                <path class="cls-32" d="M398.5,679.32s-9.92,10.51-13.4,8.78c-2.64-1.31-3.96-15.8-3.96-15.8l-.73-11.88,17.26,4.06.84,14.83Z"/>
                <path class="cls-6" d="M380.69,691.22c1.8,3.45,5.99,6.42,8.83,7.9,1.1.57,5.32-.04,6.15-.92,2.68-2.84,6-6.75,6.08-8.27.11-5.89,1.37-10.03-2.59-14.43-2.22-1.88-9.41,1.61-12.7,2.09-2.58.37-1.66.17-3.9-.25-1.36-.26-2.72-.96-2.62.18.33,3.74.32,5.81.75,13.72Z"/>
                <path class="cls-33" d="M401.74,359.88c-28.79-14.46-37.35-2.99-40.2,9.44-12.07,52.54,5.71,144.43,9.52,171.15,0,0,0,0,0,.01-6.71,45.65,1.11,94.38,7.02,125.83,1.96,10.43,23.81,6.55,23.22-4.12,0,0,19-256.69,19.28-261.33,1.93-31.71-10.54-36.82-18.84-40.99Z"/>
              </g>
              <g>
                <path class="cls-32" d="M456.19,681.6s-9.6,10.9-13.14,9.32c-2.68-1.2-4.43-15.63-4.43-15.63l-1.08-11.84,17.37,3.36,1.28,14.78Z"/>
                <path class="cls-6" d="M438.58,694.14c1.78,3.47,5.94,6.46,8.76,7.95,1.09.58,5.26-.03,6.08-.91,2.64-2.84,5.92-6.77,6-8.29.1-5.92,1.34-10.07-2.59-14.5-2.2-1.89-9.31,1.6-12.56,2.07-2.55.37-1.64.17-3.86-.26-1.34-.26-2.7-.97-2.59.18.34,3.75.32,5.84.77,13.77Z"/>
                <path class="cls-33" d="M450.02,362.22c-29.19-13.29-37.41-1.49-39.9,11.06-10.52,53,9.97,144.11,14.56,170.66,0,0,0,0,0,.01-5.36,45.89,3.89,94.28,10.72,125.48,2.27,10.34,23.98,5.59,23.09-5.05,0,0,11.42-257.3,11.57-261.95,1-31.77-11.62-36.37-20.03-40.2Z"/>
              </g>
              <path class="cls-42" d="M413.58,449.58c-1.35,10.43.46,25.14,1.16,39.08"/>
            </g>
            <g>
              <path class="cls-23" d="M353.3,255.25c.24-12.74,21.61-19.73,27.22-22.67.97-.51,2.18-.31,3.03.39l7.52,7.38c.61.51,5.85,2.37,6.63,2.23,13.87-2.47,12.26-8.71,14.15-11.96.6-1.04,3.13-.9,4.3-.61,4.76,1.15,22.7,3.41,35.69,12.35.6.41,1.01,1.05,1.13,1.77,2.04,11.86,19.6,115.11,19.59,158.52-.52.86-.92,1.53-1.44,2.38-8.88,4.62-47.24,14-56.77,14.87-19,1.75-46.53,2.34-59.47.23l-2.18-2.02c-5.74-23.21.11-137.78.59-162.87Z"/>
              <path class="cls-23" d="M314.82,315.36l38.76,11.24s20.97-25.32,16.77-41.96c-2.84-11.28-9.54-40.73-14.57-36.8-14.72,11.6-40.96,67.52-40.96,67.52Z"/>
              <path class="cls-23" d="M499.59,314.24l-33.84,22.29-24.95-86.68s10.45-7.69,11.98-6.83c23.16,12.96,46.81,71.22,46.81,71.22Z"/>
            </g>
            <path class="cls-27" d="M365,290.14c15.27-29.41,10.01-53.57,15.51-57.55.96-.69,2.19-.27,3.07.77l-2.51,60.01c-.1,2.41,1.9,4.39,4.31,4.24,11.2-.68,39.46-3.48,40.09-3.62,13.82-2.96-15.33-58.21-13.57-62.82.56-1.47,1.75-1.53,2.94-1.08,4.95,1.9,22.48,48.44,35.98,62.63.28,1.88,27.91,125.8,29.36,190.2v.03c-4.59,5.76-47.57,19.28-57.77,20.2-19.86,1.78-49.14,1.37-61.39-2.69l-.02-.02c-7.37-26.93-3.31-196.24,3.99-210.31Z"/>
            <path class="cls-31" d="M387.47,214.87l25.28,1.2-.24,6.43s-5.24,5.56-9.78,4.67-9.87-3.29-12.04-5.29c-2.17-2-4.19-4.05-4.19-4.64s.97-2.37.97-2.37Z"/>
            <g>
              <path class="cls-1" d="M379.14,181.88c1.57-9.53,22.71-14.28,34.99-9.29.37.16,7.82.39,7.45,6.72.1,3.04-7.71,3.09-7.91,3.2-.03.01-.05.03-.08.04-.06,1.39-.69,3.17-.69,3.17,0,0,4.17,10.02.71,15.69-4.97-4.91-3.77.95-6.14,1.22-2.36,7.27-2.51,10.3-4.98,12.87-2.51,2.61-16.38,1.27-16.39,1.33-2.84-.69-8.08-8.5-10.28-12.55-3.71-6.87-.21-7.76-3.8-13.81-2.17-3.66,3.51-9.06,7.11-8.58Z"/>
              <path class="cls-32" d="M414.96,204.64c-1.09-5.96-.7-15.73-3.68-19.41-.36-.45-.75-.83-1.16-1.18-6.65-1.79-17.8-.39-21.74.19-1.74.97-3.23,2.34-4.22,4.33-2.15,4.31.22,13.74.38,19.81.2,7.76,1.56,7.2,7.85,11.25,1.86,1.19,10.69,3.2,12.89,2.53,2.23-.31,4.12-.97,5.69-2.58,3.28-4.62,5.4-7.33,4-14.94Z"/>
              <path class="cls-32" d="M383.32,195.51c-7.44-4.48-4.81,6.06-3,8.4.66.86,3.23,1.92,4.58,1.98l-1.57-10.38Z"/>
            </g>
            <ellipse class="cls-10" cx="392.98" cy="198.08" rx=".99" ry="2.44" transform="translate(-22.31 52.48) rotate(-7.43)"/>
            <ellipse class="cls-26" cx="405.48" cy="196.9" rx=".99" ry="2.44" transform="translate(-22.06 54.08) rotate(-7.43)"/>
            <path class="cls-38" d="M396.36,211.91s7.26,1.79,10.59-.38"/>
            <path class="cls-38" d="M400.13,200.53s.98,2.9,1.58,3.81-.98.98-.98.98"/>
          </g>
          <g>
            <path class="cls-32" d="M526.24,471.49c.61,2.54-.14,3.78-1.01,3.97-.67.15-1.42-.33-1.65-1.33.77,2.18-.39,3.37-1.7,3.33-.84-.03-1.74-.56-2.24-1.65-.99-2.15-1.11-17.95-4.31-24.71.84,4.65,2.04,9.59,2.09,12.12.03,1.52-.39,2.51-1.95,2.87-2.05.46-3.12-.54-3.62-2.29-1.57-5.51-6.63-15.54-7.16-18.86-1.47-7.28-.36-17.84-.36-17.84,0,0,12.72-2.22,16,2.26,1.59,2.17,3.57,17.49,4.4,20.47.71,2.57,3.32,23.23,1.51,21.68Z"/>
            <path class="cls-36" d="M523.21,454.36c.2,6.37.39,12.75.59,19.12"/>
            <path class="cls-36" d="M525.95,467.63c-.02,1.54.29,3.87.29,3.87"/>
            <path class="cls-36" d="M514.4,446.16c.34,2.05.53,2.65.87,4.7"/>
          </g>
          <path class="cls-32" d="M477.24,354.31c1.9,23.09,26.91,73.54,26.91,73.54l14.54.22s-1.95-82.51-18.08-94.47c-7.67-5.68-24.25,10.08-23.37,20.7Z"/>
        </g>
      </g>
      <g>
        <path class="cls-15" d="M119.35,423.53h575.81s9-3.77,9-16.75-9.13-15.29-9.13-15.29H119.35s-6.69,3.65-6.69,16.92,6.69,15.12,6.69,15.12Z"/>
        <path class="cls-15" d="M117.06,672.37h584.92s6.6.53,6.6,20.94-6.55,24.35-6.55,24.35H117s-6.74-3.95-6.74-22.04,6.8-23.25,6.8-23.25Z"/>
        <rect class="cls-16" x="139.37" y="423.48" width="538.17" height="24.4"/>
        <polygon id="Bottom" class="cls-19" points="139.37 423.48 677.54 423.48 677.54 672.53 139.38 672.53 139.37 423.48"/>
        <path class="cls-24" d="M528.46,516.81s-28.16-48.57-121.42-48.57-117.46,49.17-117.46,49.17h-150.31l.14,41.14h150.03s23.99,49.46,121.46,49.46,118.08-49.4,118.08-49.4h148.58v-41.8h-149.09ZM283.23,542.36h-132.41v-6.83l.26.04h132.15v6.79ZM668,542.36h-132.41v-6.83l.26.04h132.15v6.79Z"/>
      </g>
      <g id="Vendor_2_arm" data-name="Vendor 2 arm">
        <text class="cls-34" transform="translate(314.38 552.01)"><tspan x="0" y="0">Bluebe</tspan><tspan class="cls-43" x="116" y="0">rr</tspan><tspan x="142.48" y="0">ies</tspan></text>
      </g>
      <g id="Woman_2" data-name="Woman 2">
        <g id="Woman2">
          <g>
            <path class="cls-32" d="M618.09,504.69c3.93,18.71,22.13,10.96,28.18-.7,6.01-11.58,3.23-55.05.8-69.04-3.37-19.37-18.66-24.92-23.93-18.73-9.94,11.68-6.05,65.73-5.04,88.47Z"/>
            <path class="cls-32" d="M646.7,499.94c3.17,25.19-35.28,71.56-35.28,71.56l-19.63-8.09s21.47-65.04,28.3-75.31c5.14-7.73,25.34,1.78,26.61,11.84Z"/>
          </g>
          <g>
            <path class="cls-32" d="M550.05,504.69c-3.93,18.71-22.13,10.96-28.18-.7-6.01-11.58-4.6-51.13-2.17-65.12,3.37-19.37,20.03-28.84,25.3-22.65,9.94,11.68,6.05,65.73,5.04,88.47Z"/>
            <path class="cls-32" d="M523.37,507.4c7.22,27.93,46.23,65.03,46.23,65.03l18.09-11.11s-31.55-60.79-39.93-69.84c-6.3-6.81-26.92,6.11-24.38,15.93Z"/>
          </g>
          <g>
            <path class="cls-32" d="M589.06,540.24c-.16-12.04-9.53-48.86-41.81-34.28-9.31,4.2-7.33-17.77-16.66,9.99-15.25,45.36,22.53,249.48,29.35,285.35h0l3.42,20.35s.55,11.13,3.4,12.26c3.77,1.49,14.04-8.9,14.04-8.9,0,0,8.6-258.56,8.26-284.76Z"/>
            <path class="cls-32" d="M648.66,822.11s-.93-287.08-14.39-313.48c-13.13-25.75-12.44-2.38-22.25-4.75-34.03-8.22-37.68,29.86-36.01,41.75,3.66,26.09,55.66,278.12,55.66,278.12,0,0,11.62,11.64,15.39,10.15,2.85-1.13,1.59-11.79,1.59-11.79Z"/>
            <path class="cls-11" d="M582.26,845.51c-3.72,1.25-15.31,1.23-15.31,1.23,0,0-26.23-4.49-26.21-7.09-.74-2.87,17.01-10.52,21.08-17.09,2.4-2.52,9.55,1.53,12.89,1.95,2.62.33,1.69.12,4.02-.54,1.41-.4,2.85-1.37,2.67.08-.59,4.78,1.82,11.36.86,21.46Z"/>
            <path class="cls-11" d="M629.76,845.51c3.72,1.25,15.31,1.23,15.31,1.23,0,0,26.23-4.49,26.21-7.09.74-2.87-17.01-10.52-21.08-17.09-2.4-2.52-9.55,1.53-12.89,1.95-2.62.33-1.69.12-4.02-.54-1.41-.4-2.85-1.37-2.67.08.59,4.78-1.82,11.36-.86,21.46Z"/>
          </g>
          <path class="cls-9" d="M651.88,771.42s3.42-207.12-17.6-260.35c-12.35-31.27-12.44-2.85-22.25-5.68-15.91-4.6-25.18,2.92-30.37,13.68-6.23-12.1-16.98-20.62-34.41-11.2-9.31,5.03-7.33-28.19-16.66,5.03-16.73,59.58-4.71,256.02-4.71,256.02.02,12.61,127.96,14.84,125.99,2.5Z"/>
          <g>
            <path class="cls-4" d="M530.59,409.49c12.74-16.31,33.82-26.64,33.82-26.64l32.81-1.35s21.86,8.56,35.9,23.78c0,0,2.6,89.65,4.49,106.84-13.45,5.77-36.42,8.2-51.1,8.6-14.66.8-45.74,1.2-57.88-4.77.48-17.29,1.96-106.45,1.96-106.45Z"/>
            <path class="cls-4" d="M655.3,473.86h-142.85s5.35-54.28,18.14-64.37c12.14-9.58,31.56-1.01,50.69-2,20.97-1.08,41.59-10.86,51.84-2.21,14.06,11.87,22.18,68.58,22.18,68.58Z"/>
            <path class="cls-39" d="M528.7,427.56c.56.03,1.12.06,1.68.1.49,7.64.6,15.3.35,22.95"/>
            <path class="cls-39" d="M632.73,436.49c1.79,6.98,2.49,14.24,2.08,21.44"/>
          </g>
          <g>
            <path class="cls-14" d="M599.21,349.68c-.16-10.91-14.51-21.08-21.2-15.72-7.03-5.73-23.88,11.09-20.7,21.47.07.24.17.53.3.86.03,4.89.06,9.87,4.27,13.48.87.75,3.31,3.39,3.8,4.43.64,1.37,2.02,2.29,3.48,2.7,1.46.41,3,.38,4.51.3,4.69-.25,9.33-.98,13.97-1.71,2.08-.33,4.24-.68,6-1.83,1.74-1.14,2.92-2.94,3.81-4.82,3.08-6.48,4.75-12.94,1.76-19.16Z"/>
            <path class="cls-14" d="M583.65,398.1c-1.15.24-2.99-1.95-4.16-1.85-1.24.1-1.88,2.48-3.05,2.42-1.27-.06-2.97-2.57-4.2-2.84-1.39-.3-2.5,1.58-3.72,1.03-1.45-.64-2.61-3.6-3.79-4.68-1.38-1.27-3.41-1.41-4.24-3.28-.84-1.88.21-4.08.22-6.18,0-1.8-1.3-4.68-.7-6.5.52-1.55,2.73-1.39,3.67-2.74.84-1.2.57-4.32,1.75-5.33,1.09-.92,3.35.48,4.66-.14,1.22-.59,1.74-3.35,3.18-3.65,1.45-.3,3.5,1.95,4.92,1.99,1.51.05,2.7-2.06,4.19-1.66,1.62.43,3.2,3.28,4.63,4.02,1.61.83,3.47-.16,4.83,1.01,1.59,1.37,2.1,4.42,3.15,6,1.23,1.85,3.42,3.38,3.77,5.36.35,1.97-1.36,2.87-1.84,4.52-.41,1.41.27,4.46-.63,5.59-.76.95-2.83-.28-3.88.52-.93.71-.97,3.57-2.06,4.11-.99.5-2.94-1.35-4.09-.97-1.09.36-1.45,3-2.6,3.23Z"/>
            <path class="cls-35" d="M569.98,366.18h13.2"/>
          </g>
        </g>
      </g>
      <g id="Woman_1" data-name="Woman 1">
        <g id="Woman_1-2" data-name="Woman 1">
          <g>
            <path class="cls-29" d="M76.92,859.23s-5.3,12.5-8.91,13.04c-2.73.41-8.55-9.2-8.55-9.2l2.17-15.18,16.66,2.34-1.37,9Z"/>
            <path class="cls-25" d="M59.45,879.91c3.72,3.73,42.32,1.22,45.16-1.32-3.08-1.37-25.61-15.66-27.69-19.36-3.9,1.22-3.31,8.9-7.26,9.62-3.96.72-6.95-4.44-10.21-5.77,0,0-1.54,15.28,0,16.83Z"/>
            <path class="cls-29" d="M57.87,860.62s-9.82,10.06-13.28,8.41c-2.62-1.25-3.92-15.12-3.92-15.12l-.73-11.37,17.09,3.89.84,14.19Z"/>
            <path class="cls-25" d="M39.82,880.02c3.23,1.24,13.32,1.21,13.32,1.21,0,0,22.83-4.42,22.81-6.98.64-2.82-14.81-10.36-18.35-16.83-2.09-2.48-8.31,1.51-11.22,1.92-2.28.32-1.47.12-3.5-.53-1.22-.4-2.48-1.35-2.33.08.51,4.7-1.59,11.19-.75,21.12Z"/>
            <path class="cls-41" d="M57.89,863.24c-2.39,4.05-1.56,9.14-.88,13.95"/>
          </g>
          <g>
            <path class="cls-5" d="M99.84,599.31c-1.46-1.76-1.46-10.13-10.26-37.07-13.52-9.69-56.9,2.06-58.74,5.46-9.24,17.08-16.67,51.65-13.14,59.76l26.04,103.95s-1.74,16.58-4.34,25.5c-4.45,15.27-.81,86.82-.81,86.82,0,0,20.01,7.25,22.35,1.54,2.09-5.09,24.31-96.03,24.31-111.06,0-9.21,1.48-63.53-4.8-109.81,11.88-9.45,19.63-24.79,19.38-25.09Z"/>
            <path class="cls-5" d="M79.89,851.62l-21.26-1.57,1.84-27.62s-5.75-49.79,5.91-79.18c-6.81-28.05,2.79-115.04,2.79-115.04,0,0,29.87-37.65,42.9-33.13,13.87,65.96-32.18,256.56-32.18,256.56Z"/>
            <path class="cls-41" d="M55.68,645.44c2.36,27.37,11.93,50.86,9.3,89.37"/>
            <path class="cls-41" d="M66.38,743.24c-19.22,31.7-2.06,68.92-7.22,98.82"/>
          </g>
          <path class="cls-28" d="M46.11,428.78c-1.11-3.77-4-13.32-5.18-17.7,1.32-2.01,9.96-5.83,13.33-6.22,3.39-.13,10.98,8.92,12.53,10.7-3.56,13.09,3.49,19.85,3.49,19.85,0,0,2.37,14.68-4.86,15.24-7.23.56-26.09-13.94-26.09-13.94,0,0,4.23-.32,6.78-7.93Z"/>
          <g>
            <path class="cls-18" d="M100.53,458.45c-19.57-31.86-40.36-26.44-40.36-26.44,0,0-12.55.87-18.32,2.08-5.77,1.2-11.4,4.13-11.4,4.13,0,0-19.3,16.98-13.65,55.25,1.68,11.38,2.83,38.33,7.95,53.13.02.01.05.02.07.04-10.59,31.03-13.64,87.54-4.7,90.54,21.26,7.14,98.21-5.08,98.21-5.08,3.14-76.04-7.1-162.32-17.81-173.63Z"/>
            <path class="cls-18" d="M130.51,535.44c-3.81,11.86-16.47,11.37-16.47,11.37,0,0-26.19-42.1-30.1-54.5-3.61-11.43.11-52.33,5.59-48.14,20.61,15.75,44.12,81.51,40.98,91.27Z"/>
            <path class="cls-40" d="M85.16,456.83c-1.83,5.46-4.16,26.37-2.65,31.59,4.34,15.06,17.34,41.28,28.17,52.91"/>
          </g>
          <g>
            <path class="cls-17" d="M50.71,414.23c-3.03-4.61-7.62-20.49-4.28-23.29,3.34-2.81,4.69-3.83,8.99-1.8,4.62,2.18,4.37,6.48,5.75,8.55,1.17,1.76,4.09,2.99,5.73,3.98.27,1.23-.63,3.58-.63,3.58,0,0,.72,1.75,1.47,2.08-.73,1.83-.59,2.89-.07,4.5.7,2.12,2.12,4.55,1.64,5.95-1.23,3.63-6.04,3.84-7.91,3.75-6.35-.31-6.83-1.42-10.68-7.3Z"/>
            <path class="cls-22" d="M54.93,421.32c.28,2.02-7.17,8.96-7.31,9.23-22.7,11.09-29.75-27.75-28.61-32.28,1.93-7.68,35.59-25.79,35.78-9.42-1.34-.49-2.95-.92-3.77-.53-2.15,1.81-.44,1.76-2.89,9.48-3.38,10.59,5.96,17.47,6.8,23.52Z"/>
            <path class="cls-17" d="M51,410.3c-5.83-.51-1.65,6.92.38,8.06.75.42,2.3,1.18,3.17.69l-3.56-8.75Z"/>
          </g>
          <g>
            <path class="cls-22" d="M48.43,420.56c-14.04.61-39.17,4.68-43.04,23.73-3.5,17.25,13.22,29.81,9.29,49.04-4.33,21.19-15.28,42.46,11.48,47.61,17.01,3.27,30.05-14.32,31.14-35.52,1.12-21.75-25.19-37.1-10.11-69.15l1.24-15.71Z"/>
            <path class="cls-22" d="M18.83,535.84c.02-.38-.23-.7-.57-.72h0c-3.67-.24-7.31-2.8-10.28-6.4h0c-2.97-3.59-5.25-8.18-6.23-12.32h0c-.33-1.39-.52-2.72-.55-3.94h0c-.15-7.16,3.04-12.45,5.9-18.17h0c2.86-5.69,5.33-11.89,3.26-20.52h0c-.75-3.12-2.08-6.55-4.16-10.39h0c-.79-1.46-1.37-3.02-1.76-4.65h0c-1.37-5.72-.35-12.32,2.52-17.94h0c2.86-5.61,7.55-10.22,13.44-12.02h0c.49-.15.99-.28,1.5-.39h0c.33-.07.54-.43.48-.79h0c-.06-.37-.38-.61-.7-.54h0c-.54.12-1.06.25-1.58.41h0c-12.47,3.85-19.71,19.34-16.8,31.62h0c.42,1.75,1.05,3.43,1.9,5h0c2.04,3.76,3.31,7.07,4.02,10.03h0c1.95,8.18-.32,13.84-3.14,19.5h0c-2.81,5.64-6.22,11.21-6.06,18.87H0c.03,1.35.23,2.79.59,4.27h0c1.05,4.39,3.41,9.13,6.52,12.89h0c3.1,3.75,6.97,6.54,11.09,6.82h0c.07,0,.13,0,.19-.02h0c.24-.07.43-.32.44-.61h0Z"/>
          </g>
        </g>
      </g>
    </g>
  </g>
</svg>