<?xml version="1.0" encoding="UTF-8"?>
<svg id="Layer_2" data-name="Layer 2" xmlns="http://www.w3.org/2000/svg" xmlns:xlink="http://www.w3.org/1999/xlink" viewBox="0 0 664.04 717.67">
  <defs>
    <style>
      .cls-1 {
        fill: #704821;
      }

      .cls-1, .cls-2, .cls-3, .cls-4, .cls-5, .cls-6, .cls-7, .cls-8, .cls-9, .cls-10, .cls-11, .cls-12, .cls-13, .cls-14, .cls-15, .cls-16, .cls-17, .cls-18, .cls-19, .cls-20, .cls-21, .cls-22, .cls-23, .cls-24, .cls-25, .cls-26, .cls-27, .cls-28, .cls-29, .cls-30 {
        stroke-width: 0px;
      }

      .cls-2 {
        fill: #a3f6ff;
      }

      .cls-3 {
        fill: #acf1ff;
      }

      .cls-4 {
        fill: #5a887b;
      }

      .cls-31 {
        stroke: #643937;
      }

      .cls-31, .cls-32, .cls-33, .cls-34, .cls-35, .cls-36, .cls-37 {
        fill: none;
        stroke-linecap: round;
      }

      .cls-31, .cls-32, .cls-34, .cls-35, .cls-36, .cls-37 {
        stroke-linejoin: round;
      }

      .cls-31, .cls-34 {
        stroke-width: 1.5px;
      }

      .cls-5 {
        fill: #d8a843;
      }

      .cls-6 {
        fill: #785b5b;
      }

      .cls-7 {
        fill: #bf9b6c;
      }

      .cls-8 {
        fill: url(#linear-gradient);
      }

      .cls-9 {
        fill: #b55568;
      }

      .cls-10 {
        fill: #272727;
      }

      .cls-11 {
        fill: #b76f5e;
      }

      .cls-12 {
        fill: #5797cd;
      }

      .cls-13 {
        fill: #272727;
      }

      .cls-14 {
        fill: #ec9064;
      }

      .cls-15 {
        fill: #2d382a;
      }

      .cls-16 {
        fill: #434343;
      }

      .cls-17 {
        fill: #6284ae;
      }

      .cls-18 {
        fill: #72a3dd;
      }

      .cls-19 {
        fill: #8c5d3e;
      }

      .cls-32 {
        stroke: #ee9575;
        stroke-width: 1.51px;
      }

      .cls-20 {
        fill: #111;
      }

      .cls-21 {
        fill: #c7f8ff;
      }

      .cls-33 {
        stroke: #eaa492;
        stroke-miterlimit: 10;
      }

      .cls-34 {
        stroke: #000;
      }

      .cls-35 {
        stroke: #191e17;
      }

      .cls-35, .cls-36 {
        stroke-width: 1.37px;
      }

      .cls-22 {
        fill: #faf8eb;
      }

      .cls-23 {
        fill: url(#linear-gradient-2);
      }

      .cls-24 {
        fill: #664f33;
      }

      .cls-25 {
        fill: #e07248;
      }

      .cls-36 {
        stroke: #e4d8ce;
      }

      .cls-26 {
        fill: #b08837;
      }

      .cls-27 {
        fill: #434343;
      }

      .cls-28 {
        fill: #eaa492;
      }

      .cls-29 {
        fill: #f3b49c;
      }

      .cls-37 {
        stroke: #3e2210;
        stroke-width: 1.39px;
      }

      .cls-30 {
        fill: #a4c0b6;
      }
    </style>
    <linearGradient id="linear-gradient" x1="-101.64" y1="39.51" x2="-101.67" y2="34.63" gradientTransform="translate(244.61 111.44)" gradientUnits="userSpaceOnUse">
      <stop offset="0" stop-color="#442523"/>
      <stop offset="1" stop-color="#302420"/>
    </linearGradient>
    <linearGradient id="linear-gradient-2" x1="-89.09" y1="39.95" x2="-89.12" y2="35.07" gradientTransform="translate(244.56 109.82)" xlink:href="#linear-gradient"/>
  </defs>
  <g id="Blueberrys">
    <g id="Layer_9" data-name="Layer 9">
      <g>
        <polygon id="Bottom" class="cls-16" points="29.11 423.48 567.28 423.48 567.28 672.53 29.12 672.53 29.11 423.48"/>
        <path class="cls-21" d="M418.2,516.81s-28.16-48.57-121.42-48.57-117.46,49.17-117.46,49.17H29.01l.14,41.14h150.03s23.99,49.46,121.46,49.46,118.08-49.4,118.08-49.4h148.58v-41.8h-149.09ZM172.97,542.36H40.56v-6.83l.26.04h132.15v6.79ZM557.74,542.36h-132.41v-6.83l.26.04h132.15v6.79Z"/>
        <rect id="Background" class="cls-10" x="48.77" y="69.97" width="497.37" height="329.56"/>
        <path class="cls-27" d="M566.95,15.99c.05-17.14-17.86-15.98-17.86-15.98H45.1C29.64.02,31.46,18.05,31.46,18.05v373.14h535.48s-.05-358.07,0-375.2ZM60.76,74.26h471.76v185.9H60.76V74.26ZM533.52,391.14H60.82v-52.97h472.69v52.97ZM533.71,326.15H61.32v-48.21h472.39v48.21Z"/>
        <path class="cls-12" d="M9.09,423.53h575.81s9-3.77,9-16.75-9.13-15.29-9.13-15.29H9.09s-6.69,3.65-6.69,16.92,6.69,15.12,6.69,15.12Z"/>
        <path class="cls-12" d="M6.8,672.37h584.92s6.6.53,6.6,20.94-6.55,24.35-6.55,24.35H6.74s-6.74-3.95-6.74-22.04,6.8-23.25,6.8-23.25Z"/>
        <rect class="cls-13" x="29.11" y="423.48" width="538.17" height="24.4"/>
        <g id="Onning">
          <polygon class="cls-17" points="297.81 118.88 239.23 118.88 245.88 43.1 298.87 43.1 297.81 118.88"/>
          <polygon class="cls-3" points="238.71 118.88 180.14 118.88 192.41 43.1 245.4 43.1 238.71 118.88"/>
          <polygon class="cls-17" points="179.61 118.88 121.04 118.88 138.95 43.1 191.94 43.1 179.61 118.88"/>
          <polygon class="cls-3" points="120.51 118.88 61.94 118.88 85.48 43.1 138.47 43.1 120.51 118.88"/>
          <polygon class="cls-17" points="61.41 118.88 2.84 118.88 32.02 43.1 85.01 43.1 61.41 118.88"/>
          <polygon class="cls-3" points="356.91 118.88 298.34 118.88 299.35 43.1 352.34 43.1 356.91 118.88"/>
          <polygon class="cls-17" points="416.09 118.88 357.52 118.88 352.88 43.1 405.87 43.1 416.09 118.88"/>
          <polygon class="cls-3" points="475.37 118.88 416.8 118.88 406.51 43.1 459.5 43.1 475.37 118.88"/>
          <polygon class="cls-17" points="534.65 118.88 476.08 118.88 460.14 43.1 513.13 43.1 534.65 118.88"/>
          <polygon class="cls-3" points="593.94 118.88 535.36 118.88 513.77 43.1 566.76 43.1 593.94 118.88"/>
          <path class="cls-18" d="M32.62,159.51s-29.78,2.51-29.78-40.63h58.57s.22,40.63-28.79,40.63Z"/>
          <path class="cls-2" d="M91.75,159.51s-29.78,2.51-29.78-40.63h58.57s.22,40.63-28.79,40.63Z"/>
          <path class="cls-18" d="M150.87,159.51s-29.78,2.51-29.78-40.63h58.57s.22,40.63-28.79,40.63Z"/>
          <path class="cls-2" d="M210,159.51s-29.78,2.51-29.78-40.63h58.57s.22,40.63-28.79,40.63Z"/>
          <path class="cls-18" d="M269.13,159.51s-29.78,2.51-29.78-40.63h58.57s.22,40.63-28.79,40.63Z"/>
          <path class="cls-2" d="M328.25,159.51s-29.78,2.51-29.78-40.63h58.57s.22,40.63-28.79,40.63Z"/>
          <path class="cls-18" d="M387.38,159.51s-29.78,2.51-29.78-40.63h58.57s.22,40.63-28.79,40.63Z"/>
          <path class="cls-2" d="M446.51,159.51s-29.78,2.51-29.78-40.63h58.57s.22,40.63-28.79,40.63Z"/>
          <path class="cls-18" d="M505.64,159.51s-29.78,2.51-29.78-40.63h58.57s.22,40.63-28.79,40.63Z"/>
          <path class="cls-2" d="M564.76,159.51s-29.78,2.51-29.78-40.63h58.57s.22,40.63-28.79,40.63Z"/>
        </g>
      </g>
    </g>
  </g>
  <g id="Woman_2" data-name="Woman 2">
    <g id="Woman2">
      <g>
        <path class="cls-29" d="M440.06,305.91c3.93,18.71,22.13,10.96,28.18-.7,6.01-11.58,3.23-55.05.8-69.04-3.37-19.37-18.66-24.92-23.93-18.73-9.94,11.68-6.05,65.73-5.04,88.47Z"/>
        <path class="cls-29" d="M468.67,301.15c3.17,25.19-35.28,71.56-35.28,71.56l-19.63-8.09s21.47-65.04,28.3-75.31c5.14-7.73,25.34,1.78,26.61,11.84Z"/>
      </g>
      <g>
        <path class="cls-29" d="M372.01,305.91c-3.93,18.71-22.13,10.96-28.18-.7-6.01-11.58-4.6-51.13-2.17-65.12,3.37-19.37,20.03-28.84,25.3-22.65,9.94,11.68,6.05,65.73,5.04,88.47Z"/>
        <path class="cls-29" d="M345.34,308.62c7.22,27.93,46.23,65.03,46.23,65.03l18.09-11.11s-31.55-60.79-39.93-69.84c-6.3-6.81-26.92,6.11-24.38,15.93Z"/>
      </g>
      <g>
        <path class="cls-29" d="M411.02,341.46c-.16-12.04-9.53-48.86-41.81-34.28-9.31,4.2-7.33-17.77-16.66,9.99-15.25,45.36,22.53,249.48,29.35,285.35h0l3.42,20.35s.55,11.13,3.4,12.26c3.77,1.49,14.04-8.9,14.04-8.9,0,0,8.6-258.56,8.26-284.76Z"/>
        <path class="cls-29" d="M470.63,623.33s-.93-287.08-14.39-313.48c-13.13-25.75-12.44-2.38-22.25-4.75-34.03-8.22-37.68,29.86-36.01,41.75,3.66,26.09,55.66,278.12,55.66,278.12,0,0,11.62,11.64,15.39,10.15,2.85-1.13,1.59-11.79,1.59-11.79Z"/>
        <path class="cls-9" d="M404.22,646.73c-3.72,1.25-15.31,1.23-15.31,1.23,0,0-26.23-4.49-26.21-7.09-.74-2.87,17.01-10.52,21.08-17.09,2.4-2.52,9.55,1.53,12.89,1.95,2.62.33,1.69.12,4.02-.54,1.41-.4,2.85-1.37,2.67.08-.59,4.78,1.82,11.36.86,21.46Z"/>
        <path class="cls-9" d="M451.73,646.73c3.72,1.25,15.31,1.23,15.31,1.23,0,0,26.23-4.49,26.21-7.09.74-2.87-17.01-10.52-21.08-17.09-2.4-2.52-9.55,1.53-12.89,1.95-2.62.33-1.69.12-4.02-.54-1.41-.4-2.85-1.37-2.67.08.59,4.78-1.82,11.36-.86,21.46Z"/>
      </g>
      <path class="cls-7" d="M473.84,572.64s3.42-207.12-17.6-260.35c-12.35-31.27-12.44-2.85-22.25-5.68-15.91-4.6-25.18,2.92-30.37,13.68-6.23-12.1-16.98-20.62-34.41-11.2-9.31,5.03-7.33-28.19-16.66,5.03-16.73,59.58-4.71,256.02-4.71,256.02.02,12.61,127.96,14.84,125.99,2.5Z"/>
      <g>
        <path class="cls-4" d="M352.56,210.71c12.74-16.31,33.82-26.64,33.82-26.64l32.81-1.35s21.86,8.56,35.9,23.78c0,0,2.6,89.65,4.49,106.84-13.45,5.77-36.42,8.2-51.1,8.6-14.66.8-45.74,1.2-57.88-4.77.48-17.29,1.96-106.45,1.96-106.45Z"/>
        <path class="cls-4" d="M477.26,275.08h-142.85s5.35-54.28,18.14-64.37c12.14-9.58,31.56-1.01,50.69-2,20.97-1.08,41.59-10.86,51.84-2.21,14.06,11.87,22.18,68.58,22.18,68.58Z"/>
        <path class="cls-34" d="M350.67,228.78c.56.03,1.12.06,1.68.1.49,7.64.6,15.3.35,22.95"/>
        <path class="cls-34" d="M454.69,237.71c1.79,6.98,2.49,14.24,2.08,21.44"/>
      </g>
      <g>
        <path class="cls-11" d="M421.17,150.9c-.16-10.91-14.51-21.08-21.2-15.72-7.03-5.73-23.88,11.09-20.7,21.47.07.24.17.53.3.86.03,4.89.06,9.87,4.27,13.48.87.75,3.31,3.39,3.8,4.43.64,1.37,2.02,2.29,3.48,2.7,1.46.41,3,.38,4.51.3,4.69-.25,9.33-.98,13.97-1.71,2.08-.33,4.24-.68,6-1.83,1.74-1.14,2.92-2.94,3.81-4.82,3.08-6.48,4.75-12.94,1.76-19.16Z"/>
        <path class="cls-11" d="M405.62,199.32c-1.15.24-2.99-1.95-4.16-1.85-1.24.1-1.88,2.48-3.05,2.42-1.27-.06-2.97-2.57-4.2-2.84-1.39-.3-2.5,1.58-3.72,1.03-1.45-.64-2.61-3.6-3.79-4.68-1.38-1.27-3.41-1.41-4.24-3.28-.84-1.88.21-4.08.22-6.18,0-1.8-1.3-4.68-.7-6.5.52-1.55,2.73-1.39,3.67-2.74.84-1.2.57-4.32,1.75-5.33,1.09-.92,3.35.48,4.66-.14,1.22-.59,1.74-3.35,3.18-3.65,1.45-.3,3.5,1.95,4.92,1.99,1.51.05,2.7-2.06,4.19-1.66,1.62.43,3.2,3.28,4.63,4.02,1.61.83,3.47-.16,4.83,1.01,1.59,1.37,2.1,4.42,3.15,6,1.23,1.85,3.42,3.38,3.77,5.36.35,1.97-1.36,2.87-1.84,4.52-.41,1.41.27,4.46-.63,5.59-.76.95-2.83-.28-3.88.52-.93.71-.97,3.57-2.06,4.11-.99.5-2.94-1.35-4.09-.97-1.09.36-1.45,3-2.6,3.23Z"/>
        <path class="cls-31" d="M391.95,167.4h13.2"/>
      </g>
    </g>
  </g>
  <g id="Vendor">
    <g id="Vendor-2" data-name="Vendor">
      <polygon class="cls-29" points="161.35 201.1 129.45 201.1 135.84 164.75 162.8 164.75 161.35 201.1"/>
      <path class="cls-29" d="M259.98,306.08c4.53,19.46-15.81,19.37-25.27,10.36-9.4-8.95-31.96-60.05-34.71-74.66-3.81-20.24,17.59-24.07,24.44-20.09,12.93,7.5,30.14,61.22,35.54,84.39Z"/>
      <g>
        <g>
          <path class="cls-29" d="M50.06,423.64c-.5,2.56.27,3.77,1.13,3.93.66.12,1.38-.39,1.57-1.39-.67,2.2.5,3.35,1.78,3.26.82-.06,1.68-.62,2.13-1.73.89-2.18.45-17.98,3.34-24.85-.66,4.68-1.65,9.66-1.61,12.18.02,1.52.47,2.5,2.01,2.79,2.02.39,3.03-.65,3.46-2.42,1.34-5.56,5.93-15.77,6.33-19.11,1.18-7.33-.28-17.84-.28-17.84,0,0-12.52-1.76-15.57,2.84-1.48,2.23-2.87,17.61-3.58,20.62-.61,2.59-2.42,23.33-.71,21.72Z"/>
          <path class="cls-32" d="M52.41,406.41c.03,6.38.07,12.76.1,19.13"/>
          <path class="cls-32" d="M50.21,419.77c.08,1.54-.15,3.87-.15,3.87"/>
          <path class="cls-32" d="M60.73,397.89c-.26,2.06-.42,2.67-.68,4.73"/>
        </g>
        <path class="cls-29" d="M61.82,307.28c-3.74,19.61,16.15,18.79,25.08,9.44,8.87-9.29,29.12-61.17,31.28-75.87,3-20.36-18.05-23.41-24.61-19.18-12.37,7.97-27.3,62.28-31.75,85.62Z"/>
        <path class="cls-29" d="M93.8,304.76c-1.04,23.14-23.7,74.47-23.7,74.47l-14.21.75s-1.03-82.53,14.32-95.06c7.3-5.96,24.07,9.19,23.59,19.84Z"/>
      </g>
      <g>
        <g>
          <path class="cls-29" d="M148.47,629.76s-9.92,10.51-13.4,8.78c-2.64-1.31-3.96-15.8-3.96-15.8l-.73-11.88,17.26,4.06.84,14.83Z"/>
          <path class="cls-6" d="M130.67,641.65c1.8,3.45,5.99,6.42,8.83,7.9,1.1.57,5.32-.04,6.15-.92,2.68-2.84,6-6.75,6.08-8.27.11-5.89,1.37-10.03-2.59-14.43-2.22-1.88-9.41,1.61-12.7,2.09-2.58.37-1.66.17-3.9-.25-1.36-.26-2.72-.96-2.62.18.33,3.74.32,5.81.75,13.72Z"/>
          <path class="cls-30" d="M151.72,310.31c-28.79-14.46-37.35-2.99-40.2,9.44-12.07,52.54,5.71,144.43,9.52,171.15,0,0,0,0,0,.01-6.71,45.65,1.11,94.38,7.02,125.83,1.96,10.43,23.81,6.55,23.22-4.12,0,0,19-256.69,19.28-261.33,1.93-31.71-10.54-36.82-18.84-40.99Z"/>
        </g>
        <g>
          <path class="cls-29" d="M206.16,632.03s-9.6,10.9-13.14,9.32c-2.68-1.2-4.43-15.63-4.43-15.63l-1.08-11.84,17.37,3.36,1.28,14.78Z"/>
          <path class="cls-6" d="M188.56,644.57c1.78,3.47,5.94,6.46,8.76,7.95,1.09.58,5.26-.03,6.08-.91,2.64-2.84,5.92-6.77,6-8.29.1-5.92,1.34-10.07-2.59-14.5-2.2-1.89-9.31,1.6-12.56,2.07-2.55.37-1.64.17-3.86-.26-1.34-.26-2.7-.97-2.59.18.34,3.75.32,5.84.77,13.77Z"/>
          <path class="cls-30" d="M199.99,312.65c-29.19-13.29-37.41-1.49-39.9,11.06-10.52,53,9.97,144.11,14.56,170.66,0,0,0,0,0,.01-5.36,45.89,3.89,94.28,10.72,125.48,2.27,10.34,23.98,5.59,23.09-5.05,0,0,11.42-257.3,11.57-261.95,1-31.77-11.62-36.37-20.03-40.2Z"/>
        </g>
        <path class="cls-37" d="M163.56,400.02c-1.35,10.43.46,25.14,1.16,39.08"/>
      </g>
      <g>
        <path class="cls-20" d="M103.27,205.68c.24-12.74,21.61-19.73,27.22-22.67.97-.51,2.18-.31,3.03.39l7.52,7.38c.61.51,5.85,2.37,6.63,2.23,13.87-2.47,12.26-8.71,14.15-11.96.6-1.04,3.13-.9,4.3-.61,4.76,1.15,22.7,3.41,35.69,12.35.6.41,1.01,1.05,1.13,1.77,2.04,11.86,19.6,115.11,19.59,158.52-.52.86-.92,1.53-1.44,2.38-8.88,4.62-47.24,14-56.77,14.87-19,1.75-46.53,2.34-59.47.23l-2.18-2.02c-5.74-23.21.11-137.78.59-162.87Z"/>
        <path class="cls-20" d="M64.8,265.8l38.76,11.24s20.97-25.32,16.77-41.96c-2.84-11.28-9.54-40.73-14.57-36.8-14.72,11.6-40.96,67.52-40.96,67.52Z"/>
        <path class="cls-20" d="M249.56,264.67l-33.84,22.29-24.95-86.68s10.45-7.69,11.98-6.83c23.16,12.96,46.81,71.22,46.81,71.22Z"/>
      </g>
      <path class="cls-24" d="M114.98,240.57c15.27-29.41,10.01-53.57,15.51-57.55.96-.69,2.19-.27,3.07.77l-2.51,60.01c-.1,2.41,1.9,4.39,4.31,4.24,11.2-.68,39.46-3.48,40.09-3.62,13.82-2.96-15.33-58.21-13.57-62.82.56-1.47,1.75-1.53,2.94-1.08,4.95,1.9,22.48,48.44,35.98,62.63.28,1.88,27.91,125.8,29.36,190.2v.03c-4.59,5.76-47.57,19.28-57.77,20.2-19.86,1.78-49.14,1.37-61.39-2.69l-.02-.02c-7.37-26.93-3.31-196.24,3.99-210.31Z"/>
      <path class="cls-28" d="M137.44,165.3l25.28,1.2-.24,6.43s-5.24,5.56-9.78,4.67-9.87-3.29-12.04-5.29c-2.17-2-4.19-4.05-4.19-4.64s.97-2.37.97-2.37Z"/>
      <g>
        <path class="cls-1" d="M129.12,132.31c1.57-9.53,22.71-14.28,34.99-9.29.37.16,7.82.39,7.45,6.72.1,3.04-7.71,3.09-7.91,3.2-.03.01-.05.03-.08.04-.06,1.39-.69,3.17-.69,3.17,0,0,4.17,10.02.71,15.69-4.97-4.91-3.77.95-6.14,1.22-2.36,7.27-2.51,10.3-4.98,12.87-2.51,2.61-16.38,1.27-16.39,1.33-2.84-.69-8.08-8.5-10.28-12.55-3.71-6.87-.21-7.76-3.8-13.81-2.17-3.66,3.51-9.06,7.11-8.58Z"/>
        <path class="cls-29" d="M164.94,155.07c-1.09-5.96-.7-15.73-3.68-19.41-.36-.45-.75-.83-1.16-1.18-6.65-1.79-17.8-.39-21.74.19-1.74.97-3.23,2.34-4.22,4.33-2.15,4.31.22,13.74.38,19.81.2,7.76,1.56,7.2,7.85,11.25,1.86,1.19,10.69,3.2,12.89,2.53,2.23-.31,4.12-.97,5.69-2.58,3.28-4.62,5.4-7.33,4-14.94Z"/>
        <path class="cls-29" d="M133.3,145.94c-7.44-4.48-4.81,6.06-3,8.4.66.86,3.23,1.92,4.58,1.98l-1.57-10.38Z"/>
      </g>
      <ellipse class="cls-8" cx="142.95" cy="148.52" rx=".99" ry="2.44" transform="translate(-18 19.73) rotate(-7.43)"/>
      <ellipse class="cls-23" cx="155.46" cy="147.33" rx=".99" ry="2.44" transform="translate(-17.75 21.34) rotate(-7.43)"/>
      <path class="cls-33" d="M146.34,162.34s7.26,1.79,10.59-.38"/>
      <path class="cls-33" d="M150.11,150.96s.98,2.9,1.58,3.81-.98.98-.98.98"/>
    </g>
  </g>
  <g id="Woman_1" data-name="Woman 1">
    <g id="Woman_1-2" data-name="Woman 1">
      <g>
        <path class="cls-26" d="M610.17,622.3s-5.3,12.5-8.91,13.04c-2.73.41-8.55-9.2-8.55-9.2l2.17-15.18,16.66,2.34-1.37,9Z"/>
        <path class="cls-22" d="M592.71,642.98c3.72,3.73,42.32,1.22,45.16-1.32-3.08-1.37-25.61-15.66-27.69-19.36-3.9,1.22-3.31,8.9-7.26,9.62-3.96.72-6.95-4.44-10.21-5.77,0,0-1.54,15.28,0,16.83Z"/>
        <path class="cls-26" d="M591.12,623.69s-9.82,10.06-13.28,8.41c-2.62-1.25-3.92-15.12-3.92-15.12l-.73-11.37,17.09,3.89.84,14.19Z"/>
        <path class="cls-22" d="M573.07,643.1c3.23,1.24,13.32,1.21,13.32,1.21,0,0,22.83-4.42,22.81-6.98.64-2.82-14.81-10.36-18.35-16.83-2.09-2.48-8.31,1.51-11.22,1.92-2.28.32-1.47.12-3.5-.53-1.22-.4-2.48-1.35-2.33.08.51,4.7-1.59,11.19-.75,21.12Z"/>
        <path class="cls-36" d="M591.15,626.32c-2.39,4.05-1.56,9.14-.88,13.95"/>
      </g>
      <g>
        <path class="cls-5" d="M633.1,362.39c-1.46-1.76-1.46-10.13-10.26-37.07-13.52-9.69-56.9,2.06-58.74,5.46-9.24,17.08-16.67,51.65-13.14,59.76l26.04,103.95s-1.74,16.58-4.34,25.5c-4.45,15.27-.81,86.82-.81,86.82,0,0,20.01,7.25,22.35,1.54,2.09-5.09,24.31-96.03,24.31-111.06,0-9.21,1.48-63.53-4.8-109.81,11.88-9.45,19.63-24.79,19.38-25.09Z"/>
        <path class="cls-5" d="M613.15,614.69l-21.26-1.57,1.84-27.62s-5.75-49.79,5.91-79.18c-6.81-28.05,2.79-115.04,2.79-115.04,0,0,29.87-37.65,42.9-33.13,13.87,65.96-32.18,256.56-32.18,256.56Z"/>
        <path class="cls-36" d="M588.94,408.52c2.36,27.37,11.93,50.86,9.3,89.37"/>
        <path class="cls-36" d="M599.64,506.31c-19.22,31.7-2.06,68.92-7.22,98.82"/>
      </g>
      <path class="cls-25" d="M579.37,191.85c-1.11-3.77-4-13.32-5.18-17.7,1.32-2.01,9.96-5.83,13.33-6.22,3.39-.13,10.98,8.92,12.53,10.7-3.56,13.09,3.49,19.85,3.49,19.85,0,0,2.37,14.68-4.86,15.24-7.23.56-26.09-13.94-26.09-13.94,0,0,4.23-.32,6.78-7.93Z"/>
      <g>
        <path class="cls-15" d="M633.78,221.53c-19.57-31.86-40.36-26.44-40.36-26.44,0,0-12.55.87-18.32,2.08-5.77,1.2-11.4,4.13-11.4,4.13,0,0-19.3,16.98-13.65,55.25,1.68,11.38,2.83,38.33,7.95,53.13.02.01.05.02.07.04-10.59,31.03-13.64,87.54-4.7,90.54,21.26,7.14,98.21-5.08,98.21-5.08,3.14-76.04-7.1-162.32-17.81-173.63Z"/>
        <path class="cls-15" d="M663.76,298.52c-3.81,11.86-16.47,11.37-16.47,11.37,0,0-26.19-42.1-30.1-54.5-3.61-11.43.11-52.33,5.59-48.14,20.61,15.75,44.12,81.51,40.98,91.27Z"/>
        <path class="cls-35" d="M618.41,219.91c-1.83,5.46-4.16,26.37-2.65,31.59,4.34,15.06,17.34,41.28,28.17,52.91"/>
      </g>
      <g>
        <path class="cls-14" d="M583.97,177.3c-3.03-4.61-7.62-20.49-4.28-23.29,3.34-2.81,4.69-3.83,8.99-1.8,4.62,2.18,4.37,6.48,5.75,8.55,1.17,1.76,4.09,2.99,5.73,3.98.27,1.23-.63,3.58-.63,3.58,0,0,.72,1.75,1.47,2.08-.73,1.83-.59,2.89-.07,4.5.7,2.12,2.12,4.55,1.64,5.95-1.23,3.63-6.04,3.84-7.91,3.75-6.35-.31-6.83-1.42-10.68-7.3Z"/>
        <path class="cls-19" d="M588.18,184.4c.28,2.02-7.17,8.96-7.31,9.23-22.7,11.09-29.75-27.75-28.61-32.28,1.93-7.68,35.59-25.79,35.78-9.42-1.34-.49-2.95-.92-3.77-.53-2.15,1.81-.44,1.76-2.89,9.48-3.38,10.59,5.96,17.47,6.8,23.52Z"/>
        <path class="cls-14" d="M584.26,173.38c-5.83-.51-1.65,6.92.38,8.06.75.42,2.3,1.18,3.17.69l-3.56-8.75Z"/>
      </g>
      <g>
        <path class="cls-19" d="M581.68,183.63c-14.04.61-39.17,4.68-43.04,23.73-3.5,17.25,13.22,29.81,9.29,49.04-4.33,21.19-15.28,42.46,11.48,47.61,17.01,3.27,30.05-14.32,31.14-35.52,1.12-21.75-25.19-37.1-10.11-69.15l1.24-15.71Z"/>
        <path class="cls-19" d="M552.09,298.91c.02-.38-.23-.7-.57-.72h0c-3.67-.24-7.31-2.8-10.28-6.4h0c-2.97-3.59-5.25-8.18-6.23-12.32h0c-.33-1.39-.52-2.72-.55-3.94h0c-.15-7.16,3.04-12.45,5.9-18.17h0c2.86-5.69,5.33-11.89,3.26-20.52h0c-.75-3.12-2.08-6.55-4.16-10.39h0c-.79-1.46-1.37-3.02-1.76-4.65h0c-1.37-5.72-.35-12.32,2.52-17.94h0c2.86-5.61,7.55-10.22,13.44-12.02h0c.49-.15.99-.28,1.5-.39h0c.33-.07.54-.43.48-.79h0c-.06-.37-.38-.61-.7-.54h0c-.54.12-1.06.25-1.58.41h0c-12.47,3.85-19.71,19.34-16.8,31.62h0c.42,1.75,1.05,3.43,1.9,5h0c2.04,3.76,3.31,7.07,4.02,10.03h0c1.95,8.18-.32,13.84-3.14,19.5h0c-2.81,5.64-6.22,11.21-6.06,18.87h0c.03,1.35.23,2.79.59,4.27h0c1.05,4.39,3.41,9.13,6.52,12.89h0c3.1,3.75,6.97,6.54,11.09,6.82h0c.07,0,.13,0,.19-.02h0c.24-.07.43-.32.44-.61h0Z"/>
      </g>
    </g>
  </g>
</svg>