<?xml version="1.0" encoding="UTF-8"?>
<svg id="Layer_2" data-name="Layer 2" xmlns="http://www.w3.org/2000/svg" viewBox="0 0 555.21 915.43">
  <defs>
    <style>
      .cls-1 {
        fill: #515151;
      }

      .cls-1, .cls-2, .cls-3, .cls-4 {
        stroke-width: 0px;
      }

      .cls-2 {
        fill: #000;
      }

      .cls-3 {
        fill: #f6f6f6;
      }

      .cls-4 {
        fill: #e73838;
      }
    </style>
  </defs>
  <g id="cart">
    <g id="Phone">
      <g>
        <rect class="cls-1" x="86.25" y="24.9" width="382.72" height="865.64" rx="36.34" ry="36.34" transform="translate(-96.96 75.27) rotate(-13.17)"/>
        <rect class="cls-3" x="98.07" y="35.32" width="358.8" height="843.61" rx="28.98" ry="28.98" transform="translate(-96.83 75.22) rotate(-13.17)"/>
        <rect class="cls-2" x="134.96" y="61.67" width="100.74" height="32.85" rx="16.43" ry="16.43" transform="translate(-12.92 44.27) rotate(-13.17)"/>
      </g>
    </g>
    <path class="cls-4" d="M286.02,505.04l-.58.98-1.04-.6c-44.75-26.02-74.33-43.24-79.75-66.44-3.76-16.06,5-30.8,20.43-34.41,11.88-2.78,25.33,2.54,31.98,12.5l14.35-3.36c1.54-11.87,11.23-22.61,23.11-25.39,15.43-3.61,29.82,5.72,33.58,21.78,5.43,23.2-13.45,51.75-42.08,94.94ZM290.77,372.27c-13.43,3.14-24.79,12.66-30.82,24.82-10.8-8.23-25.2-11.72-38.63-8.57-23.77,5.56-37.91,29.27-32.11,54.08,7.08,30.26,39.12,48.93,87.62,77.13l13.67,7.98,8.71-13.21c30.97-46.78,51.4-77.73,44.32-107.99-5.8-24.81-29-39.78-52.77-34.22Z"/>
  </g>
</svg>