<svg width="398" height="322" viewBox="0 0 398 322" fill="none" xmlns="http://www.w3.org/2000/svg">
<path d="M66.3503 42.5204C49.1088 37.3476 -24.4556 34.4756 8.30424 185.625C41.064 336.775 62.3264 184.476 101.982 246.543C141.638 308.61 161.752 316.658 177.844 296.545C193.937 276.431 269.799 289.074 307.154 296.545C344.509 304.015 386.648 342.612 362.325 274.705C338.002 206.798 237.036 127.005 305.428 108.037C373.819 89.0691 422.094 68.3811 385.314 52.2884C348.533 36.1957 285.317 -14.3769 273.823 12.0582C262.329 38.4934 221.524 72.402 183.017 54.0117C144.51 35.6213 121.521 24.7014 108.878 26.999C96.235 29.2967 90.4878 57.4581 78.4191 49.9877L66.3503 42.5173V42.5204Z" fill="#C2CD99"/>
<path d="M268.406 178.09H102.207V185.625H268.406V178.09Z" fill="#442523"/>
<path d="M261.878 68.9215H108.279V170.697H261.878V68.9215Z" fill="#442523"/>
<path d="M268.304 52.2513C268.32 46.9581 262.789 47.3163 262.789 47.3163H107.146C102.371 47.3163 102.933 52.8875 102.933 52.8875V168.121H268.301C268.301 168.121 268.286 57.5414 268.301 52.2513H268.304ZM111.982 70.2463H257.672V127.656H111.982V70.2463ZM257.98 168.106H112.003V151.747H257.98V168.106ZM258.042 148.032H112.158V133.144H258.042V148.032Z" fill="#5A332D"/>
<path d="M185.188 84.0261H167.1L169.151 60.6205H185.515L185.188 84.0261Z" fill="#D7793C"/>
<path d="M166.94 84.0261H148.849L152.642 60.6205H169.006L166.94 84.0261Z" fill="#FCF0B8"/>
<path d="M148.689 84.0261H130.598L136.129 60.6205H152.493L148.689 84.0261Z" fill="#D7793C"/>
<path d="M130.437 84.0261H112.347L119.619 60.6205H135.984L130.437 84.0261Z" fill="#FCF0B8"/>
<path d="M112.186 84.026H94.095L103.106 60.6205H119.471L112.186 84.026Z" fill="#D7793C"/>
<path d="M203.443 84.0261H185.355L185.664 60.6205H202.028L203.443 84.0261Z" fill="#FCF0B8"/>
<path d="M221.719 84.0261H203.628L202.198 60.6205H218.562L221.719 84.0261Z" fill="#D7793C"/>
<path d="M240.026 84.0261H221.938L218.76 60.6205H235.125L240.026 84.0261Z" fill="#FCF0B8"/>
<path d="M258.333 84.0261H240.245L235.322 60.6205H251.687L258.333 84.0261Z" fill="#D7793C"/>
<path d="M276.639 84.0261H258.552L251.884 60.6205H268.249L276.639 84.0261Z" fill="#FCF0B8"/>
<path d="M103.295 96.5704C103.295 96.5704 94.0984 97.3456 94.0984 84.023H112.186C112.186 84.023 112.254 96.5704 103.295 96.5704Z" fill="#DD8E5B"/>
<path d="M121.552 96.5704C121.552 96.5704 112.356 97.3456 112.356 84.023H130.443C130.443 84.023 130.511 96.5704 121.552 96.5704Z" fill="#FDF3C8"/>
<path d="M139.813 96.5704C139.813 96.5704 130.616 97.3456 130.616 84.023H148.704C148.704 84.023 148.772 96.5704 139.813 96.5704Z" fill="#DD8E5B"/>
<path d="M158.074 96.5704C158.074 96.5704 148.877 97.3456 148.877 84.023H166.965C166.965 84.023 167.033 96.5704 158.074 96.5704Z" fill="#FDF3C8"/>
<path d="M176.331 96.5704C176.331 96.5704 167.134 97.3456 167.134 84.023H185.222C185.222 84.023 185.29 96.5704 176.331 96.5704Z" fill="#DD8E5B"/>
<path d="M194.592 96.5704C194.592 96.5704 185.395 97.3456 185.395 84.023H203.483C203.483 84.023 203.551 96.5704 194.592 96.5704Z" fill="#FDF3C8"/>
<path d="M212.852 96.5704C212.852 96.5704 203.656 97.3456 203.656 84.023H221.743C221.743 84.023 221.811 96.5704 212.852 96.5704Z" fill="#DD8E5B"/>
<path d="M231.11 96.5704C231.11 96.5704 221.913 97.3456 221.913 84.023H240.001C240.001 84.023 240.069 96.5704 231.11 96.5704Z" fill="#FDF3C8"/>
<path d="M249.37 96.5704C249.37 96.5704 240.174 97.3456 240.174 84.023H258.261C258.261 84.023 258.329 96.5704 249.37 96.5704Z" fill="#DD8E5B"/>
<path d="M267.631 96.5704C267.631 96.5704 258.434 97.3456 258.434 84.023H276.522C276.522 84.023 276.59 96.5704 267.631 96.5704Z" fill="#FDF3C8"/>
<path d="M156.381 168.217H171.51C172.65 167.29 173.323 166.148 173.323 164.909C173.323 161.818 169.123 159.31 163.944 159.31C158.765 159.31 154.565 161.818 154.565 164.909C154.565 166.148 155.238 167.29 156.378 168.217H156.381Z" fill="#F0A369"/>
<path d="M159.624 160.373C159.988 160.397 162.409 161.42 162.678 161.701C162.947 161.982 163.03 162.124 163.03 162.124C163.03 162.124 162.783 161.336 161.832 160.75C160.881 160.163 159.624 160.373 159.624 160.373Z" fill="#F5C099"/>
<path d="M162.066 160.045C162.431 160.07 164.852 161.092 165.121 161.373C165.393 161.654 165.473 161.797 165.473 161.797C165.473 161.797 165.226 161.009 164.275 160.422C163.323 159.835 162.066 160.045 162.066 160.045Z" fill="#F5C099"/>
<path d="M164.96 160.475C165.324 160.5 167.746 161.522 168.014 161.803C168.283 162.084 168.366 162.226 168.366 162.226C168.366 162.226 168.119 161.438 167.168 160.852C166.217 160.265 164.96 160.475 164.96 160.475Z" fill="#F5C099"/>
<path d="M115.762 168.217H130.891C132.031 167.29 132.704 166.148 132.704 164.909C132.704 161.818 128.504 159.31 123.325 159.31C118.146 159.31 113.946 161.818 113.946 164.909C113.946 166.148 114.619 167.29 115.759 168.217H115.762Z" fill="#F0A369"/>
<path d="M119.005 160.373C119.369 160.397 121.79 161.42 122.059 161.701C122.328 161.982 122.411 162.124 122.411 162.124C122.411 162.124 122.164 161.336 121.213 160.75C120.262 160.163 119.005 160.373 119.005 160.373Z" fill="#F5C099"/>
<path d="M121.45 160.045C121.815 160.07 124.236 161.092 124.505 161.373C124.773 161.654 124.857 161.797 124.857 161.797C124.857 161.797 124.61 161.009 123.658 160.422C122.707 159.835 121.45 160.045 121.45 160.045Z" fill="#F5C099"/>
<path d="M124.341 160.475C124.706 160.5 127.127 161.522 127.395 161.803C127.664 162.084 127.747 162.226 127.747 162.226C127.747 162.226 127.5 161.438 126.549 160.852C125.598 160.265 124.341 160.475 124.341 160.475Z" fill="#F5C099"/>
<path d="M197.952 168.217H213.081C214.221 167.29 214.894 166.148 214.894 164.909C214.894 161.818 210.694 159.31 205.515 159.31C200.336 159.31 196.136 161.818 196.136 164.909C196.136 166.148 196.809 167.29 197.949 168.217H197.952Z" fill="#F0A369"/>
<path d="M201.191 160.373C201.556 160.397 203.977 161.42 204.246 161.701C204.514 161.982 204.598 162.124 204.598 162.124C204.598 162.124 204.351 161.336 203.399 160.75C202.448 160.163 201.191 160.373 201.191 160.373Z" fill="#F5C099"/>
<path d="M203.637 160.045C204.002 160.07 206.423 161.092 206.692 161.373C206.963 161.654 207.044 161.797 207.044 161.797C207.044 161.797 206.797 161.009 205.846 160.422C204.894 159.835 203.637 160.045 203.637 160.045Z" fill="#F5C099"/>
<path d="M206.531 160.475C206.895 160.5 209.317 161.522 209.585 161.803C209.857 162.084 209.937 162.226 209.937 162.226C209.937 162.226 209.69 161.438 208.739 160.852C207.788 160.265 206.531 160.475 206.531 160.475Z" fill="#F5C099"/>
<path d="M193.316 148.005H208.446C209.585 147.078 210.258 145.935 210.258 144.697C210.258 141.606 206.058 139.098 200.879 139.098C195.701 139.098 191.501 141.606 191.501 144.697C191.501 145.935 192.174 147.078 193.313 148.005H193.316Z" fill="#F0A369"/>
<path d="M196.559 140.161C196.923 140.185 199.344 141.207 199.613 141.488C199.882 141.769 199.965 141.912 199.965 141.912C199.965 141.912 199.718 141.124 198.767 140.537C197.816 139.951 196.559 140.161 196.559 140.161Z" fill="#F5C099"/>
<path d="M199.002 139.833C199.366 139.858 201.787 140.88 202.056 141.161C202.325 141.442 202.408 141.584 202.408 141.584C202.408 141.584 202.161 140.797 201.21 140.21C200.258 139.623 199.002 139.833 199.002 139.833Z" fill="#F5C099"/>
<path d="M201.895 140.262C202.26 140.287 204.681 141.309 204.95 141.59C205.218 141.871 205.302 142.013 205.302 142.013C205.302 142.013 205.055 141.226 204.103 140.639C203.152 140.052 201.895 140.262 201.895 140.262Z" fill="#F5C099"/>
<path d="M174.067 148.005H189.197C190.336 147.078 191.009 145.935 191.009 144.697C191.009 141.606 186.809 139.098 181.63 139.098C176.452 139.098 172.252 141.606 172.252 144.697C172.252 145.935 172.925 147.078 174.064 148.005H174.067Z" fill="#F0A369"/>
<path d="M177.307 140.161C177.671 140.185 180.092 141.207 180.361 141.488C180.63 141.769 180.713 141.912 180.713 141.912C180.713 141.912 180.466 141.124 179.515 140.537C178.564 139.951 177.307 140.161 177.307 140.161Z" fill="#F5C099"/>
<path d="M179.753 139.833C180.117 139.858 182.538 140.88 182.807 141.161C183.076 141.442 183.159 141.584 183.159 141.584C183.159 141.584 182.912 140.797 181.961 140.21C181.01 139.623 179.753 139.833 179.753 139.833Z" fill="#F5C099"/>
<path d="M182.646 140.262C183.011 140.287 185.432 141.309 185.701 141.59C185.969 141.871 186.053 142.013 186.053 142.013C186.053 142.013 185.806 141.226 184.855 140.639C183.903 140.052 182.646 140.262 182.646 140.262Z" fill="#F5C099"/>
<path d="M238.2 127.644H253.329C254.469 126.717 255.142 125.575 255.142 124.336C255.142 121.245 250.942 118.737 245.763 118.737C240.584 118.737 236.384 121.245 236.384 124.336C236.384 125.575 237.058 126.717 238.197 127.644H238.2Z" fill="#F0A369"/>
<path d="M241.443 119.8C241.807 119.824 244.228 120.847 244.497 121.128C244.766 121.409 244.849 121.551 244.849 121.551C244.849 121.551 244.602 120.763 243.651 120.177C242.7 119.59 241.443 119.8 241.443 119.8Z" fill="#F5C099"/>
<path d="M243.889 119.472C244.253 119.497 246.674 120.519 246.943 120.8C247.212 121.081 247.295 121.224 247.295 121.224C247.295 121.224 247.048 120.436 246.097 119.849C245.146 119.262 243.889 119.472 243.889 119.472Z" fill="#F5C099"/>
<path d="M246.779 119.902C247.144 119.927 249.565 120.949 249.834 121.23C250.102 121.511 250.186 121.653 250.186 121.653C250.186 121.653 249.939 120.865 248.988 120.279C248.036 119.692 246.779 119.902 246.779 119.902Z" fill="#F5C099"/>
<path d="M114.236 127.644H129.365C130.505 126.717 131.178 125.575 131.178 124.336C131.178 121.245 126.978 118.737 121.799 118.737C116.62 118.737 112.42 121.245 112.42 124.336C112.42 125.575 113.094 126.717 114.233 127.644H114.236Z" fill="#F0A369"/>
<path d="M117.479 119.8C117.844 119.824 120.265 120.847 120.533 121.128C120.802 121.409 120.885 121.551 120.885 121.551C120.885 121.551 120.638 120.763 119.687 120.177C118.736 119.59 117.479 119.8 117.479 119.8Z" fill="#F5C099"/>
<path d="M119.925 119.472C120.289 119.497 122.711 120.519 122.979 120.8C123.248 121.081 123.331 121.224 123.331 121.224C123.331 121.224 123.084 120.436 122.133 119.849C121.182 119.262 119.925 119.472 119.925 119.472Z" fill="#F5C099"/>
<path d="M122.819 119.902C123.183 119.927 125.604 120.949 125.873 121.23C126.142 121.511 126.225 121.653 126.225 121.653C126.225 121.653 125.978 120.865 125.027 120.279C124.076 119.692 122.819 119.902 122.819 119.902Z" fill="#F5C099"/>
<path d="M247.042 142.159H256.532C257.245 141.578 257.668 140.858 257.668 140.083C257.668 138.144 255.034 136.572 251.785 136.572C248.537 136.572 245.902 138.144 245.902 140.083C245.902 140.858 246.325 141.578 247.039 142.159H247.042Z" fill="#F0A369"/>
<path d="M249.074 137.236C249.303 137.251 250.822 137.891 250.992 138.07C251.162 138.249 251.214 138.335 251.214 138.335C251.214 138.335 251.06 137.841 250.464 137.474C249.868 137.106 249.077 137.239 249.077 137.239L249.074 137.236Z" fill="#F5C099"/>
<path d="M250.609 137.032C250.838 137.047 252.357 137.687 252.527 137.866C252.697 138.045 252.749 138.131 252.749 138.131C252.749 138.131 252.595 137.637 251.999 137.27C251.403 136.902 250.612 137.035 250.612 137.035L250.609 137.032Z" fill="#F5C099"/>
<path d="M252.425 137.301C252.654 137.316 254.173 137.956 254.343 138.135C254.513 138.314 254.565 138.4 254.565 138.4C254.565 138.4 254.411 137.906 253.815 137.539C253.219 137.171 252.428 137.304 252.428 137.304L252.425 137.301Z" fill="#F5C099"/>
<path d="M238.821 147.862L246.236 141.939C246.43 141.037 246.313 140.213 245.828 139.608C244.618 138.091 241.579 138.508 239.04 140.537C236.502 142.566 235.427 145.438 236.638 146.951C237.123 147.557 237.901 147.853 238.821 147.862Z" fill="#F0A369"/>
<path d="M237.339 142.748C237.527 142.619 239.112 142.171 239.356 142.202C239.6 142.233 239.695 142.27 239.695 142.27C239.695 142.27 239.266 141.98 238.571 142.066C237.876 142.152 237.342 142.745 237.342 142.745L237.339 142.748Z" fill="#F5C099"/>
<path d="M238.41 141.631C238.599 141.501 240.183 141.053 240.427 141.084C240.671 141.115 240.767 141.152 240.767 141.152C240.767 141.152 240.337 140.862 239.643 140.948C238.948 141.035 238.414 141.627 238.414 141.627L238.41 141.631Z" fill="#F5C099"/>
<path d="M239.995 140.71C240.183 140.581 241.767 140.133 242.011 140.164C242.255 140.195 242.351 140.232 242.351 140.232C242.351 140.232 241.922 139.941 241.227 140.028C240.532 140.114 239.998 140.707 239.998 140.707L239.995 140.71Z" fill="#F5C099"/>
<path d="M219.943 127.721H229.433C230.146 127.141 230.569 126.421 230.569 125.646C230.569 123.707 227.935 122.135 224.686 122.135C221.437 122.135 218.803 123.707 218.803 125.646C218.803 126.421 219.226 127.141 219.94 127.721H219.943Z" fill="#F0A369"/>
<path d="M221.975 122.798C222.203 122.814 223.723 123.453 223.893 123.632C224.062 123.811 224.115 123.898 224.115 123.898C224.115 123.898 223.961 123.404 223.365 123.036C222.769 122.669 221.978 122.802 221.978 122.802L221.975 122.798Z" fill="#F5C099"/>
<path d="M223.51 122.595C223.739 122.61 225.258 123.249 225.428 123.429C225.598 123.608 225.65 123.694 225.65 123.694C225.65 123.694 225.496 123.2 224.9 122.832C224.304 122.465 223.513 122.598 223.513 122.598L223.51 122.595Z" fill="#F5C099"/>
<path d="M225.323 122.863C225.551 122.879 227.071 123.518 227.241 123.697C227.41 123.876 227.463 123.963 227.463 123.963C227.463 123.963 227.309 123.469 226.712 123.101C226.116 122.734 225.326 122.866 225.326 122.866L225.323 122.863Z" fill="#F5C099"/>
<path d="M174.623 127.956H184.113C184.827 127.375 185.25 126.656 185.25 125.881C185.25 123.941 182.616 122.369 179.367 122.369C176.118 122.369 173.484 123.941 173.484 125.881C173.484 126.656 173.907 127.375 174.62 127.956H174.623Z" fill="#F0A369"/>
<path d="M176.655 123.036C176.884 123.052 178.403 123.691 178.573 123.87C178.743 124.049 178.796 124.136 178.796 124.136C178.796 124.136 178.641 123.641 178.045 123.274C177.449 122.906 176.658 123.039 176.658 123.039L176.655 123.036Z" fill="#F5C099"/>
<path d="M178.19 122.829C178.419 122.845 179.938 123.484 180.108 123.663C180.278 123.842 180.33 123.929 180.33 123.929C180.33 123.929 180.176 123.435 179.58 123.067C178.984 122.7 178.193 122.832 178.193 122.832L178.19 122.829Z" fill="#F5C099"/>
<path d="M180.006 123.101C180.235 123.117 181.754 123.756 181.924 123.935C182.094 124.114 182.146 124.201 182.146 124.201C182.146 124.201 181.992 123.706 181.396 123.339C180.8 122.971 180.009 123.104 180.009 123.104L180.006 123.101Z" fill="#F5C099"/>
<path d="M115.882 148.073L140.832 148.103C142.713 147.526 143.825 146.81 143.828 146.031C143.828 144.092 136.907 142.511 128.365 142.501C119.823 142.492 112.896 144.055 112.893 145.994C112.893 146.769 114.005 147.489 115.882 148.073Z" fill="#F0A369"/>
<path d="M121.237 143.159C121.839 143.174 125.829 143.82 126.274 143.999C126.719 144.178 126.855 144.265 126.855 144.265C126.855 144.265 126.447 143.771 124.878 143.4C123.309 143.029 121.234 143.159 121.234 143.159H121.237Z" fill="#F5C099"/>
<path d="M125.27 142.958C125.873 142.974 129.863 143.619 130.307 143.798C130.752 143.978 130.888 144.064 130.888 144.064C130.888 144.064 130.48 143.57 128.911 143.199C127.343 142.829 125.267 142.958 125.267 142.958H125.27Z" fill="#F5C099"/>
<path d="M130.042 143.233C130.644 143.249 134.634 143.894 135.078 144.073C135.523 144.252 135.659 144.339 135.659 144.339C135.659 144.339 135.251 143.845 133.683 143.474C132.114 143.103 130.038 143.233 130.038 143.233H130.042Z" fill="#F5C099"/>
<path d="M115.882 142.285L140.832 142.316C142.713 141.739 143.825 141.022 143.828 140.244C143.828 138.304 136.907 136.723 128.365 136.714C119.823 136.705 112.896 138.267 112.893 140.207C112.893 140.982 114.005 141.701 115.882 142.285Z" fill="#F0A369"/>
<path d="M121.237 137.372C121.839 137.387 125.829 138.033 126.274 138.212C126.719 138.391 126.855 138.477 126.855 138.477C126.855 138.477 126.447 137.983 124.878 137.613C123.309 137.242 121.234 137.372 121.234 137.372H121.237Z" fill="#F5C099"/>
<path d="M125.27 137.171C125.873 137.186 129.863 137.832 130.307 138.011C130.752 138.19 130.888 138.277 130.888 138.277C130.888 138.277 130.48 137.783 128.911 137.412C127.343 137.041 125.267 137.171 125.267 137.171H125.27Z" fill="#F5C099"/>
<path d="M130.042 137.446C130.644 137.462 134.634 138.107 135.078 138.286C135.523 138.465 135.659 138.552 135.659 138.552C135.659 138.552 135.251 138.058 133.683 137.687C132.114 137.316 130.038 137.446 130.038 137.446H130.042Z" fill="#F5C099"/>
<path d="M142.633 138.863L165.902 147.869C167.866 148.005 169.16 147.736 169.441 147.013C170.142 145.204 164.25 141.238 156.283 138.156C148.315 135.074 141.289 134.04 140.591 135.849C140.31 136.572 141.088 137.644 142.633 138.863Z" fill="#F0A369"/>
<path d="M149.396 136.204C149.952 136.436 153.441 138.474 153.793 138.799C154.145 139.123 154.241 139.256 154.241 139.256C154.241 139.256 154.04 138.647 152.709 137.739C151.378 136.831 149.396 136.204 149.396 136.204Z" fill="#F5C099"/>
<path d="M153.229 137.468C153.784 137.699 157.274 139.737 157.626 140.062C157.978 140.386 158.074 140.519 158.074 140.519C158.074 140.519 157.873 139.91 156.542 139.002C155.211 138.091 153.229 137.468 153.229 137.468Z" fill="#F5C099"/>
<path d="M157.583 139.441C158.139 139.673 161.628 141.711 161.98 142.035C162.332 142.359 162.428 142.492 162.428 142.492C162.428 142.492 162.227 141.884 160.896 140.976C159.565 140.065 157.583 139.441 157.583 139.441Z" fill="#F5C099"/>
<path d="M203.455 127.746L227.45 120.912C229.1 119.837 229.973 118.843 229.76 118.095C229.229 116.23 222.139 116.616 213.924 118.954C205.709 121.295 199.477 124.704 200.009 126.566C200.222 127.314 201.488 127.7 203.455 127.743V127.746Z" fill="#F0A369"/>
<path d="M207.25 121.548C207.831 121.396 211.845 120.921 212.324 120.967C212.803 121.013 212.957 121.063 212.957 121.063C212.957 121.063 212.429 120.698 210.82 120.776C209.208 120.85 207.253 121.548 207.253 121.548H207.25Z" fill="#F5C099"/>
<path d="M211.07 120.248C211.651 120.096 215.666 119.621 216.144 119.667C216.623 119.713 216.777 119.763 216.777 119.763C216.777 119.763 216.249 119.398 214.64 119.476C213.028 119.55 211.074 120.248 211.074 120.248H211.07Z" fill="#F5C099"/>
<path d="M215.734 119.201C216.314 119.049 220.329 118.574 220.808 118.62C221.283 118.67 221.441 118.716 221.441 118.716C221.441 118.716 220.913 118.351 219.304 118.429C217.695 118.506 215.737 119.201 215.737 119.201H215.734Z" fill="#F5C099"/>
<path d="M185.652 125.075H175.8L177.77 113.849H186.096L185.652 125.075Z" fill="#F3B49C"/>
<path d="M216.107 157.495C217.506 163.504 211.225 163.476 208.304 160.694C205.401 157.93 198.434 142.149 197.584 137.637C196.408 131.387 203.016 130.204 205.132 131.433C209.125 133.749 214.44 150.339 216.107 157.495Z" fill="#F3B49C"/>
<path d="M151.28 193.8C151.125 194.59 151.363 194.964 151.629 195.013C151.832 195.05 152.055 194.893 152.113 194.584C151.906 195.263 152.268 195.619 152.663 195.591C152.916 195.572 153.182 195.399 153.321 195.057C153.596 194.383 153.46 189.504 154.352 187.382C154.149 188.828 153.843 190.366 153.855 191.144C153.861 191.613 154 191.916 154.476 192.005C155.1 192.126 155.412 191.805 155.544 191.258C155.958 189.541 157.376 186.388 157.499 185.356C157.864 183.093 157.413 179.847 157.413 179.847C157.413 179.847 153.546 179.304 152.604 180.724C152.147 181.413 151.718 186.162 151.499 187.092C151.31 187.892 150.751 194.297 151.28 193.8Z" fill="#F3B49C"/>
<path d="M152.008 188.479C152.018 190.449 152.03 192.419 152.039 194.386" stroke="#EE9575" stroke-width="0.466321" stroke-linecap="round" stroke-linejoin="round"/>
<path d="M151.326 192.605C151.351 193.08 151.28 193.8 151.28 193.8" stroke="#EE9575" stroke-width="0.466321" stroke-linecap="round" stroke-linejoin="round"/>
<path d="M154.578 185.847C154.497 186.484 154.448 186.672 154.368 187.308" stroke="#EE9575" stroke-width="0.466321" stroke-linecap="round" stroke-linejoin="round"/>
<path d="M154.911 157.865C153.756 163.921 159.899 163.668 162.657 160.78C165.396 157.911 171.649 141.89 172.316 137.35C173.243 131.062 166.742 130.121 164.716 131.427C160.896 133.888 156.286 150.66 154.911 157.868V157.865Z" fill="#F3B49C"/>
<path d="M164.791 157.087C164.469 164.233 157.472 180.085 157.472 180.085L153.083 180.316C153.083 180.316 152.765 154.829 157.505 150.96C159.76 149.119 164.939 153.798 164.791 157.087Z" fill="#F3B49C"/>
<path d="M181.674 257.454C181.674 257.454 178.61 260.7 177.536 260.166C176.72 259.761 176.313 255.286 176.313 255.286L176.087 251.617L181.417 252.871L181.677 257.451L181.674 257.454Z" fill="#F3B49C"/>
<path d="M176.174 261.126C176.73 262.191 178.024 263.109 178.901 263.566C179.24 263.742 180.544 263.553 180.8 263.281C181.627 262.404 182.653 261.197 182.677 260.728C182.711 258.909 183.101 257.63 181.878 256.271C181.192 255.691 178.972 256.768 177.956 256.917C177.159 257.031 177.443 256.969 176.751 256.839C176.331 256.759 175.911 256.543 175.942 256.895C176.044 258.05 176.041 258.689 176.174 261.132V261.126Z" fill="#785B5B"/>
<path d="M182.677 158.804C173.787 154.338 171.143 157.881 170.263 161.719C166.535 177.945 172.026 206.322 173.203 214.574C173.203 214.574 173.203 214.574 173.203 214.577C171.131 228.675 173.546 243.724 175.371 253.436C175.976 256.657 182.724 255.459 182.542 252.164C182.542 252.164 188.409 172.892 188.496 171.459C189.092 161.667 185.241 160.089 182.677 158.801V158.804Z" fill="#A4C0B6"/>
<path d="M199.49 258.155C199.49 258.155 196.525 261.521 195.432 261.033C194.604 260.663 194.064 256.206 194.064 256.206L193.73 252.55L199.094 253.588L199.49 258.152V258.155Z" fill="#F3B49C"/>
<path d="M194.055 262.028C194.604 263.099 195.889 264.023 196.76 264.483C197.096 264.662 198.384 264.473 198.637 264.202C199.453 263.325 200.466 262.111 200.49 261.642C200.521 259.813 200.904 258.532 199.691 257.164C199.011 256.58 196.815 257.658 195.812 257.803C195.024 257.917 195.305 257.855 194.62 257.723C194.206 257.642 193.786 257.423 193.82 257.778C193.925 258.936 193.919 259.582 194.058 262.031L194.055 262.028Z" fill="#785B5B"/>
<path d="M197.584 159.524C188.57 155.419 186.031 159.063 185.262 162.939C182.013 179.307 188.341 207.443 189.759 215.643C189.759 215.643 189.759 215.643 189.759 215.646C188.103 229.818 190.96 244.761 193.069 254.397C193.77 257.59 200.475 256.123 200.2 252.837C200.2 252.837 203.727 173.377 203.773 171.941C204.082 162.13 200.184 160.709 197.587 159.527L197.584 159.524Z" fill="#A4C0B6"/>
<path d="M186.334 186.505C185.917 189.726 186.476 194.269 186.692 198.574" stroke="#3E2210" stroke-width="0.429262" stroke-linecap="round" stroke-linejoin="round"/>
<path d="M167.715 126.489C167.789 122.555 174.389 120.396 176.121 119.488C176.421 119.33 176.794 119.392 177.057 119.608L179.379 121.888C179.568 122.045 181.186 122.619 181.427 122.576C185.71 121.813 185.213 119.886 185.797 118.883C185.982 118.562 186.763 118.605 187.124 118.694C188.594 119.049 194.135 119.747 198.146 122.508C198.332 122.635 198.458 122.833 198.495 123.055C199.125 126.718 204.548 158.603 204.545 172.009C204.385 172.275 204.261 172.482 204.1 172.744C201.358 174.171 189.512 177.068 186.569 177.336C180.701 177.877 172.199 178.059 168.203 177.407C167.959 177.182 167.774 177.012 167.53 176.784C165.757 169.616 167.564 134.234 167.712 126.486L167.715 126.489Z" fill="#111111"/>
<path d="M155.835 145.055L167.805 148.526C167.805 148.526 174.281 140.707 172.983 135.568C172.106 132.085 170.037 122.99 168.484 124.204C163.938 127.786 155.835 145.055 155.835 145.055Z" fill="#111111"/>
<path d="M212.892 144.706L202.442 151.59L194.737 124.821C194.737 124.821 197.964 122.446 198.437 122.712C205.589 126.714 212.892 144.706 212.892 144.706Z" fill="#111111"/>
<path d="M171.328 137.264C176.044 128.181 174.42 120.72 176.118 119.491C176.415 119.278 176.794 119.408 177.066 119.729L176.291 138.261C176.26 139.005 176.878 139.617 177.622 139.571C181.081 139.361 189.808 138.496 190.003 138.453C194.271 137.538 185.268 120.476 185.812 119.052C185.985 118.598 186.352 118.58 186.72 118.719C188.249 119.306 193.662 133.678 197.831 138.06C197.918 138.641 206.451 176.91 206.898 196.798V196.808C205.481 198.586 192.208 202.762 189.058 203.046C182.925 203.595 173.882 203.469 170.099 202.215L170.093 202.209C167.817 193.892 169.071 141.606 171.325 137.261L171.328 137.264Z" fill="#664F33"/>
<path d="M178.267 114.019L186.074 114.389L186 116.375C186 116.375 184.382 118.092 182.98 117.817C181.578 117.542 179.932 116.801 179.262 116.184C178.592 115.566 177.968 114.933 177.968 114.751C177.968 114.568 178.267 114.019 178.267 114.019Z" fill="#EAA492"/>
<path d="M175.698 103.831C176.183 100.888 182.711 99.4207 186.504 100.962C186.618 101.011 188.919 101.082 188.805 103.037C188.835 103.976 186.424 103.991 186.362 104.025C186.353 104.028 186.346 104.035 186.337 104.038C186.319 104.467 186.124 105.017 186.124 105.017C186.124 105.017 187.412 108.111 186.343 109.862C184.808 108.346 185.179 110.155 184.447 110.239C183.718 112.484 183.672 113.42 182.909 114.213C182.134 115.019 177.851 114.605 177.848 114.624C176.971 114.411 175.352 111.999 174.673 110.748C173.527 108.627 174.608 108.352 173.499 106.483C172.829 105.353 174.583 103.686 175.695 103.834L175.698 103.831Z" fill="#704821"/>
<path d="M186.76 110.859C186.423 109.019 186.544 106.002 185.624 104.865C185.512 104.726 185.392 104.609 185.265 104.501C183.212 103.948 179.768 104.38 178.552 104.56C178.014 104.859 177.554 105.282 177.248 105.897C176.584 107.228 177.316 110.14 177.366 112.014C177.428 114.411 177.848 114.238 179.79 115.489C180.364 115.856 183.091 116.477 183.771 116.27C184.459 116.174 185.043 115.97 185.528 115.473C186.541 114.047 187.196 113.21 186.763 110.859H186.76Z" fill="#F3B49C"/>
<path d="M176.986 108.04C174.688 106.656 175.5 109.911 176.059 110.634C176.263 110.9 177.057 111.227 177.474 111.246L176.989 108.04H176.986Z" fill="#F3B49C"/>
<path d="M180.068 109.583C180.235 109.561 180.327 109.209 180.274 108.796C180.22 108.383 180.04 108.066 179.873 108.088C179.705 108.11 179.613 108.462 179.667 108.875C179.721 109.288 179.9 109.604 180.068 109.583Z" fill="url(#paint0_linear_1858_3713)"/>
<path d="M183.928 109.213C184.096 109.191 184.188 108.839 184.134 108.426C184.08 108.014 183.901 107.697 183.734 107.719C183.566 107.741 183.474 108.093 183.528 108.505C183.582 108.918 183.761 109.235 183.928 109.213Z" fill="url(#paint1_linear_1858_3713)"/>
<path d="M181.013 113.104C181.013 113.104 183.255 113.657 184.283 112.987" stroke="#EAA492" stroke-width="0.308822" stroke-miterlimit="10" stroke-linecap="round"/>
<path d="M182.177 109.59C182.177 109.59 182.48 110.486 182.665 110.767C182.85 111.048 182.362 111.069 182.362 111.069" stroke="#EAA492" stroke-width="0.308822" stroke-miterlimit="10" stroke-linecap="round"/>
<path d="M221.122 193.272C221.311 194.056 221.079 194.439 220.811 194.498C220.604 194.544 220.372 194.396 220.301 194.087C220.539 194.76 220.181 195.128 219.776 195.115C219.517 195.106 219.239 194.942 219.084 194.606C218.779 193.942 218.741 189.062 217.753 186.975C218.013 188.411 218.383 189.936 218.399 190.718C218.408 191.187 218.278 191.493 217.796 191.604C217.163 191.746 216.833 191.437 216.679 190.897C216.194 189.195 214.631 186.098 214.467 185.072C214.013 182.824 214.356 179.563 214.356 179.563C214.356 179.563 218.284 178.877 219.297 180.261C219.788 180.931 220.4 185.662 220.656 186.582C220.875 187.376 221.681 193.756 221.122 193.278V193.272Z" fill="#F3B49C"/>
<path d="M220.187 187.978C220.249 189.945 220.307 191.916 220.369 193.883" stroke="#EE9575" stroke-width="0.472497" stroke-linecap="round" stroke-linejoin="round"/>
<path d="M221.033 192.076C221.027 192.552 221.122 193.272 221.122 193.272" stroke="#EE9575" stroke-width="0.472497" stroke-linecap="round" stroke-linejoin="round"/>
<path d="M217.466 185.446C217.571 186.079 217.63 186.264 217.735 186.897" stroke="#EE9575" stroke-width="0.472497" stroke-linecap="round" stroke-linejoin="round"/>
<path d="M205.99 157.084C206.577 164.214 214.301 179.795 214.301 179.795L218.791 179.862C218.791 179.862 218.189 154.382 213.208 150.688C210.839 148.934 205.719 153.801 205.99 157.081V157.084Z" fill="#F3B49C"/>
<path d="M102.207 178.09H268.409V255.005H102.211L102.207 178.09Z" fill="#5A332D"/>
<path d="M222.37 206.912C222.37 206.912 213.674 191.913 184.873 191.913C156.072 191.913 148.599 207.098 148.599 207.098H102.18L102.223 219.802H148.556C148.556 219.802 155.964 235.077 186.065 235.077C216.166 235.077 222.531 219.821 222.531 219.821H268.415V206.912H222.373H222.37ZM146.638 214.806H105.747V212.696L105.827 212.709H146.638V214.806ZM265.463 214.806H224.572V212.696L224.652 212.709H265.463V214.806Z" fill="#FCF0B8"/>
<path d="M165.024 212.186H164.389L164.408 218.865H165.14C166.93 218.865 167.508 217.171 167.508 215.554C167.508 213.783 167.046 212.186 165.024 212.186ZM165.024 206.16H164.408L164.389 212.012H164.909C166.641 212.012 167.026 210.318 167.026 208.894C167.026 207.546 166.584 206.16 165.024 206.16ZM160.655 219V218.885H160.982C161.559 218.885 161.887 218.846 161.887 218.403V206.622C161.887 206.141 161.559 206.141 160.982 206.141H160.655V206.026H165.679C168.046 206.026 169.432 206.95 169.432 209.029C169.432 210.607 168.508 211.666 166.661 212.012C168.913 212.282 170.087 213.418 170.087 215.381C170.087 217.903 168.008 219 165.159 219H160.655ZM175.818 217.537V213.649C175.587 213.726 175.26 213.841 175.029 213.937C174.047 214.303 173.469 215.323 173.469 216.459C173.469 217.287 173.739 218.346 174.663 218.346C175.144 218.346 175.568 217.922 175.818 217.537ZM179.398 218.018L179.495 218.076C179.071 218.769 178.571 219.25 177.512 219.25C176.492 219.25 175.991 218.577 175.895 217.787C175.375 218.538 174.74 219.25 173.527 219.25C172.006 219.25 171.429 217.922 171.429 216.767C171.429 215.054 172.68 214.399 174.49 213.822C174.778 213.726 175.51 213.495 175.818 213.418V212.763C175.818 211.878 175.876 210.068 174.451 210.068C174.008 210.068 173.643 210.184 173.354 210.415C173.662 211.165 173.989 213.167 172.68 213.167C172.083 213.167 171.872 212.705 171.756 212.263C172.199 210.569 173.335 209.702 175.279 209.702C177.704 209.702 178.07 211.319 178.07 213.071V217.672C178.07 217.961 178.147 218.48 178.609 218.48C179.033 218.48 179.244 218.249 179.398 218.018ZM189.196 218.885H189.253V219H186.019L184.056 214.207L183.459 214.9V218.384C183.459 218.904 183.748 218.885 184.191 218.885H184.441V219H180.071V218.885H180.168C180.745 218.885 181.015 218.885 181.015 218.384V205.564C181.015 205.082 180.784 204.736 180.148 204.813H180.071V204.697L183.459 204.447V214.669L186.982 210.703C187.482 210.164 186.963 210.087 186 210.087H185.75V209.972H189.003V210.087H188.868C187.983 210.087 187.617 210.203 187.271 210.607L185.788 212.282L188.406 218.538C188.541 218.846 188.676 218.885 189.196 218.885ZM192.58 214.303H194.37C195.14 214.303 195.159 213.514 195.159 212.994C195.159 211.935 195.005 209.856 193.946 209.856C192.791 209.856 192.58 212.898 192.58 214.303ZM197.315 214.63H192.58C192.58 215.997 193.311 218.365 195.121 218.365C196.045 218.365 196.718 217.98 197.161 217.133L197.257 217.152C196.738 218.365 195.737 219.25 194.1 219.25C191.001 219.25 190.039 216.748 190.039 214.573C190.039 212.571 191.04 209.722 193.966 209.722C196.449 209.722 197.411 211.897 197.411 213.61C197.411 213.957 197.392 214.284 197.315 214.63ZM204.136 209.741C205.253 209.741 205.58 210.742 205.58 210.742C205.58 211.608 205.041 212.051 204.367 212.051C203.559 212.051 203.116 211.281 202.731 210.723C202.346 211.108 202.057 211.685 201.846 212.359V218.384C201.846 218.904 202.134 218.885 202.596 218.885H202.827V219H198.458V218.885H198.554C199.131 218.885 199.401 218.885 199.401 218.384V210.838C199.401 210.357 199.17 210.01 198.535 210.068L198.458 210.087V209.972L201.846 209.722V211.897C202.308 210.453 203.27 209.741 204.136 209.741ZM212.839 210.087H212.396V209.972H215.322V210.087H215.284C214.591 210.087 214.34 210.126 214.206 210.53L211.395 219.424C210.972 220.944 209.528 223.832 207.584 223.832C206.717 223.832 205.948 223.427 205.851 222.754C205.909 222.311 206.352 221.984 206.968 221.984C207.757 221.984 208.431 222.696 208.739 223.216C209.451 222.927 209.855 221.502 210.182 219.789L210.279 219.096L207.353 210.626C207.199 210.087 206.66 210.087 206.102 210.087H206.005V209.972H211.029V210.087H210.856C210.548 210.087 209.759 210.049 209.932 210.626L211.934 217.248L214.013 210.607C214.167 210.145 213.821 210.087 212.839 210.087Z" fill="#442523"/>
<path d="M96.0252 178.108H273.848C273.848 178.108 276.627 176.944 276.627 172.936C276.627 168.927 273.808 168.214 273.808 168.214H96.0252C96.0252 168.214 93.9592 169.341 93.9592 173.439C93.9592 177.537 96.0252 178.108 96.0252 178.108Z" fill="#D7793C"/>
<path d="M95.3179 254.956H275.954C275.954 254.956 277.992 255.119 277.992 261.422C277.992 267.725 275.969 268.942 275.969 268.942H95.2994C95.2994 268.942 93.2179 267.722 93.2179 262.136C93.2179 256.549 95.3179 254.956 95.3179 254.956Z" fill="#D7793C"/>
<path d="M319.525 130.519C327.156 125.967 325.458 107.759 319.062 108.321C312.666 108.88 304.816 120.726 308.034 123.151C315.115 128.487 298.01 143.354 319.525 130.522V130.519Z" fill="#C2CD99"/>
<path d="M232.74 11.9192C229.875 6.87613 217.969 7.73774 218.247 11.9192C218.525 16.1006 226.15 21.3846 227.775 19.3185C231.354 14.7696 240.822 26.1342 232.74 11.9192Z" fill="#C2CD99"/>
<path d="M80.6703 269.946C72.0634 254.807 36.3174 257.392 37.1543 269.946C37.9912 282.499 60.8779 298.364 65.7573 292.159C76.5012 278.5 104.938 312.625 80.6672 269.946H80.6703Z" fill="#C2CD99"/>
<path d="M332.394 195.001C338.194 194.884 343.113 184.01 339.306 182.262C335.498 180.514 330.325 166.278 321.07 176.941C317.274 181.311 316.045 195.328 332.394 195.001Z" fill="#C2CD99"/>
<path d="M232.784 310.077C231.181 315.651 240.118 323.563 242.913 320.444C245.708 317.322 260.837 316.587 253.385 304.596C250.331 299.679 237.302 294.364 232.784 310.08V310.077Z" fill="#C2CD99"/>
<path d="M184.897 38.1135C194.906 37.9128 203.399 19.1395 196.824 16.1223C190.252 13.1051 181.321 -11.4709 165.346 6.93796C158.796 14.4825 156.674 38.6786 184.894 38.1135H184.897Z" fill="#C2CD99"/>
<path d="M149.624 195.184C150.838 200.962 156.458 198.568 158.327 194.967C160.183 191.391 159.324 177.967 158.574 173.646C157.533 167.665 152.811 165.951 151.184 167.862C148.114 171.469 149.315 188.161 149.627 195.184H149.624Z" fill="#F3B49C"/>
<path d="M158.459 193.714C159.438 201.493 147.564 215.813 147.564 215.813L141.502 213.314C141.502 213.314 148.132 193.229 150.242 190.057C151.829 187.67 158.067 190.607 158.459 193.714Z" fill="#F3B49C"/>
<path d="M128.609 195.184C127.395 200.962 121.774 198.568 119.906 194.967C118.05 191.391 118.485 179.177 119.236 174.857C120.277 168.875 125.421 165.951 127.049 167.862C130.119 171.469 128.917 188.161 128.605 195.184H128.609Z" fill="#F3B49C"/>
<path d="M120.373 196.017C122.602 204.643 134.646 216.1 134.646 216.1L140.233 212.669C140.233 212.669 130.49 193.896 127.902 191.101C125.956 188.998 119.588 192.988 120.373 196.021V196.017Z" fill="#F3B49C"/>
<path d="M140.659 206.159C140.609 202.441 137.716 191.07 127.747 195.573C124.872 196.87 125.483 190.085 122.602 198.658C117.892 212.666 129.56 275.703 131.666 286.78L132.722 293.065C132.722 293.065 132.892 296.502 133.772 296.851C134.936 297.311 138.108 294.102 138.108 294.102C138.108 294.102 140.764 214.253 140.659 206.162V206.159Z" fill="#F3B49C"/>
<path d="M159.065 293.207C159.065 293.207 158.777 204.55 154.621 196.397C150.566 188.445 150.779 195.662 147.749 194.93C137.24 192.392 136.113 204.152 136.629 207.824C137.759 215.881 153.818 293.713 153.818 293.713C153.818 293.713 157.406 297.308 158.57 296.848C159.451 296.499 159.061 293.207 159.061 293.207H159.065Z" fill="#F3B49C"/>
<path d="M138.556 300.433C137.407 300.819 133.828 300.813 133.828 300.813C133.828 300.813 125.727 299.426 125.733 298.623C125.505 297.737 130.987 295.375 132.243 293.346C132.985 292.567 135.193 293.818 136.224 293.948C137.033 294.05 136.746 293.985 137.466 293.781C137.901 293.658 138.346 293.358 138.29 293.806C138.108 295.282 138.852 297.314 138.556 300.433Z" fill="#B55568"/>
<path d="M153.228 300.433C154.376 300.819 157.956 300.813 157.956 300.813C157.956 300.813 166.056 299.426 166.05 298.623C166.278 297.737 160.797 295.375 159.54 293.346C158.799 292.567 156.591 293.818 155.559 293.948C154.75 294.05 155.037 293.985 154.318 293.781C153.882 293.658 153.438 293.358 153.493 293.806C153.675 295.282 152.931 297.314 153.228 300.433Z" fill="#B55568"/>
<path d="M160.059 263.572C160.059 263.572 161.115 210.131 154.624 196.397C150.81 188.328 150.782 195.662 147.753 194.93C142.839 193.744 139.976 195.684 138.374 198.46C136.45 195.338 133.13 193.139 127.747 195.573C124.872 196.87 125.483 188.3 122.602 196.87C117.435 212.243 121.148 262.927 121.148 262.927C121.154 266.182 160.664 266.756 160.056 263.572H160.059Z" fill="#FAF8EB"/>
<path d="M122.602 165.781C126.536 160.744 133.046 157.554 133.046 157.554L143.179 157.137C143.179 157.137 149.929 159.78 154.265 164.481C154.265 164.481 155.068 192.166 155.652 197.475C151.498 199.257 144.405 200.007 139.871 200.131C135.344 200.378 125.746 200.501 121.997 198.658C122.145 193.318 122.602 165.784 122.602 165.784V165.781Z" fill="#A4C0B6"/>
<path d="M161.115 185.66H117C117 185.66 118.652 168.897 122.602 165.781C126.351 162.822 132.348 165.469 138.256 165.163C144.732 164.83 151.1 161.809 154.265 164.481C158.607 168.146 161.115 185.66 161.115 185.66Z" fill="#A4C0B6"/>
<path d="M122.018 171.361C122.191 171.37 122.364 171.38 122.537 171.392C122.688 173.751 122.722 176.117 122.645 178.479" stroke="#3E2210" stroke-width="0.463232" stroke-linecap="round" stroke-linejoin="round"/>
<path d="M154.142 174.119C154.695 176.274 154.911 178.517 154.784 180.74" stroke="#3E2210" stroke-width="0.463232" stroke-linecap="round" stroke-linejoin="round"/>
<path d="M143.79 147.31C143.741 143.941 139.309 140.8 137.243 142.455C135.072 140.686 129.869 145.88 130.851 149.086C130.872 149.16 130.903 149.25 130.943 149.351C130.953 150.862 130.962 152.4 132.259 153.514C132.528 153.746 133.281 154.561 133.432 154.882C133.63 155.306 134.056 155.59 134.507 155.716C134.958 155.843 135.434 155.834 135.9 155.809C137.348 155.732 138.781 155.506 140.214 155.281C140.857 155.179 141.521 155.071 142.067 154.716C142.604 154.364 142.969 153.808 143.244 153.227C144.195 151.226 144.711 149.231 143.787 147.31H143.79Z" fill="#B76F5E"/>
<path d="M138.988 162.263C138.633 162.337 138.065 161.661 137.703 161.692C137.32 161.723 137.123 162.458 136.762 162.439C136.369 162.421 135.844 161.646 135.464 161.562C135.035 161.47 134.692 162.05 134.316 161.88C133.868 161.683 133.51 160.769 133.145 160.435C132.719 160.043 132.092 160 131.836 159.422C131.576 158.841 131.901 158.162 131.904 157.514C131.904 156.958 131.502 156.068 131.688 155.506C131.848 155.028 132.531 155.077 132.821 154.66C133.08 154.289 132.997 153.326 133.361 153.014C133.698 152.73 134.396 153.162 134.801 152.971C135.177 152.789 135.338 151.936 135.783 151.844C136.23 151.751 136.863 152.446 137.302 152.458C137.768 152.474 138.136 151.822 138.596 151.946C139.096 152.078 139.584 152.958 140.026 153.187C140.523 153.443 141.097 153.138 141.517 153.499C142.008 153.922 142.166 154.864 142.49 155.352C142.87 155.923 143.546 156.396 143.654 157.007C143.763 157.615 143.234 157.893 143.086 158.403C142.96 158.838 143.17 159.78 142.892 160.129C142.657 160.423 142.018 160.043 141.693 160.29C141.406 160.509 141.394 161.392 141.057 161.559C140.748 161.714 140.149 161.142 139.794 161.26C139.458 161.371 139.346 162.186 138.991 162.257L138.988 162.263Z" fill="#B76F5E"/>
<path d="M134.767 152.406H138.843" stroke="#643937" stroke-width="0.463232" stroke-linecap="round" stroke-linejoin="round"/>
<path d="M263.805 287.957C263.805 287.957 265.849 291.935 267.174 292.074C268.175 292.179 270.21 289.02 270.21 289.02L269.28 284.146L263.224 285.07L263.805 287.957Z" fill="#B76F5E"/>
<path d="M270.543 293.599C269.222 294.841 254.936 295.276 253.876 294.483C254.985 294.01 263.076 289.171 263.805 287.96C265.238 288.312 265.093 290.798 266.538 290.99C267.989 291.181 269.033 289.486 270.21 289.026C270.21 289.026 271.09 293.087 270.543 293.602V293.599Z" fill="#785B5B"/>
<path d="M247.354 248.088C248.448 251.924 258.506 252.65 260.306 247.705C263.113 239.997 272.156 214.223 273.731 205.693C274.45 201.805 269.904 188.968 258.935 190.7C255.773 191.2 255.452 180.367 252.583 189.604C249.161 200.616 245.903 242.987 247.354 248.088Z" fill="#785B5B"/>
<path d="M269.716 283.285C270.056 286.586 262.977 288.837 262.147 285.663L247.635 250.673C246.502 245.426 248.259 241.418 251.471 240.596C253.182 240.158 257.088 240.961 258.771 243.731C266.393 256.291 268.623 272.745 269.713 283.282L269.716 283.285Z" fill="#785B5B"/>
<path d="M272.884 288.155C272.884 288.155 276.556 291.299 277.801 290.734C278.743 290.304 279.095 285.817 279.095 285.817L279.259 282.142L273.06 283.569L272.884 288.155Z" fill="#B76F5E"/>
<path d="M279.645 294.229C278.477 294.662 274.796 294.758 274.796 294.758C274.796 294.758 266.427 293.562 266.412 292.738C266.152 291.833 271.72 289.248 272.952 287.127C273.691 286.305 275.997 287.528 277.06 287.63C277.894 287.71 277.597 287.655 278.329 287.423C278.771 287.284 279.222 286.963 279.178 287.423C279.033 288.946 279.858 291.015 279.642 294.226L279.645 294.229Z" fill="#785B5B"/>
<path d="M268.968 189.576C279.243 184.82 282.433 188.276 283.573 192.087C288.384 208.186 282.748 236.727 281.605 245.016C281.605 245.016 281.605 245.016 281.605 245.019C284.422 259.042 282.016 274.165 280.151 283.933C279.53 287.173 271.609 286.194 271.726 282.896C271.726 282.896 262.659 203.847 262.517 202.417C261.547 192.649 266.007 190.947 268.968 189.576Z" fill="#785B5B"/>
<path d="M272.471 215.39C271.729 218.584 269.41 222.725 267.563 226.752" stroke="#E4D8CE" stroke-width="0.463232" stroke-linecap="round" stroke-linejoin="round"/>
<path d="M262.558 156.304L272.613 156.026L271.937 142.842L263.438 143.08L262.558 156.304Z" fill="#B76F5E"/>
<path d="M270.612 142.024C270.794 140.158 271.717 137.289 271.164 135.934C270.522 134.359 268.854 133.932 267.403 133.679C265.948 133.426 264.237 133.262 263.101 134.528C262.125 135.619 262.023 138.63 261.563 140.445C260.976 142.768 261.551 143.629 262.434 145.096C262.866 145.615 263.419 145.844 264.083 145.97C264.729 146.208 267.425 145.714 268.005 145.371C269.985 144.213 270.38 144.405 270.612 142.02V142.024Z" fill="#B76F5E"/>
<path d="M273.697 135.106C273.434 131.965 267.56 130.054 264.003 131.48C263.895 131.527 262.595 131.524 262.579 133.596C262.493 134.59 263.889 134.689 263.947 134.729C263.953 134.735 263.963 134.738 263.969 134.745C263.96 135.199 264.105 135.792 264.105 135.792C264.105 135.792 262.743 138.997 263.611 140.906C265.102 139.386 264.654 141.282 265.318 141.409C265.846 143.827 265.834 144.818 266.48 145.699C267.137 146.594 271.686 146.427 271.689 146.446C272.505 146.27 273.518 143.768 274.212 142.481C275.386 140.3 275.633 135.063 273.7 135.106H273.697Z" fill="#3E2210"/>
<path d="M263.978 140.566C266.019 139.25 265.207 142.471 264.701 143.178C264.515 143.438 263.814 143.741 263.453 143.747L263.978 140.566Z" fill="#B76F5E"/>
<path d="M287.699 160.154C285.225 153.521 274.401 149.028 274.401 149.028L271.878 148.855C270.568 148.58 264.179 150.198 264.179 150.198C264.179 150.198 257.196 152.415 253.969 157.218C253.969 157.218 249.951 186.213 250.476 200.128C251.956 201.367 268.975 203.115 272.134 203.315C278.283 203.708 281.207 199.535 284.919 198.668C286.787 192.893 290.484 167.616 287.699 160.151V160.154Z" fill="#F4CA79"/>
<path d="M293.43 185.626C293.785 191.688 283.285 187.226 284.098 185.422C287.007 178.953 284.023 167.955 283.603 163.465C283.023 157.245 282.377 157.471 284.508 158.932C288.526 161.683 294.187 175.163 293.43 185.629V185.626Z" fill="#B76F5E"/>
<path d="M293.511 186.568C292.21 193.445 283.709 208.09 283.709 208.09L276.853 207.376C276.853 207.376 282.884 186.475 284.928 183.134C286.466 180.62 294.11 183.406 293.514 186.571L293.511 186.568Z" fill="#B76F5E"/>
<path d="M267.9 191.058C267.78 197.13 261.643 195.786 259.065 192.504C256.505 189.245 253.713 173.505 253.645 168.993C253.552 162.746 259.083 162.122 261.094 163.743C264.886 166.8 266.869 183.9 267.9 191.055V191.058Z" fill="#B76F5E"/>
<path d="M259.176 192.618C262.835 198.584 275.991 209.248 275.991 209.248L282.149 206.138C282.149 206.138 269.08 188.745 265.982 186.349C263.651 184.545 257.496 189.873 259.179 192.618H259.176Z" fill="#B76F5E"/>
<path d="M287.421 215.088L286.21 213.581L287.418 214.68C287.418 214.68 288.656 214.569 287.464 212.799C286.729 211.712 283.983 208.352 283.983 208.352C283.983 208.352 285.083 208.593 285.379 208.559C287.226 208.34 287.01 206.904 287.01 206.904L285.738 207.129L281.763 205.215L280.651 205.428C280.018 203.102 272.603 204.483 275.732 208.955L279.209 213.062C279.237 213.133 282.374 216.7 282.723 216.471C283.072 216.243 283.134 215.767 282.859 215.412C282.859 215.412 285.175 217.648 285.651 217.37C286.108 217.101 285.963 216.314 285.595 215.804C285.988 216.076 287.062 216.678 287.39 216.487C287.825 216.233 287.841 215.607 287.424 215.088H287.421Z" fill="#B76F5E"/>
<path d="M286.161 213.503C285.515 212.926 284.86 212.108 284.444 211.456" stroke="#3E2210" stroke-width="0.463232" stroke-linecap="round" stroke-linejoin="round"/>
<path d="M285.398 215.517C284.879 214.977 283.542 213.331 283.004 212.487" stroke="#3E2210" stroke-width="0.463232" stroke-linecap="round" stroke-linejoin="round"/>
<path d="M282.856 215.412C282.266 214.906 281.636 214.028 281.21 213.38" stroke="#3E2210" stroke-width="0.463232" stroke-linecap="round" stroke-linejoin="round"/>
<path d="M283.814 209.035C282.896 210.338 280.926 211.302 279.564 211.746C281.315 210.789 280.491 208.522 279.53 207.228C280.96 208.257 281.062 210.523 283.27 208.945L283.817 209.035H283.814Z" fill="#895346"/>
<path d="M293.156 175.667L285.188 178.477C285.188 178.477 270.998 161.479 273.592 156.856C275.349 153.725 282.115 151.61 286.985 159.08C290.438 163.725 293.152 175.67 293.152 175.67L293.156 175.667Z" fill="#F4CA79"/>
<path d="M253.951 179.873L266.192 177.35L261.341 157.638C261.341 157.638 255.921 155.17 255.448 155.43C247.45 159.843 253.954 179.873 253.954 179.873H253.951Z" fill="#F4CA79"/>
<path d="M261.338 157.638C265.059 161.553 266.146 165.531 266.035 171.812" stroke="#3E2210" stroke-width="0.463232" stroke-linecap="round" stroke-linejoin="round"/>
<defs>
<linearGradient id="paint0_linear_1858_3713" x1="180.074" y1="109.582" x2="179.87" y2="108.089" gradientUnits="userSpaceOnUse">
<stop stop-color="#442523"/>
<stop offset="1" stop-color="#302420"/>
</linearGradient>
<linearGradient id="paint1_linear_1858_3713" x1="183.935" y1="109.212" x2="183.73" y2="107.719" gradientUnits="userSpaceOnUse">
<stop stop-color="#442523"/>
<stop offset="1" stop-color="#302420"/>
</linearGradient>
</defs>
</svg>
