<?xml version="1.0" encoding="UTF-8"?>
<svg id="Layer_2" data-name="Layer 2" xmlns="http://www.w3.org/2000/svg" viewBox="0 0 382.72 865.64">
  <defs>
    <style>
      .cls-1 {
        fill: #f5f5f5;
      }

      .cls-1, .cls-2, .cls-3, .cls-4, .cls-5, .cls-6, .cls-7, .cls-8, .cls-9, .cls-10 {
        stroke-width: 0px;
      }

      .cls-2 {
        fill: #515151;
      }

      .cls-3 {
        fill: #8bbd8b;
      }

      .cls-4 {
        fill: #d3722b;
      }

      .cls-11 {
        stroke-linecap: round;
        stroke-linejoin: round;
      }

      .cls-11, .cls-12 {
        fill: none;
        stroke: #090909;
        stroke-width: 9.94px;
      }

      .cls-5 {
        fill: #ffa573;
      }

      .cls-6 {
        fill: #000;
      }

      .cls-7 {
        fill: #c5773c;
      }

      .cls-8 {
        fill: #88d388;
      }

      .cls-9 {
        fill: #f6f6f6;
      }

      .cls-12 {
        stroke-miterlimit: 10;
      }

      .cls-10 {
        fill: #ccc;
      }
    </style>
  </defs>
  <g id="Phone">
    <g id="Phone-2" data-name="Phone">
      <g>
        <rect class="cls-2" width="382.72" height="865.64" rx="36.34" ry="36.34"/>
        <rect class="cls-9" x="11.96" y="10.4" width="358.8" height="843.61" rx="28.98" ry="28.98"/>
        <rect class="cls-6" x="137.61" y="25.73" width="100.74" height="32.85" rx="16.43" ry="16.43"/>
      </g>
      <g id="Button">
        <rect class="cls-4" x="52.56" y="674.09" width="278.14" height="47.68" rx="11.92" ry="11.92"/>
        <path class="cls-1" d="M154.25,702.83c-.95,0-1.83-.23-2.66-.68-.82-.46-1.47-1.14-1.97-2.03-.48-.89-.73-1.96-.73-3.21s.25-2.33.76-3.22c.52-.89,1.22-1.56,2.1-2.02.89-.45,1.89-.68,2.99-.68.97,0,1.84.18,2.61.53.77.34,1.38.83,1.83,1.45.45.63.71,1.36.78,2.18h-2.63c-.07-.41-.22-.77-.45-1.07s-.53-.55-.91-.71c-.37-.17-.8-.25-1.29-.25-.66,0-1.24.15-1.74.46-.5.3-.88.73-1.16,1.31-.28.56-.41,1.23-.41,2,0,.82.14,1.51.43,2.08.3.56.7.99,1.21,1.27.51.29,1.09.43,1.74.43.53,0,1-.09,1.42-.28.43-.19.77-.42,1.01-.71.24-.3.36-.61.36-.94,0-.18-.04-.3-.12-.38-.08-.09-.2-.13-.38-.13h-2.2v-1.87h3.19c.36,0,.68.08.96.23.28.14.49.35.63.63.15.28.23.6.23.98v4.5h-2.2v-1.39c-.14.25-.38.5-.69.73-.32.23-.72.42-1.19.58-.47.14-.99.21-1.54.21ZM165.36,702.83c-.91,0-1.69-.2-2.33-.61-.64-.42-1.12-.96-1.46-1.62-.33-.66-.5-1.36-.5-2.08s.15-1.43.45-2.08c.31-.65.77-1.18,1.39-1.59.63-.41,1.39-.61,2.28-.61s1.69.2,2.3.61c.62.4,1.07.9,1.35,1.52.3.62.45,1.26.45,1.93,0,.25-.01.5-.03.74h-6.84v-1.47h4.58c-.03-.48-.21-.88-.53-1.19-.32-.31-.74-.46-1.27-.46-.41,0-.76.1-1.06.3-.29.2-.51.49-.66.88-.15.37-.23.84-.23,1.39,0,.5.08.93.25,1.31.17.36.4.65.71.86.32.2.7.3,1.16.3s.84-.09,1.12-.26c.3-.19.5-.46.6-.81h2.25c-.17.89-.61,1.61-1.34,2.15-.72.54-1.59.81-2.63.81ZM174.6,702.7c-.64,0-1.2-.12-1.67-.35-.47-.24-.84-.59-1.11-1.04-.26-.46-.4-1.01-.4-1.64v-3.39h-1.59v-1.92h1.59v-2.46h2.31v2.46h2.23v1.92h-2.23v3.29c0,.4.1.69.3.89.2.2.48.3.86.3h1.07v1.93h-1.37ZM184.92,702.83c-.89,0-1.68-.17-2.35-.5-.66-.33-1.18-.8-1.55-1.41-.37-.62-.58-1.34-.61-2.17h2.4c.04.6.25,1.06.61,1.41.36.34.87.51,1.5.51.56,0,1-.12,1.32-.35.33-.23.5-.56.5-.99,0-.31-.1-.55-.3-.73-.19-.19-.43-.33-.74-.43-.3-.1-.7-.21-1.22-.33-.79-.18-1.44-.36-1.93-.56-.5-.21-.93-.55-1.29-1.02-.36-.47-.55-1.12-.55-1.95,0-.65.17-1.22.51-1.72.35-.51.83-.9,1.44-1.17.62-.29,1.32-.43,2.1-.43s1.54.15,2.18.45c.64.3,1.14.72,1.49,1.27.35.55.55,1.19.58,1.92h-2.36c-.04-.45-.24-.82-.58-1.09-.33-.28-.77-.41-1.31-.41-.48,0-.88.11-1.17.33-.29.21-.43.5-.43.86,0,.31.1.56.3.76.21.19.46.33.76.43.31.1.73.2,1.27.31.78.17,1.42.35,1.92.55.5.2.93.53,1.29,1.01.36.46.55,1.11.55,1.93,0,.72-.18,1.34-.55,1.87-.35.53-.85.94-1.5,1.22-.65.29-1.41.43-2.26.43ZM194.57,702.7c-.64,0-1.2-.12-1.67-.35-.47-.24-.84-.59-1.11-1.04-.26-.46-.4-1.01-.4-1.64v-3.39h-1.59v-1.92h1.59v-2.46h2.31v2.46h2.23v1.92h-2.23v3.29c0,.4.1.69.3.89s.48.3.86.3h1.07v1.93h-1.37ZM199.66,702.83c-.52,0-.99-.1-1.41-.31-.42-.22-.74-.52-.98-.89-.23-.39-.35-.82-.35-1.29,0-.54.13-1.01.38-1.41.26-.4.63-.7,1.11-.91.47-.22,1.03-.33,1.67-.33h1.21c.25,0,.44-.05.55-.15.12-.1.18-.25.18-.45,0-.35-.13-.63-.4-.84-.26-.22-.63-.33-1.09-.33-.32,0-.6.06-.83.18-.23.12-.41.28-.53.48-.11.2-.18.42-.2.66h-2.05c.03-.56.2-1.07.51-1.52.31-.46.73-.83,1.27-1.09.55-.26,1.2-.4,1.93-.4s1.33.13,1.88.4c.55.25.98.62,1.29,1.09.32.46.48,1,.48,1.62v5.36h-2.28v-1.16l-.07.15c-.11.22-.28.42-.51.6s-.5.31-.81.41c-.3.09-.62.13-.98.13ZM200.26,701.16c.55,0,.98-.18,1.29-.53.32-.35.48-.8.48-1.36v-.08h-1.6c-.39,0-.69.09-.93.28-.23.18-.35.42-.35.74,0,.29.1.52.3.69.21.17.48.25.81.25ZM214.84,702.7c-.97,0-1.74-.26-2.31-.79-.56-.54-.84-1.28-.84-2.23v-7.77h2.3v2.46h2.25v1.92h-2.25v3.29c0,.4.1.69.3.89.2.2.49.3.88.3h1.07v1.93h-1.39ZM206.1,694.37h2.3v1.39c.22-.51.49-.87.81-1.07.33-.21.76-.31,1.29-.31h.55v1.92h-.99c-.55,0-.96.21-1.24.63-.28.42-.41,1-.41,1.74v4.05h-2.3v-8.33ZM221.23,702.83c-.91,0-1.69-.2-2.33-.61-.64-.42-1.12-.96-1.45-1.62-.33-.66-.5-1.36-.5-2.08s.15-1.43.45-2.08c.31-.65.77-1.18,1.39-1.59.63-.41,1.39-.61,2.28-.61s1.69.2,2.3.61c.62.4,1.07.9,1.36,1.52.3.62.45,1.26.45,1.93,0,.25-.01.5-.03.74h-6.84v-1.47h4.58c-.03-.48-.21-.88-.53-1.19-.32-.31-.74-.46-1.27-.46-.41,0-.76.1-1.06.3-.29.2-.51.49-.66.88-.15.37-.23.84-.23,1.39,0,.5.08.93.25,1.31.17.36.4.65.71.86.32.2.71.3,1.16.3s.84-.09,1.12-.26c.3-.19.5-.46.59-.81h2.25c-.17.89-.61,1.61-1.34,2.15-.72.54-1.59.81-2.63.81ZM229.99,702.83c-.76,0-1.43-.18-2-.53-.56-.36-1-.87-1.31-1.52-.31-.65-.46-1.4-.46-2.25s.15-1.61.46-2.25c.31-.65.75-1.15,1.32-1.5.57-.36,1.25-.55,2.03-.55.48,0,.94.09,1.36.26.43.18.78.42,1.04.74v-4.5h2.3v11.95h-2.3v-.91c-.25.32-.6.57-1.04.76-.43.19-.9.28-1.41.28ZM230.51,700.85c.41,0,.76-.09,1.06-.28.31-.19.55-.46.71-.81.18-.35.26-.76.26-1.22,0-.71-.19-1.27-.56-1.69-.36-.43-.85-.64-1.47-.64-.4,0-.75.1-1.06.3-.31.19-.55.46-.73.81-.17.35-.25.76-.25,1.22,0,.69.18,1.26.55,1.69.38.42.87.63,1.49.63Z"/>
      </g>
      <g id="Logo">
        <g id="Logo_With_Wordmark" data-name="Logo With Wordmark">
          <g id="Logo-2">
            <g id="Carrot">
              <path class="cls-8" d="M253.09,324.38c-3.49,1.36-11.53,2.92-14.64,13.76-3.1,10.84-6.99,22.5-3.85,27.37s3.7,8.7,12.35,9,32.4-5.57,36.32-10,11.93-11.89,9.18-16.98c-2.74-5.09-14.79-5.96-17.59-4.13s-9.58,6.9-12.89,6.78-4.58,0-3.58-5.15,1.57-15.69-.3-17.98-5.03-2.71-5.03-2.71l.03.03Z"/>
              <path class="cls-3" d="M300.85,349.41c.69-2.02.06-4.22-1.63-5.63-4.67-3.98-20.06-2.71-27.67,1.2-2.89,1.48-5.54,2.89-8.01,4.22,2.65-7.29,2.32-15.33-1.17-23.79l-.18-.39c-.66-1.63-1.99-2.83-3.7-3.34-5.51-1.57-14.97,5.3-16.05,6.11-3.52,2.65-9.49,23.16-9.43,34.78,3.64,5.87,7.41,11.62,11.44,16.56,43.06,3.01,54.51-24.09,56.4-29.69v-.03ZM241.14,362.08c.21-7.47,4.61-24.48,6.66-27.89,2.32-1.66,5.54-3.4,7.47-4.13h.03c4.79,13.04.03,23.79-14.15,32.01ZM244.81,370.82c5.54-4.4,17.71-11.8,30.54-18.43,4.7-2.38,12.32-2.98,16.35-2.62-3.64,7.56-15.15,23.34-46.89,21.05Z"/>
              <path class="cls-5" d="M210.21,350.13s-7.89,3.34-13.64,8.22-27.43,29.15-32.94,36.98c-5.51,7.83-20.78,39.96-8.52,43.42,12.26,3.46,42.52-16.83,46.32-17.26s30.08-6.41,34.36-8.67,16.32-7.08,11.99-14.82c-4.34-7.74-24.78-44.66-37.55-47.88Z"/>
              <path class="cls-7" d="M233,362.57v1.05c-7.32-10.03-11.96-14.88-17.8-15.54-6.66-.78-12.65,4.31-21.89,12.59-.51.48-.99.96-1.48,1.51s-1.26,1.42-2.32,2.56c-38.24,41.71-51.95,64.84-44.39,75.04.6.84,1.39,1.63,2.35,2.32,6.14,4.34,20.93,4.28,65.02-16.77,2.17-1.02,5.57-1.14,9.21-1.33,4.88-.21,10.39-.45,15.09-2.92,9.82-4.94,16.29-8.22,17.95-14.85,1.63-6.47-2.17-14.27-10.9-27.13h.03c.18.03.36.03.57.06-4.04-4.94-7.8-10.66-11.44-16.56v-.03ZM246.71,404.21c-.72,2.95-6.17,5.69-13.7,9.49h0c-3.1,1.63-7.47,1.78-11.65,1.93-4.34.18-8.76.39-12.47,2.14-49.99,23.94-56.49,17.8-57.13,17.04-.6-.78-4.01-7.89,24.3-42.13l17.38,12.98-12.92-18.28c3.7-4.34,7.89-9.09,12.56-14.21l24.66,22.5-19.39-28.25c.12-.18.33-.33.48-.48,7.08-6.38,12.35-10.84,15.39-10.51,3.91.42,9.7,8.73,19.33,22.43,8.58,12.29,14.12,21.32,13.1,25.39l.06-.03Z"/>
            </g>
            <g>
              <polygon class="cls-9" points="80.84 450.2 123.36 493.14 156.61 468.26 201.45 467.9 273.18 427.46 286.16 404.27 280.55 396.02 266.52 397.65 257.37 412.4 244.09 421.56 232.73 427.76 226.83 425.53 217.23 417.43 176.93 417.28 138.27 403.7 109.33 417.58 87.46 442.37 78.76 448.72 80.84 450.2"/>
              <polygon class="cls-10" points="90.05 441.92 80.84 450.2 121.7 492.57 133.48 481.91 90.05 441.92"/>
              <path class="cls-11" d="M76.38,450.83s31.89-31.44,39.57-38.97,23.19-11.14,34.45-5.72c11.29,5.42,15.36,9.49,23.04,9.64,7.68.15,34.75.75,40.77.75,16.11,0,15.06,26.74-.15,26.74h-34c-11.29,0-18.82-9.15-28.46-9.15s-10.66.42-13.13.84"/>
              <path class="cls-12" d="M72.95,447.37l48.66,48.57s18.61-17.89,23.16-22.4,8.46-5.27,11.89-5.27h42.61c3.79,0,67.36-35.02,70.68-38.33s6.99-4.67,14.45-17.53c7.47-12.86-11.38-22.4-19.12-13.34-7.74,9.06-8.34,13.97-12.62,16.41s-28.79,17.26-28.79,17.26"/>
              <line class="cls-12" x1="90.9" y1="437.61" x2="134.8" y2="481.51"/>
            </g>
          </g>
        </g>
      </g>
      <g id="Logo-2" data-name="Logo">
        <g id="Logo_With_Wordmark-2" data-name="Logo With Wordmark">
          <g>
            <path class="cls-6" d="M52.6,284.17v-33.6h4.56v29.52h15.41v4.08h-19.97Z"/>
            <path class="cls-6" d="M85.16,284.75c-2.37,0-4.5-.55-6.38-1.66s-3.37-2.64-4.44-4.61c-1.07-1.97-1.61-4.23-1.61-6.79,0-2.69.54-5.01,1.63-6.96,1.09-1.95,2.58-3.46,4.46-4.51,1.89-1.06,4-1.58,6.34-1.58s4.44.53,6.31,1.58c1.87,1.06,3.36,2.55,4.46,4.49,1.1,1.94,1.66,4.23,1.66,6.89s-.54,4.97-1.63,6.94c-1.09,1.97-2.57,3.5-4.44,4.58-1.87,1.09-3.99,1.63-6.36,1.63ZM85.16,280.91c2.53,0,4.5-.86,5.9-2.57,1.41-1.71,2.11-3.93,2.11-6.65,0-1.66-.35-3.19-1.06-4.58-.7-1.39-1.66-2.51-2.86-3.36-1.2-.85-2.57-1.27-4.1-1.27-2.53,0-4.5.83-5.9,2.5-1.41,1.66-2.11,3.87-2.11,6.62,0,1.66.35,3.21,1.06,4.63.7,1.42,1.66,2.56,2.86,3.41s2.57,1.27,4.1,1.27Z"/>
            <path class="cls-6" d="M111.43,284.75c-2.37,0-4.44-.55-6.22-1.66s-3.14-2.64-4.1-4.61-1.44-4.23-1.44-6.79c0-2.4.49-4.59,1.46-6.58.98-1.98,2.38-3.56,4.2-4.73s3.97-1.75,6.43-1.75c1.41,0,2.65.13,3.72.38,1.07.26,2.11.62,3.1,1.1l-1.3,3.65c-.9-.45-1.75-.78-2.57-.98-.82-.21-1.72-.31-2.71-.31-2.24,0-4.12.81-5.64,2.42-1.52,1.62-2.28,3.85-2.28,6.7,0,1.73.32,3.3.96,4.7.64,1.41,1.53,2.53,2.66,3.36,1.14.83,2.47,1.25,4.01,1.25,1.22,0,2.26-.14,3.12-.41s1.79-.66,2.78-1.18l1.34,3.65c-.99.54-2.1.98-3.34,1.3-1.23.32-2.63.48-4.2.48h.02Z"/>
            <path class="cls-6" d="M130.07,284.75c-2.08,0-3.97-.53-5.66-1.58-1.7-1.06-3.05-2.55-4.06-4.49-1.01-1.94-1.51-4.22-1.51-6.84s.5-4.74,1.51-6.72,2.4-3.56,4.18-4.73,3.82-1.75,6.12-1.75c1.44,0,2.74.25,3.91.74,1.17.5,2.18,1.11,3.05,1.85v-2.02h3.94v18.91c0,1.22.29,2.01.89,2.38.59.37,1.24.55,1.94.55l-.91,3.36c-3.07,0-4.93-1.25-5.57-3.74-.74,1.02-1.74,1.96-3,2.81-1.26.85-2.87,1.27-4.82,1.27h-.01ZM131.03,280.91c1.22,0,2.37-.3,3.46-.89s2-1.34,2.74-2.23v-13.39c-.86-.61-1.82-1.1-2.86-1.46-1.04-.37-2.14-.55-3.29-.55-1.54,0-2.89.39-4.06,1.18-1.17.78-2.09,1.87-2.76,3.26s-1.01,3.02-1.01,4.87.34,3.38,1.01,4.78,1.6,2.48,2.78,3.26,2.51,1.18,3.98,1.18h.01Z"/>
            <path class="cls-6" d="M154.72,284.75c-1.47,0-2.8-.28-3.98-.84s-2.12-1.46-2.81-2.71c-.69-1.25-1.03-2.86-1.03-4.85v-27.7h4.32v27.26c0,1.73.36,3.01,1.08,3.84s1.72,1.25,3,1.25c.61,0,1.21-.07,1.8-.22.59-.14,1.1-.31,1.51-.5l1.06,3.5c-.58.26-1.29.48-2.14.67s-1.79.29-2.81.29h0Z"/>
            <path class="cls-6" d="M171.62,284.17v-33.6h4.56v14.35h16.56v-14.35h4.56v33.6h-4.56v-15.31h-16.56v15.31s-4.56,0-4.56,0Z"/>
            <path class="cls-6" d="M212,284.75c-2.08,0-3.97-.53-5.66-1.58-1.7-1.06-3.05-2.55-4.06-4.49s-1.51-4.22-1.51-6.84.5-4.74,1.51-6.72,2.4-3.56,4.18-4.73,3.82-1.75,6.12-1.75c1.44,0,2.74.25,3.91.74,1.17.5,2.18,1.11,3.05,1.85v-2.02h3.94v18.91c0,1.22.29,2.01.89,2.38.59.37,1.24.55,1.94.55l-.91,3.36c-3.07,0-4.93-1.25-5.57-3.74-.74,1.02-1.74,1.96-3,2.81-1.26.85-2.87,1.27-4.82,1.27h0ZM212.96,280.91c1.22,0,2.37-.3,3.46-.89,1.09-.59,2-1.34,2.74-2.23v-13.39c-.86-.61-1.82-1.1-2.86-1.46-1.04-.37-2.14-.55-3.29-.55-1.54,0-2.89.39-4.06,1.18-1.17.78-2.09,1.87-2.76,3.26s-1.01,3.02-1.01,4.87.34,3.38,1.01,4.78,1.6,2.48,2.78,3.26,2.51,1.18,3.98,1.18h0Z"/>
            <path class="cls-6" d="M229.07,284.17v-24.96h4.18v5.42c.42-1.06.98-2.04,1.68-2.95s1.58-1.65,2.64-2.21,2.29-.84,3.7-.84c.48,0,.96.02,1.44.07.48.05.88.12,1.2.22l-1.3,4.46c-.61-.26-1.33-.38-2.16-.38-1.18,0-2.31.34-3.38,1.01s-1.95,1.71-2.64,3.12-1.03,3.2-1.03,5.38v11.66h-4.33Z"/>
            <path class="cls-6" d="M255.89,284.17l-10.03-23.81,3.94-1.63,8.5,20.54,8.5-20.54,3.7,1.63-10.08,23.81h-4.53Z"/>
            <path class="cls-6" d="M281.82,284.75c-3.58,0-6.42-1.14-8.52-3.43s-3.14-5.5-3.14-9.62c0-2.5.47-4.73,1.42-6.7.94-1.97,2.26-3.52,3.96-4.66,1.7-1.14,3.66-1.7,5.9-1.7,2.4,0,4.39.52,5.98,1.56,1.58,1.04,2.78,2.44,3.58,4.2s1.2,3.7,1.2,5.81c0,1.12-.05,2.21-.14,3.26h-17.47c.29,2.34,1.1,4.16,2.45,5.47,1.34,1.31,3.12,1.97,5.33,1.97,1.44,0,2.74-.15,3.89-.46,1.15-.3,2.26-.7,3.31-1.18l1.01,3.7c-1.15.51-2.45.94-3.89,1.27-1.44.34-3.06.5-4.85.5h-.02ZM274.53,269.96h13.68c0-2.43-.61-4.3-1.82-5.62-1.22-1.31-2.9-1.97-5.04-1.97-1.86,0-3.39.65-4.61,1.94-1.22,1.3-1.95,3.18-2.21,5.64h0Z"/>
            <path class="cls-6" d="M302.67,284.75c-1.89,0-3.59-.24-5.11-.72s-2.78-1.1-3.77-1.87l1.82-3.6c.83.7,1.88,1.29,3.14,1.75s2.62.7,4.06.7c1.79,0,3.14-.3,4.06-.89.91-.59,1.37-1.35,1.37-2.28,0-.67-.17-1.26-.5-1.78-.34-.51-.95-1.02-1.85-1.51-.9-.5-2.19-1.03-3.89-1.61-2.34-.8-4.09-1.75-5.26-2.86s-1.75-2.63-1.75-4.58.84-3.54,2.52-4.87c1.68-1.33,4.01-1.99,6.98-1.99,1.6,0,3.02.17,4.27.5,1.25.34,2.37.76,3.36,1.27l-1.2,3.55c-.86-.51-1.85-.93-2.95-1.25-1.1-.32-2.33-.48-3.67-.48-1.67,0-2.93.34-3.79,1.01s-1.3,1.41-1.3,2.21.34,1.42,1.01,1.97c.67.54,1.98,1.14,3.94,1.78,3.17,1.06,5.38,2.22,6.62,3.5,1.25,1.28,1.87,2.88,1.87,4.8,0,2.24-.9,4.01-2.71,5.3-1.81,1.3-4.23,1.94-7.27,1.94h0Z"/>
            <path class="cls-6" d="M327.15,284.75c-2.4,0-4.3-.79-5.69-2.38-1.39-1.58-2.09-3.85-2.09-6.79v-11.71h-4.32v-3.74h4.42l.91-7.87h3.31v7.87h6.91v3.74h-6.91v12.05c0,1.86.39,3.15,1.18,3.89.78.74,1.72,1.1,2.81,1.1.8,0,1.56-.13,2.28-.38.72-.26,1.38-.56,1.99-.91l1.2,3.46c-.64.38-1.5.76-2.59,1.13-1.09.37-2.22.55-3.41.55h0Z"/>
          </g>
        </g>
      </g>
    </g>
  </g>
</svg>