<?xml version="1.0" encoding="UTF-8"?>
<svg id="Layer_2" data-name="Layer 2" xmlns="http://www.w3.org/2000/svg" xmlns:xlink="http://www.w3.org/1999/xlink" viewBox="0 0 598.31 813.4">
  <defs>
    <style>
      .cls-1, .cls-2, .cls-3, .cls-4, .cls-5 {
        fill: none;
      }

      .cls-1, .cls-4 {
        stroke-width: 1.5px;
      }

      .cls-1, .cls-4, .cls-5 {
        stroke-linecap: round;
        stroke-linejoin: round;
      }

      .cls-1, .cls-5 {
        stroke: #3e2210;
      }

      .cls-6 {
        fill: #515151;
      }

      .cls-6, .cls-7, .cls-8, .cls-9, .cls-10, .cls-11, .cls-12, .cls-13, .cls-14, .cls-15, .cls-16, .cls-17, .cls-18, .cls-19, .cls-20, .cls-21, .cls-22, .cls-23, .cls-24, .cls-25, .cls-26, .cls-27, .cls-28, .cls-29 {
        stroke-width: 0px;
      }

      .cls-2 {
        stroke: url(#linear-gradient-4);
      }

      .cls-2, .cls-3 {
        stroke-miterlimit: 10;
      }

      .cls-3 {
        stroke: url(#linear-gradient-3);
      }

      .cls-7 {
        fill: #181916;
      }

      .cls-8 {
        fill: #785b5b;
      }

      .cls-30 {
        letter-spacing: 0em;
      }

      .cls-31 {
        fill: #442523;
        font-family: ZTNeueRalewe-Bold, 'ZTNeueRalewe Bold';
        font-size: 60px;
        font-weight: 700;
      }

      .cls-32 {
        letter-spacing: 0em;
      }

      .cls-9 {
        fill: url(#linear-gradient);
      }

      .cls-10 {
        fill: #426348;
      }

      .cls-11 {
        fill: #473a2f;
      }

      .cls-12 {
        fill: #b76f5e;
      }

      .cls-13 {
        fill: #dd8a7a;
      }

      .cls-14 {
        fill: #fcf5d4;
      }

      .cls-15 {
        fill: #372724;
      }

      .cls-16 {
        fill: #fce7bd;
      }

      .cls-17 {
        fill: #fdebca;
      }

      .cls-18 {
        fill: #b98761;
      }

      .cls-19 {
        fill: #0a0909;
      }

      .cls-20 {
        fill: #ee8334;
      }

      .cls-33 {
        letter-spacing: 0em;
      }

      .cls-21 {
        fill: #f4ca79;
      }

      .cls-22 {
        fill: #895346;
      }

      .cls-23 {
        fill: #3e2210;
      }

      .cls-24 {
        fill: #4d382f;
      }

      .cls-25 {
        fill: url(#linear-gradient-2);
      }

      .cls-26 {
        fill: #258920;
      }

      .cls-27 {
        fill: #414141;
      }

      .cls-28 {
        fill: #271e4c;
      }

      .cls-34 {
        letter-spacing: 0em;
      }

      .cls-4 {
        stroke: #e4d8ce;
      }

      .cls-5 {
        stroke-width: 1.39px;
      }

      .cls-29 {
        fill: #d75a44;
      }
    </style>
    <linearGradient id="linear-gradient" x1="-103.46" y1="228.48" x2="-103.49" y2="223.61" gradientTransform="translate(293.24 -52.86)" gradientUnits="userSpaceOnUse">
      <stop offset="0" stop-color="#442523"/>
      <stop offset="1" stop-color="#302420"/>
    </linearGradient>
    <linearGradient id="linear-gradient-2" x1="-90.91" y1="228.93" x2="-90.94" y2="224.05" gradientTransform="translate(293.2 -54.49)" xlink:href="#linear-gradient"/>
    <linearGradient id="linear-gradient-3" x1="193.03" y1="187.2" x2="204.01" y2="187.2" gradientTransform="matrix(1,0,0,1,0,0)" xlink:href="#linear-gradient"/>
    <linearGradient id="linear-gradient-4" x1="196.44" y1="178.19" x2="199.14" y2="178.19" gradientTransform="matrix(1,0,0,1,0,0)" xlink:href="#linear-gradient"/>
  </defs>
  <g id="Scene">
    <g id="Scene-2" data-name="Scene">
      <g id="Vendor_2_arm" data-name="Vendor 2 arm">
        <g>
          <g id="Tree">
            <path class="cls-11" d="M311.97,514.05h-44s19.44-75.39,15.35-101.21c-4.09-25.82-22.51-45.44-23.54-53.7-1.02-8.26,4.09-21.69-1.02-28.92s-26.61-10.33-32.75-16.52c-6.14-6.2-11.26-26.85-11.26-26.85l-3.07-16.52s12.28,12.39,31.72,29.95c19.44,17.56,31.72,21.69,39.91,15.49s6.14-19.62,9.21-34.08c3.07-14.46,13.3-33.05,13.3-33.05,0,0,6.14,20.66,5.12,27.89-1.02,7.23-2.05,17.56,5.12,17.56s16.37,3.1,24.56-12.39c8.19-15.49,36.84-25.82,34.79-18.59-2.05,7.23-7.16,14.46-15.35,23.75-8.19,9.3-25.58,15.49-33.77,16.52-8.19,1.03-29.68,25.82-30.7,34.08-1.02,8.26,12.28,41.31,18.42,52.67,6.14,11.36,8.19,11.36,7.16,22.72s-9.21,101.21-9.21,101.21Z"/>
            <path class="cls-10" d="M412.25,271.35c6.14-11.36,2.05-28.92-2.05-35.11-4.09-6.2-26.61-8.26-33.77-4.13-7.16,4.13-5.12,12.39-8.19,16.52-3.07,4.13-15.35,9.3-15.35,9.3,0,0-14.33,7.23-13.3,11.36s-6.14,7.23,1.02,12.39c7.16,5.16,19.44,9.3,22.51,12.39,3.07,3.1,4.09,14.46,8.19,17.56s25.58,5.16,29.68,2.07,11.26-6.2,9.21-11.36c-2.05-5.16-5.12-9.3-2.05-14.46,3.07-5.16,4.09-16.52,4.09-16.52Z"/>
            <path class="cls-10" d="M244.43,245.53c6.14-11.36-13.3-19.62-17.4-25.82s-11.26-17.56-18.42-13.43c-7.16,4.13-38.89,8.26-41.96,12.39-3.07,4.13,4.09,15.49,4.09,15.49,0,0,0,5.16,1.02,9.3,1.02,4.13-6.14,7.23,1.02,12.39,7.16,5.16,9.21,11.36,12.28,14.46s14.33,12.39,18.42,15.49,25.58,5.16,29.68,2.07,11.26-6.2,9.21-11.36c-2.05-5.16-5.12-9.3-2.05-14.46s4.09-16.52,4.09-16.52Z"/>
            <path class="cls-10" d="M324.77,274.25c15.65,5.67,22.26-21.12,29.31-27.65,7.05-6.53,20.05-18.06,13.37-26.5-6.67-8.44-18.25-48.64-24.11-51.79-5.86-3.15-18.85,8.38-18.85,8.38,0,0-6.56,1.03-11.6,3.18s-10.4-6.5-15.53,3.8c-5.13,10.29-12.59,14.18-15.91,18.77s-12.88,21-15.99,26.91-1.45,34.12,3.3,38.79,10.11,13.32,16.26,9.64c6.15-3.68,10.78-8.47,17.95-5.53,7.17,2.94,21.8,2,21.8,2Z"/>
          </g>
          <g id="Tree-2" data-name="Tree">
            <path class="cls-11" d="M407.47,532.53h56.76s-25.08-96.36-19.8-129.37,29.04-58.08,30.36-68.64c1.32-10.56-5.28-27.72,1.32-36.96,6.6-9.24,34.32-13.2,42.24-21.12s14.52-34.32,14.52-34.32l3.96-21.12s-15.84,15.84-40.92,38.28-40.92,27.72-51.48,19.8c-10.56-7.92-7.92-25.08-11.88-43.56-3.96-18.48-17.16-42.24-17.16-42.24,0,0-7.92,26.4-6.6,35.64s2.64,22.44-6.6,22.44-21.12,3.96-31.68-15.84c-10.56-19.8-47.52-33-44.88-23.76,2.64,9.24,9.24,18.48,19.8,30.36s33,19.8,43.56,21.12c10.56,1.32,38.28,33,39.6,43.56,1.32,10.56-15.84,52.8-23.76,67.32s-10.56,14.52-9.24,29.04c1.32,14.52,11.88,129.37,11.88,129.37Z"/>
            <path class="cls-10" d="M278.1,222.32c-7.92-14.52-2.64-36.96,2.64-44.88s34.32-10.56,43.56-5.28c9.24,5.28,6.6,15.84,10.56,21.12s19.8,11.88,19.8,11.88c0,0,18.48,9.24,17.16,14.52-1.32,5.28,7.92,9.24-1.32,15.84s-25.08,11.88-29.04,15.84-5.28,18.48-10.56,22.44-33,6.6-38.28,2.64c-5.28-3.96-14.52-7.92-11.88-14.52,2.64-6.6,6.6-11.88,2.64-18.48-3.96-6.6-5.28-21.12-5.28-21.12Z"/>
            <path class="cls-10" d="M390.95,226.02c-20.19,7.25-28.72-26.99-37.81-35.34-9.1-8.35-25.86-23.08-17.25-33.87,8.61-10.79,23.54-62.17,31.1-66.19,7.56-4.02,24.32,10.72,24.32,10.72,0,0,8.46,1.32,14.96,4.06,6.5,2.75,13.42-8.31,20.04,4.85,6.61,13.16,16.24,18.12,20.52,23.99,4.28,5.86,16.61,26.84,20.63,34.4,4.02,7.56,1.87,43.61-4.25,49.58-6.13,5.98-13.05,17.03-20.98,12.33-7.93-4.7-13.91-10.83-23.15-7.07-9.25,3.76-28.12,2.55-28.12,2.55Z"/>
          </g>
          <rect id="Background" class="cls-15" x="48.77" y="69.97" width="497.37" height="329.56"/>
          <path class="cls-24" d="M566.95,15.99c.05-17.14-17.86-15.98-17.86-15.98H45.1C29.64.02,31.46,18.05,31.46,18.05v373.14h535.48s-.05-358.07,0-375.2ZM60.76,74.26h471.76v185.9H60.76V74.26ZM533.52,391.14H60.82v-52.97h472.69v52.97ZM533.71,326.15H61.32v-48.21h472.39v48.21Z"/>
          <path class="cls-18" d="M6.8,672.37h584.92s6.6.53,6.6,20.94-6.55,24.35-6.55,24.35H6.74s-6.74-3.95-6.74-22.04,6.8-23.25,6.8-23.25Z"/>
          <rect class="cls-15" x="29.11" y="423.48" width="538.17" height="24.4"/>
          <g id="Onning">
            <polygon class="cls-29" points="297.81 118.88 239.23 118.88 245.88 43.1 298.87 43.1 297.81 118.88"/>
            <polygon class="cls-16" points="238.71 118.88 180.14 118.88 192.41 43.1 245.4 43.1 238.71 118.88"/>
            <polygon class="cls-29" points="179.61 118.88 121.04 118.88 138.95 43.1 191.94 43.1 179.61 118.88"/>
            <polygon class="cls-16" points="120.51 118.88 61.94 118.88 85.48 43.1 138.47 43.1 120.51 118.88"/>
            <polygon class="cls-29" points="61.41 118.88 2.84 118.88 32.02 43.1 85.01 43.1 61.41 118.88"/>
            <polygon class="cls-16" points="356.91 118.88 298.34 118.88 299.35 43.1 352.34 43.1 356.91 118.88"/>
            <polygon class="cls-29" points="416.09 118.88 357.52 118.88 352.88 43.1 405.87 43.1 416.09 118.88"/>
            <polygon class="cls-16" points="475.37 118.88 416.8 118.88 406.51 43.1 459.5 43.1 475.37 118.88"/>
            <polygon class="cls-29" points="534.65 118.88 476.08 118.88 460.14 43.1 513.13 43.1 534.65 118.88"/>
            <polygon class="cls-16" points="593.94 118.88 535.36 118.88 513.77 43.1 566.76 43.1 593.94 118.88"/>
            <path class="cls-13" d="M32.62,159.51s-29.78,2.51-29.78-40.63h58.57s.22,40.63-28.79,40.63Z"/>
            <path class="cls-17" d="M91.75,159.51s-29.78,2.51-29.78-40.63h58.57s.22,40.63-28.79,40.63Z"/>
            <path class="cls-13" d="M150.87,159.51s-29.78,2.51-29.78-40.63h58.57s.22,40.63-28.79,40.63Z"/>
            <path class="cls-17" d="M210,159.51s-29.78,2.51-29.78-40.63h58.57s.22,40.63-28.79,40.63Z"/>
            <path class="cls-13" d="M269.13,159.51s-29.78,2.51-29.78-40.63h58.57s.22,40.63-28.79,40.63Z"/>
            <path class="cls-17" d="M328.25,159.51s-29.78,2.51-29.78-40.63h58.57s.22,40.63-28.79,40.63Z"/>
            <path class="cls-13" d="M387.38,159.51s-29.78,2.51-29.78-40.63h58.57s.22,40.63-28.79,40.63Z"/>
            <path class="cls-17" d="M446.51,159.51s-29.78,2.51-29.78-40.63h58.57s.22,40.63-28.79,40.63Z"/>
            <path class="cls-13" d="M505.64,159.51s-29.78,2.51-29.78-40.63h58.57s.22,40.63-28.79,40.63Z"/>
            <path class="cls-17" d="M564.76,159.51s-29.78,2.51-29.78-40.63h58.57s.22,40.63-28.79,40.63Z"/>
          </g>
          <g id="Black_Carrot" data-name="Black Carrot">
            <path class="cls-26" d="M530.41,252.27c-.62-.31-1.87-.68-2.77-.59-2.46.26-4.85.69-6.01,1.06,4.92,2.32,7.73.51,8.77-.47Z"/>
            <path class="cls-26" d="M525.81,246.89c-.36,0-.98.07-1.45.19-.54.42-2.29,2.86-2.78,4.04,2.77-.44,4.19-1.86,4.23-4.23Z"/>
            <path class="cls-20" d="M519.88,258.17c.41-.59.09-2.37-.53-4.85-.69-2.78-1.1-4.46-1.7-4.77-.46-.24-1.58.15-3.1.73-.04.01-.07.03-.11.05l1.35,5.7-2.55-5.1c-1.06.53-2.02,1.03-2.88,1.5l.93,3.71-1.97-3.14c-6.62,3.72-6.51,5.06-6.47,5.22.05.16.7,1.54,10.15.8.7-.05,1.42.19,2.12.43.68.23,1.38.47,1.98.4,1.44-.14,2.47-.24,2.77-.67Z"/>
            <path class="cls-20" d="M521.05,254.34c-.54-1.15-.63-2.4-.8-3.63-.02.05-.04.1-.06.15-.55-2.05-.99-3.11-1.88-3.57-1.01-.53-2.28-.09-4.27.66h0c-.11.04-.22.09-.33.15-.11.06-.29.15-.53.27-8.67,4.3-12.27,7.14-11.7,9.23.05.17.12.34.23.51.71,1.07,3.07,1.98,11.4,1.32.41-.03.96.16,1.55.36.79.27,1.69.57,2.59.47,1.87-.18,3.1-.31,3.78-1.26.63-.89.54-2.28.01-4.65ZM517.11,258.84c-.6.07-1.3-.17-1.98-.4-.7-.24-1.42-.48-2.12-.43-9.45.74-10.11-.64-10.15-.8-.04-.16-.15-1.5,6.47-5.22l1.97,3.14-.93-3.71c.86-.46,1.81-.96,2.88-1.5l2.55,5.1-1.35-5.7s.07-.03.11-.05c1.52-.58,2.64-.97,3.1-.73.6.31,1.01,1.99,1.7,4.77.62,2.49.94,4.27.53,4.85-.3.43-1.33.53-2.77.67Z"/>
            <path class="cls-26" d="M520.98,254c6.74,3.21,10.26-.44,10.91-1.23.23-.28.27-.66.09-1-.5-.92-3.03-1.66-4.49-1.51-.55.06-1.06.12-1.54.18.87-1,1.32-2.3,1.27-3.86v-.08c0-.3-.14-.57-.39-.76-.78-.59-2.72-.08-2.93-.02-.73.2-2.95,3.13-3.65,4.98.16,1.23.26,2.48.8,3.63-.03-.12-.05-.22-.08-.35ZM521.58,251.12c.49-1.17,2.24-3.62,2.78-4.04.47-.12,1.09-.2,1.45-.19-.04,2.37-1.46,3.79-4.23,4.23ZM527.64,251.68c.9-.1,2.15.28,2.77.59-1.05.98-3.85,2.79-8.77.47,1.16-.36,3.55-.8,6.01-1.06Z"/>
          </g>
          <g id="Black_Carrot-2" data-name="Black Carrot">
            <path class="cls-26" d="M502.25,252.27c-.62-.31-1.87-.68-2.77-.59-2.46.26-4.85.69-6.01,1.06,4.92,2.32,7.73.51,8.77-.47Z"/>
            <path class="cls-26" d="M497.65,246.89c-.36,0-.98.07-1.45.19-.54.42-2.29,2.86-2.78,4.04,2.77-.44,4.19-1.86,4.23-4.23Z"/>
            <path class="cls-20" d="M491.72,258.17c.41-.59.09-2.37-.53-4.85-.69-2.78-1.1-4.46-1.7-4.77-.46-.24-1.58.15-3.1.73-.04.01-.07.03-.11.05l1.35,5.7-2.55-5.1c-1.06.53-2.02,1.03-2.88,1.5l.93,3.71-1.97-3.14c-6.62,3.72-6.51,5.06-6.47,5.22.05.16.7,1.54,10.15.8.7-.05,1.42.19,2.12.43.68.23,1.38.47,1.98.4,1.44-.14,2.47-.24,2.77-.67Z"/>
            <path class="cls-20" d="M492.89,254.34c-.54-1.15-.63-2.4-.8-3.63-.02.05-.04.1-.06.15-.55-2.05-.99-3.11-1.88-3.57-1.01-.53-2.28-.09-4.27.66h0c-.11.04-.22.09-.33.15-.11.06-.29.15-.53.27-8.67,4.3-12.27,7.14-11.7,9.23.05.17.12.34.23.51.71,1.07,3.07,1.98,11.4,1.32.41-.03.96.16,1.55.36.79.27,1.69.57,2.59.47,1.87-.18,3.1-.31,3.78-1.26.63-.89.54-2.28.01-4.65ZM488.95,258.84c-.6.07-1.3-.17-1.98-.4-.7-.24-1.42-.48-2.12-.43-9.45.74-10.11-.64-10.15-.8-.04-.16-.15-1.5,6.47-5.22l1.97,3.14-.93-3.71c.86-.46,1.81-.96,2.88-1.5l2.55,5.1-1.35-5.7s.07-.03.11-.05c1.52-.58,2.64-.97,3.1-.73.6.31,1.01,1.99,1.7,4.77.62,2.49.94,4.27.53,4.85-.3.43-1.33.53-2.77.67Z"/>
            <path class="cls-26" d="M492.82,254c6.74,3.21,10.26-.44,10.91-1.23.23-.28.27-.66.09-1-.5-.92-3.03-1.66-4.49-1.51-.55.06-1.06.12-1.54.18.87-1,1.32-2.3,1.27-3.86v-.08c0-.3-.14-.57-.39-.76-.78-.59-2.72-.08-2.93-.02-.73.2-2.95,3.13-3.65,4.98.16,1.23.26,2.48.8,3.63-.03-.12-.05-.22-.08-.35ZM493.42,251.12c.49-1.17,2.24-3.62,2.78-4.04.47-.12,1.09-.2,1.45-.19-.04,2.37-1.46,3.79-4.23,4.23ZM499.48,251.68c.9-.1,2.15.28,2.77.59-1.05.98-3.85,2.79-8.77.47,1.16-.36,3.55-.8,6.01-1.06Z"/>
          </g>
          <g id="Black_Carrot-3" data-name="Black Carrot">
            <path class="cls-26" d="M519.73,242.74c-.62-.31-1.87-.68-2.77-.59-2.46.26-4.85.69-6.01,1.06,4.92,2.32,7.73.51,8.77-.47Z"/>
            <path class="cls-26" d="M515.13,237.36c-.36,0-.98.07-1.45.19-.54.42-2.29,2.86-2.78,4.04,2.77-.44,4.19-1.86,4.23-4.23Z"/>
            <path class="cls-20" d="M509.21,248.65c.41-.59.09-2.37-.53-4.85-.69-2.78-1.1-4.46-1.7-4.77-.46-.24-1.58.15-3.1.73-.04.01-.07.03-.11.05l1.35,5.7-2.55-5.1c-1.06.53-2.02,1.03-2.88,1.5l.93,3.71-1.97-3.14c-6.62,3.72-6.51,5.06-6.47,5.22.05.16.7,1.54,10.15.8.7-.05,1.42.19,2.12.43.68.23,1.38.47,1.98.4,1.44-.14,2.47-.24,2.77-.67Z"/>
            <path class="cls-20" d="M510.38,244.82c-.54-1.15-.63-2.4-.8-3.63-.02.05-.04.1-.06.15-.55-2.05-.99-3.11-1.88-3.57-1.01-.53-2.28-.09-4.27.66h0c-.11.04-.22.09-.33.15-.11.06-.29.15-.53.27-8.67,4.3-12.27,7.14-11.7,9.23.05.17.12.34.23.51.71,1.07,3.07,1.98,11.4,1.32.41-.03.96.16,1.55.36.79.27,1.69.57,2.59.47,1.87-.18,3.1-.31,3.78-1.26.63-.89.54-2.28.01-4.65ZM506.44,249.32c-.6.07-1.3-.17-1.98-.4-.7-.24-1.42-.48-2.12-.43-9.45.74-10.11-.64-10.15-.8-.04-.16-.15-1.5,6.47-5.22l1.97,3.14-.93-3.71c.86-.46,1.81-.96,2.88-1.5l2.55,5.1-1.35-5.7s.07-.03.11-.05c1.52-.58,2.64-.97,3.1-.73.6.31,1.01,1.99,1.7,4.77.62,2.49.94,4.27.53,4.85-.3.43-1.33.53-2.77.67Z"/>
            <path class="cls-26" d="M510.3,244.47c6.74,3.21,10.26-.44,10.91-1.23.23-.28.27-.66.09-1-.5-.92-3.03-1.66-4.49-1.51-.55.06-1.06.12-1.54.18.87-1,1.32-2.3,1.27-3.86v-.08c0-.3-.14-.57-.39-.76-.78-.59-2.72-.08-2.93-.02-.73.2-2.95,3.13-3.65,4.98.16,1.23.26,2.48.8,3.63-.03-.12-.05-.22-.08-.35ZM510.91,241.59c.49-1.17,2.24-3.62,2.78-4.04.47-.12,1.09-.2,1.45-.19-.04,2.37-1.46,3.79-4.23,4.23ZM516.96,242.15c.9-.1,2.15.28,2.77.59-1.05.98-3.85,2.79-8.77.47,1.16-.36,3.55-.8,6.01-1.06Z"/>
          </g>
          <g id="Black_Carrot-4" data-name="Black Carrot">
            <path class="cls-26" d="M445.92,252.27c-.62-.31-1.87-.68-2.77-.59-2.46.26-4.85.69-6.01,1.06,4.92,2.32,7.73.51,8.77-.47Z"/>
            <path class="cls-26" d="M441.33,246.89c-.36,0-.98.07-1.45.19-.54.42-2.29,2.86-2.78,4.04,2.77-.44,4.19-1.86,4.23-4.23Z"/>
            <path class="cls-20" d="M435.4,258.17c.41-.59.09-2.37-.53-4.85-.69-2.78-1.1-4.46-1.7-4.77-.46-.24-1.58.15-3.1.73-.04.01-.07.03-.11.05l1.35,5.7-2.55-5.1c-1.06.53-2.02,1.03-2.88,1.5l.93,3.71-1.97-3.14c-6.62,3.72-6.51,5.06-6.47,5.22.05.16.7,1.54,10.15.8.7-.05,1.42.19,2.12.43.68.23,1.38.47,1.98.4,1.44-.14,2.47-.24,2.77-.67Z"/>
            <path class="cls-20" d="M436.57,254.34c-.54-1.15-.63-2.4-.8-3.63-.02.05-.04.1-.06.15-.55-2.05-.99-3.11-1.88-3.57-1.01-.53-2.28-.09-4.27.66h0c-.11.04-.22.09-.33.15-.11.06-.29.15-.53.27-8.67,4.3-12.27,7.14-11.7,9.23.05.17.12.34.23.51.71,1.07,3.07,1.98,11.4,1.32.41-.03.96.16,1.55.36.79.27,1.69.57,2.59.47,1.87-.18,3.1-.31,3.78-1.26.63-.89.54-2.28.01-4.65ZM432.63,258.84c-.6.07-1.3-.17-1.98-.4-.7-.24-1.42-.48-2.12-.43-9.45.74-10.11-.64-10.15-.8-.04-.16-.15-1.5,6.47-5.22l1.97,3.14-.93-3.71c.86-.46,1.81-.96,2.88-1.5l2.55,5.1-1.35-5.7s.07-.03.11-.05c1.52-.58,2.64-.97,3.1-.73.6.31,1.01,1.99,1.7,4.77.62,2.49.94,4.27.53,4.85-.3.43-1.33.53-2.77.67Z"/>
            <path class="cls-26" d="M436.49,254c6.74,3.21,10.26-.44,10.91-1.23.23-.28.27-.66.09-1-.5-.92-3.03-1.66-4.49-1.51-.55.06-1.06.12-1.54.18.87-1,1.32-2.3,1.27-3.86v-.08c0-.3-.14-.57-.39-.76-.78-.59-2.72-.08-2.93-.02-.73.2-2.95,3.13-3.65,4.98.16,1.23.26,2.48.8,3.63-.03-.12-.05-.22-.08-.35ZM437.1,251.12c.49-1.17,2.24-3.62,2.78-4.04.47-.12,1.09-.2,1.45-.19-.04,2.37-1.46,3.79-4.23,4.23ZM443.16,251.68c.9-.1,2.15.28,2.77.59-1.05.98-3.85,2.79-8.77.47,1.16-.36,3.55-.8,6.01-1.06Z"/>
          </g>
          <g id="Black_Carrot-5" data-name="Black Carrot">
            <path class="cls-26" d="M449.58,244.65c.3.62,1.06,1.69,1.82,2.17,2.1,1.31,4.25,2.44,5.39,2.86-2.45-4.86-5.78-5.16-7.2-5.03Z"/>
            <path class="cls-26" d="M449.9,251.72c.28.22.81.54,1.26.74.68,0,3.56-.85,4.68-1.47-2.45-1.36-4.45-1.11-5.94.73Z"/>
            <path class="cls-20" d="M461.51,246.48c-.69.21-1.53,1.81-2.57,4.15-1.17,2.61-1.87,4.19-1.6,4.8.22.48,1.34.85,2.89,1.33.04.01.08.02.11.03l2.44-5.32-1.13,5.59c1.17.23,2.23.43,3.19.59l1.55-3.5-.38,3.69c7.51,1.14,8.25.02,8.31-.14.06-.15.39-1.65-7.51-6.88-.58-.39-1-1.02-1.41-1.64-.39-.6-.8-1.22-1.31-1.53-1.22-.77-2.1-1.33-2.59-1.18Z"/>
            <path class="cls-20" d="M458.23,248.77c-.28,1.24-.98,2.28-1.6,3.35.05-.03.09-.05.14-.08-.83,1.95-1.13,3.06-.71,3.98.47,1.04,1.74,1.48,3.77,2.1h0c.11.03.23.06.35.09.12.02.32.06.58.12,9.48,1.95,14.07,1.92,14.9-.08.07-.16.12-.35.13-.55.09-1.28-1.21-3.45-8.17-8.06-.34-.22-.66-.72-1-1.24-.46-.7-.98-1.49-1.75-1.96-1.59-1-2.63-1.67-3.75-1.33-1.04.32-1.83,1.47-2.87,3.66ZM464.11,247.65c.51.31.92.93,1.31,1.53.4.62.82,1.25,1.41,1.64,7.9,5.23,7.57,6.72,7.51,6.88-.06.16-.8,1.28-8.31.14l.38-3.69-1.55,3.5c-.96-.16-2.02-.36-3.19-.59l1.13-5.59-2.44,5.32s-.08-.02-.11-.03c-1.56-.48-2.68-.86-2.89-1.33-.28-.61.43-2.19,1.6-4.8,1.05-2.34,1.88-3.94,2.57-4.15.5-.15,1.37.4,2.59,1.18Z"/>
            <path class="cls-26" d="M458.08,249.09c-3.34-6.68-8.36-5.96-9.35-5.74-.36.08-.62.36-.68.73-.17,1.04,1.37,3.18,2.61,3.95.47.29.91.56,1.32.8-1.3.25-2.45,1-3.38,2.26l-.05.06c-.18.24-.24.54-.16.83.25.95,2.09,1.73,2.3,1.82.7.29,4.25-.65,5.94-1.68.63-1.07,1.32-2.11,1.6-3.35-.05.11-.1.21-.15.32ZM455.83,250.99c-1.11.62-3.99,1.47-4.68,1.47-.45-.19-.98-.51-1.26-.74,1.49-1.85,3.48-2.09,5.94-.73ZM451.4,246.82c-.76-.48-1.52-1.54-1.82-2.17,1.43-.13,4.76.17,7.2,5.03-1.14-.43-3.29-1.56-5.39-2.86Z"/>
          </g>
          <g id="Black_Carrot-6" data-name="Black Carrot">
            <path class="cls-26" d="M420.77,252.36c-.62-.31-1.87-.68-2.77-.59-2.46.26-4.85.69-6.01,1.06,4.92,2.32,7.73.51,8.77-.47Z"/>
            <path class="cls-26" d="M416.17,246.98c-.36,0-.98.07-1.45.19-.54.42-2.29,2.86-2.78,4.04,2.77-.44,4.19-1.86,4.23-4.23Z"/>
            <path class="cls-20" d="M410.24,258.26c.41-.59.09-2.37-.53-4.85-.69-2.78-1.1-4.46-1.7-4.77-.46-.24-1.58.15-3.1.73-.04.01-.07.03-.11.05l1.35,5.7-2.55-5.1c-1.06.53-2.02,1.03-2.88,1.5l.93,3.71-1.97-3.14c-6.62,3.72-6.51,5.06-6.47,5.22.05.16.7,1.54,10.15.8.7-.05,1.42.19,2.12.43.68.23,1.38.47,1.98.4,1.44-.14,2.47-.24,2.77-.67Z"/>
            <path class="cls-20" d="M411.41,254.43c-.54-1.15-.63-2.4-.8-3.63-.02.05-.04.1-.06.15-.55-2.05-.99-3.11-1.88-3.57-1.01-.53-2.28-.09-4.27.66h0c-.11.04-.22.09-.33.15-.11.06-.29.15-.53.27-8.67,4.3-12.27,7.14-11.7,9.23.05.17.12.34.23.51.71,1.07,3.07,1.98,11.4,1.32.41-.03.96.16,1.55.36.79.27,1.69.57,2.59.47,1.87-.18,3.1-.31,3.78-1.26.63-.89.54-2.28.01-4.65ZM407.47,258.93c-.6.07-1.3-.17-1.98-.4-.7-.24-1.42-.48-2.12-.43-9.45.74-10.11-.64-10.15-.8-.04-.16-.15-1.5,6.47-5.22l1.97,3.14-.93-3.71c.86-.46,1.81-.96,2.88-1.5l2.55,5.1-1.35-5.7s.07-.03.11-.05c1.52-.58,2.64-.97,3.1-.73.6.31,1.01,1.99,1.7,4.77.62,2.49.94,4.27.53,4.85-.3.43-1.33.53-2.77.67Z"/>
            <path class="cls-26" d="M411.34,254.09c6.74,3.21,10.26-.44,10.91-1.23.23-.28.27-.66.09-1-.5-.92-3.03-1.66-4.49-1.51-.55.06-1.06.12-1.54.18.87-1,1.32-2.3,1.27-3.86v-.08c0-.3-.14-.57-.39-.76-.78-.59-2.72-.08-2.93-.02-.73.2-2.95,3.13-3.65,4.98.16,1.23.26,2.48.8,3.63-.03-.12-.05-.22-.08-.35ZM411.94,251.21c.49-1.17,2.24-3.62,2.78-4.04.47-.12,1.09-.2,1.45-.19-.04,2.37-1.46,3.79-4.23,4.23ZM418,251.77c.9-.1,2.15.28,2.77.59-1.05.98-3.85,2.79-8.77.47,1.16-.36,3.55-.8,6.01-1.06Z"/>
          </g>
          <g id="Black_Carrot-7" data-name="Black Carrot">
            <path class="cls-26" d="M405.1,317.07c-.62-.31-1.87-.68-2.77-.59-2.46.26-4.85.69-6.01,1.06,4.92,2.32,7.73.51,8.77-.47Z"/>
            <path class="cls-26" d="M400.5,311.69c-.36,0-.98.07-1.45.19-.54.42-2.29,2.86-2.78,4.04,2.77-.44,4.19-1.86,4.23-4.23Z"/>
            <path class="cls-20" d="M394.57,322.98c.41-.59.09-2.37-.53-4.85-.69-2.78-1.1-4.46-1.7-4.77-.46-.24-1.58.15-3.1.73-.04.01-.07.03-.11.05l1.35,5.7-2.55-5.1c-1.06.53-2.02,1.03-2.88,1.5l.93,3.71-1.97-3.14c-6.62,3.72-6.51,5.06-6.47,5.22.05.16.7,1.54,10.15.8.7-.05,1.42.19,2.12.43.68.23,1.38.47,1.98.4,1.44-.14,2.47-.24,2.77-.67Z"/>
            <path class="cls-20" d="M395.75,319.15c-.54-1.15-.63-2.4-.8-3.63-.02.05-.04.1-.06.15-.55-2.05-.99-3.11-1.88-3.57-1.01-.53-2.28-.09-4.27.66h0c-.11.04-.22.09-.33.15-.11.06-.29.15-.53.27-8.67,4.3-12.27,7.14-11.7,9.23.05.17.12.34.23.51.71,1.07,3.07,1.98,11.4,1.32.41-.03.96.16,1.55.36.79.27,1.69.57,2.59.47,1.87-.18,3.1-.31,3.78-1.26.63-.89.54-2.28.01-4.65ZM391.81,323.65c-.6.07-1.3-.17-1.98-.4-.7-.24-1.42-.48-2.12-.43-9.45.74-10.11-.64-10.15-.8-.04-.16-.15-1.5,6.47-5.22l1.97,3.14-.93-3.71c.86-.46,1.81-.96,2.88-1.5l2.55,5.1-1.35-5.7s.07-.03.11-.05c1.52-.58,2.64-.97,3.1-.73.6.31,1.01,1.99,1.7,4.77.62,2.49.94,4.27.53,4.85-.3.43-1.33.53-2.77.67Z"/>
            <path class="cls-26" d="M395.67,318.8c6.74,3.21,10.26-.44,10.91-1.23.23-.28.27-.66.09-1-.5-.92-3.03-1.66-4.49-1.51-.55.06-1.06.12-1.54.18.87-1,1.32-2.3,1.27-3.86v-.08c0-.3-.14-.57-.39-.76-.78-.59-2.72-.08-2.93-.02-.73.2-2.95,3.13-3.65,4.98.16,1.23.26,2.48.8,3.63-.03-.12-.05-.22-.08-.35ZM396.27,315.92c.49-1.17,2.24-3.62,2.78-4.04.47-.12,1.09-.2,1.45-.19-.04,2.37-1.46,3.79-4.23,4.23ZM402.33,316.48c.9-.1,2.15.28,2.77.59-1.05.98-3.85,2.79-8.77.47,1.16-.36,3.55-.8,6.01-1.06Z"/>
          </g>
          <g id="Black_Carrot-8" data-name="Black Carrot">
            <path class="cls-26" d="M376.94,317.07c-.62-.31-1.87-.68-2.77-.59-2.46.26-4.85.69-6.01,1.06,4.92,2.32,7.73.51,8.77-.47Z"/>
            <path class="cls-26" d="M372.34,311.69c-.36,0-.98.07-1.45.19-.54.42-2.29,2.86-2.78,4.04,2.77-.44,4.19-1.86,4.23-4.23Z"/>
            <path class="cls-20" d="M366.41,322.98c.41-.59.09-2.37-.53-4.85-.69-2.78-1.1-4.46-1.7-4.77-.46-.24-1.58.15-3.1.73-.04.01-.07.03-.11.05l1.35,5.7-2.55-5.1c-1.06.53-2.02,1.03-2.88,1.5l.93,3.71-1.97-3.14c-6.62,3.72-6.51,5.06-6.47,5.22.05.16.7,1.54,10.15.8.7-.05,1.42.19,2.12.43.68.23,1.38.47,1.98.4,1.44-.14,2.47-.24,2.77-.67Z"/>
            <path class="cls-20" d="M367.59,319.15c-.54-1.15-.63-2.4-.8-3.63-.02.05-.04.1-.06.15-.55-2.05-.99-3.11-1.88-3.57-1.01-.53-2.28-.09-4.27.66h0c-.11.04-.22.09-.33.15-.11.06-.29.15-.53.27-8.67,4.3-12.27,7.14-11.7,9.23.05.17.12.34.23.51.71,1.07,3.07,1.98,11.4,1.32.41-.03.96.16,1.55.36.79.27,1.69.57,2.59.47,1.87-.18,3.1-.31,3.78-1.26.63-.89.54-2.28.01-4.65ZM363.64,323.65c-.6.07-1.3-.17-1.98-.4-.7-.24-1.42-.48-2.12-.43-9.45.74-10.11-.64-10.15-.8-.04-.16-.15-1.5,6.47-5.22l1.97,3.14-.93-3.71c.86-.46,1.81-.96,2.88-1.5l2.55,5.1-1.35-5.7s.07-.03.11-.05c1.52-.58,2.64-.97,3.1-.73.6.31,1.01,1.99,1.7,4.77.62,2.49.94,4.27.53,4.85-.3.43-1.33.53-2.77.67Z"/>
            <path class="cls-26" d="M367.51,318.8c6.74,3.21,10.26-.44,10.91-1.23.23-.28.27-.66.09-1-.5-.92-3.03-1.66-4.49-1.51-.55.06-1.06.12-1.54.18.87-1,1.32-2.3,1.27-3.86v-.08c0-.3-.14-.57-.39-.76-.78-.59-2.72-.08-2.93-.02-.73.2-2.95,3.13-3.65,4.98.16,1.23.26,2.48.8,3.63-.03-.12-.05-.22-.08-.35ZM368.11,315.92c.49-1.17,2.24-3.62,2.78-4.04.47-.12,1.09-.2,1.45-.19-.04,2.37-1.46,3.79-4.23,4.23ZM374.17,316.48c.9-.1,2.15.28,2.77.59-1.05.98-3.85,2.79-8.77.47,1.16-.36,3.55-.8,6.01-1.06Z"/>
          </g>
          <g id="Black_Carrot-9" data-name="Black Carrot">
            <path class="cls-26" d="M394.42,307.55c-.62-.31-1.87-.68-2.77-.59-2.46.26-4.85.69-6.01,1.06,4.92,2.32,7.73.51,8.77-.47Z"/>
            <path class="cls-26" d="M389.83,302.17c-.36,0-.98.07-1.45.19-.54.42-2.29,2.86-2.78,4.04,2.77-.44,4.19-1.86,4.23-4.23Z"/>
            <path class="cls-20" d="M383.9,313.45c.41-.59.09-2.37-.53-4.85-.69-2.78-1.1-4.46-1.7-4.77-.46-.24-1.58.15-3.1.73-.04.01-.07.03-.11.05l1.35,5.7-2.55-5.1c-1.06.53-2.02,1.03-2.88,1.5l.93,3.71-1.97-3.14c-6.62,3.72-6.51,5.06-6.47,5.22.05.16.7,1.54,10.15.8.7-.05,1.42.19,2.12.43.68.23,1.38.47,1.98.4,1.44-.14,2.47-.24,2.77-.67Z"/>
            <path class="cls-20" d="M385.07,309.62c-.54-1.15-.63-2.4-.8-3.63-.02.05-.04.1-.06.15-.55-2.05-.99-3.11-1.88-3.57-1.01-.53-2.28-.09-4.27.66h0c-.11.04-.22.09-.33.15-.11.06-.29.15-.53.27-8.67,4.3-12.27,7.14-11.7,9.23.05.17.12.34.23.51.71,1.07,3.07,1.98,11.4,1.32.41-.03.96.16,1.55.36.79.27,1.69.57,2.59.47,1.87-.18,3.1-.31,3.78-1.26.63-.89.54-2.28.01-4.65ZM381.13,314.12c-.6.07-1.3-.17-1.98-.4-.7-.24-1.42-.48-2.12-.43-9.45.74-10.11-.64-10.15-.8-.04-.16-.15-1.5,6.47-5.22l1.97,3.14-.93-3.71c.86-.46,1.81-.96,2.88-1.5l2.55,5.1-1.35-5.7s.07-.03.11-.05c1.52-.58,2.64-.97,3.1-.73.6.31,1.01,1.99,1.7,4.77.62,2.49.94,4.27.53,4.85-.3.43-1.33.53-2.77.67Z"/>
            <path class="cls-26" d="M384.99,309.28c6.74,3.21,10.26-.44,10.91-1.23.23-.28.27-.66.09-1-.5-.92-3.03-1.66-4.49-1.51-.55.06-1.06.12-1.54.18.87-1,1.32-2.3,1.27-3.86v-.08c0-.3-.14-.57-.39-.76-.78-.59-2.72-.08-2.93-.02-.73.2-2.95,3.13-3.65,4.98.16,1.23.26,2.48.8,3.63-.03-.12-.05-.22-.08-.35ZM385.6,306.4c.49-1.17,2.24-3.62,2.78-4.04.47-.12,1.09-.2,1.45-.19-.04,2.37-1.46,3.79-4.23,4.23ZM391.66,306.96c.9-.1,2.15.28,2.77.59-1.05.98-3.85,2.79-8.77.47,1.16-.36,3.55-.8,6.01-1.06Z"/>
          </g>
          <g id="Black_Carrot-10" data-name="Black Carrot">
            <path class="cls-26" d="M353.08,316.13c-.62-.31-1.87-.68-2.77-.59-2.46.26-4.85.69-6.01,1.06,4.92,2.32,7.73.51,8.77-.47Z"/>
            <path class="cls-26" d="M348.48,310.75c-.36,0-.98.07-1.45.19-.54.42-2.29,2.86-2.78,4.04,2.77-.44,4.19-1.86,4.23-4.23Z"/>
            <path class="cls-20" d="M342.55,322.04c.41-.59.09-2.37-.53-4.85-.69-2.78-1.1-4.46-1.7-4.77-.46-.24-1.58.15-3.1.73-.04.01-.07.03-.11.05l1.35,5.7-2.55-5.1c-1.06.53-2.02,1.03-2.88,1.5l.93,3.71-1.97-3.14c-6.62,3.72-6.51,5.06-6.47,5.22.05.16.7,1.54,10.15.8.7-.05,1.42.19,2.12.43.68.23,1.38.47,1.98.4,1.44-.14,2.47-.24,2.77-.67Z"/>
            <path class="cls-20" d="M343.73,318.21c-.54-1.15-.63-2.4-.8-3.63-.02.05-.04.1-.06.15-.55-2.05-.99-3.11-1.88-3.57-1.01-.53-2.28-.09-4.27.66h0c-.11.04-.22.09-.33.15-.11.06-.29.15-.53.27-8.67,4.3-12.27,7.14-11.7,9.23.05.17.12.34.23.51.71,1.07,3.07,1.98,11.4,1.32.41-.03.96.16,1.55.36.79.27,1.69.57,2.59.47,1.87-.18,3.1-.31,3.78-1.26.63-.89.54-2.28.01-4.65ZM339.78,322.71c-.6.07-1.3-.17-1.98-.4-.7-.24-1.42-.48-2.12-.43-9.45.74-10.11-.64-10.15-.8-.04-.16-.15-1.5,6.47-5.22l1.97,3.14-.93-3.71c.86-.46,1.81-.96,2.88-1.5l2.55,5.1-1.35-5.7s.07-.03.11-.05c1.52-.58,2.64-.97,3.1-.73.6.31,1.01,1.99,1.7,4.77.62,2.49.94,4.27.53,4.85-.3.43-1.33.53-2.77.67Z"/>
            <path class="cls-26" d="M343.65,317.86c6.74,3.21,10.26-.44,10.91-1.23.23-.28.27-.66.09-1-.5-.92-3.03-1.66-4.49-1.51-.55.06-1.06.12-1.54.18.87-1,1.32-2.3,1.27-3.86v-.08c0-.3-.14-.57-.39-.76-.78-.59-2.72-.08-2.93-.02-.73.2-2.95,3.13-3.65,4.98.16,1.23.26,2.48.8,3.63-.03-.12-.05-.22-.08-.35ZM344.25,314.99c.49-1.17,2.24-3.62,2.78-4.04.47-.12,1.09-.2,1.45-.19-.04,2.37-1.46,3.79-4.23,4.23ZM350.31,315.55c.9-.1,2.15.28,2.77.59-1.05.98-3.85,2.79-8.77.47,1.16-.36,3.55-.8,6.01-1.06Z"/>
          </g>
          <g id="Black_Carrot-11" data-name="Black Carrot">
            <path class="cls-26" d="M292.58,318.66c-.62-.31-1.87-.68-2.77-.59-2.46.26-4.85.69-6.01,1.06,4.92,2.32,7.73.51,8.77-.47Z"/>
            <path class="cls-26" d="M287.98,313.28c-.36,0-.98.07-1.45.19-.54.42-2.29,2.86-2.78,4.04,2.77-.44,4.19-1.86,4.23-4.23Z"/>
            <path class="cls-20" d="M282.05,324.57c.41-.59.09-2.37-.53-4.85-.69-2.78-1.1-4.46-1.7-4.77-.46-.24-1.58.15-3.1.73-.04.01-.07.03-.11.05l1.35,5.7-2.55-5.1c-1.06.53-2.02,1.03-2.88,1.5l.93,3.71-1.97-3.14c-6.62,3.72-6.51,5.06-6.47,5.22.05.16.7,1.54,10.15.8.7-.05,1.42.19,2.12.43.68.23,1.38.47,1.98.4,1.44-.14,2.47-.24,2.77-.67Z"/>
            <path class="cls-20" d="M283.22,320.74c-.54-1.15-.63-2.4-.8-3.63-.02.05-.04.1-.06.15-.55-2.05-.99-3.11-1.88-3.57-1.01-.53-2.28-.09-4.27.66h0c-.11.04-.22.09-.33.15-.11.06-.29.15-.53.27-8.67,4.3-12.27,7.14-11.7,9.23.05.17.12.34.23.51.71,1.07,3.07,1.98,11.4,1.32.41-.03.96.16,1.55.36.79.27,1.69.57,2.59.47,1.87-.18,3.1-.31,3.78-1.26.63-.89.54-2.28.01-4.65ZM279.28,325.24c-.6.07-1.3-.17-1.98-.4-.7-.24-1.42-.48-2.12-.43-9.45.74-10.11-.64-10.15-.8-.04-.16-.15-1.5,6.47-5.22l1.97,3.14-.93-3.71c.86-.46,1.81-.96,2.88-1.5l2.55,5.1-1.35-5.7s.07-.03.11-.05c1.52-.58,2.64-.97,3.1-.73.6.31,1.01,1.99,1.7,4.77.62,2.49.94,4.27.53,4.85-.3.43-1.33.53-2.77.67Z"/>
            <path class="cls-26" d="M283.15,320.39c6.74,3.21,10.26-.44,10.91-1.23.23-.28.27-.66.09-1-.5-.92-3.03-1.66-4.49-1.51-.55.06-1.06.12-1.54.18.87-1,1.32-2.3,1.27-3.86v-.08c0-.3-.14-.57-.39-.76-.78-.59-2.72-.08-2.93-.02-.73.2-2.95,3.13-3.65,4.98.16,1.23.26,2.48.8,3.63-.03-.12-.05-.22-.08-.35ZM283.75,317.51c.49-1.17,2.24-3.62,2.78-4.04.47-.12,1.09-.2,1.45-.19-.04,2.37-1.46,3.79-4.23,4.23ZM289.81,318.07c.9-.1,2.15.28,2.77.59-1.05.98-3.85,2.79-8.77.47,1.16-.36,3.55-.8,6.01-1.06Z"/>
          </g>
          <g id="Black_Carrot-12" data-name="Black Carrot">
            <path class="cls-26" d="M531.39,318.33c-.62-.31-1.87-.68-2.77-.59-2.46.26-4.85.69-6.01,1.06,4.92,2.32,7.73.51,8.77-.47Z"/>
            <path class="cls-26" d="M526.79,312.95c-.36,0-.98.07-1.45.19-.54.42-2.29,2.86-2.78,4.04,2.77-.44,4.19-1.86,4.23-4.23Z"/>
            <path class="cls-20" d="M520.86,324.24c.41-.59.09-2.37-.53-4.85-.69-2.78-1.1-4.46-1.7-4.77-.46-.24-1.58.15-3.1.73-.04.01-.07.03-.11.05l1.35,5.7-2.55-5.1c-1.06.53-2.02,1.03-2.88,1.5l.93,3.71-1.97-3.14c-6.62,3.72-6.51,5.06-6.47,5.22.05.16.7,1.54,10.15.8.7-.05,1.42.19,2.12.43.68.23,1.38.47,1.98.4,1.44-.14,2.47-.24,2.77-.67Z"/>
            <path class="cls-20" d="M522.03,320.41c-.54-1.15-.63-2.4-.8-3.63-.02.05-.04.1-.06.15-.55-2.05-.99-3.11-1.88-3.57-1.01-.53-2.28-.09-4.27.66h0c-.11.04-.22.09-.33.15-.11.06-.29.15-.53.27-8.67,4.3-12.27,7.14-11.7,9.23.05.17.12.34.23.51.71,1.07,3.07,1.98,11.4,1.32.41-.03.96.16,1.55.36.79.27,1.69.57,2.59.47,1.87-.18,3.1-.31,3.78-1.26.63-.89.54-2.28.01-4.65ZM518.09,324.91c-.6.07-1.3-.17-1.98-.4-.7-.24-1.42-.48-2.12-.43-9.45.74-10.11-.64-10.15-.8-.04-.16-.15-1.5,6.47-5.22l1.97,3.14-.93-3.71c.86-.46,1.81-.96,2.88-1.5l2.55,5.1-1.35-5.7s.07-.03.11-.05c1.52-.58,2.64-.97,3.1-.73.6.31,1.01,1.99,1.7,4.77.62,2.49.94,4.27.53,4.85-.3.43-1.33.53-2.77.67Z"/>
            <path class="cls-26" d="M521.96,320.06c6.74,3.21,10.26-.44,10.91-1.23.23-.28.27-.66.09-1-.5-.92-3.03-1.66-4.49-1.51-.55.06-1.06.12-1.54.18.87-1,1.32-2.3,1.27-3.86v-.08c0-.3-.14-.57-.39-.76-.78-.59-2.72-.08-2.93-.02-.73.2-2.95,3.13-3.65,4.98.16,1.23.26,2.48.8,3.63-.03-.12-.05-.22-.08-.35ZM522.56,317.19c.49-1.17,2.24-3.62,2.78-4.04.47-.12,1.09-.2,1.45-.19-.04,2.37-1.46,3.79-4.23,4.23ZM528.62,317.75c.9-.1,2.15.28,2.77.59-1.05.98-3.85,2.79-8.77.47,1.16-.36,3.55-.8,6.01-1.06Z"/>
          </g>
          <g id="Black_Carrot-13" data-name="Black Carrot">
            <path class="cls-26" d="M503.23,318.33c-.62-.31-1.87-.68-2.77-.59-2.46.26-4.85.69-6.01,1.06,4.92,2.32,7.73.51,8.77-.47Z"/>
            <path class="cls-26" d="M498.63,312.95c-.36,0-.98.07-1.45.19-.54.42-2.29,2.86-2.78,4.04,2.77-.44,4.19-1.86,4.23-4.23Z"/>
            <path class="cls-20" d="M492.7,324.24c.41-.59.09-2.37-.53-4.85-.69-2.78-1.1-4.46-1.7-4.77-.46-.24-1.58.15-3.1.73-.04.01-.07.03-.11.05l1.35,5.7-2.55-5.1c-1.06.53-2.02,1.03-2.88,1.5l.93,3.71-1.97-3.14c-6.62,3.72-6.51,5.06-6.47,5.22.05.16.7,1.54,10.15.8.7-.05,1.42.19,2.12.43.68.23,1.38.47,1.98.4,1.44-.14,2.47-.24,2.77-.67Z"/>
            <path class="cls-20" d="M493.87,320.41c-.54-1.15-.63-2.4-.8-3.63-.02.05-.04.1-.06.15-.55-2.05-.99-3.11-1.88-3.57-1.01-.53-2.28-.09-4.27.66h0c-.11.04-.22.09-.33.15-.11.06-.29.15-.53.27-8.67,4.3-12.27,7.14-11.7,9.23.05.17.12.34.23.51.71,1.07,3.07,1.98,11.4,1.32.41-.03.96.16,1.55.36.79.27,1.69.57,2.59.47,1.87-.18,3.1-.31,3.78-1.26.63-.89.54-2.28.01-4.65ZM489.93,324.91c-.6.07-1.3-.17-1.98-.4-.7-.24-1.42-.48-2.12-.43-9.45.74-10.11-.64-10.15-.8-.04-.16-.15-1.5,6.47-5.22l1.97,3.14-.93-3.71c.86-.46,1.81-.96,2.88-1.5l2.55,5.1-1.35-5.7s.07-.03.11-.05c1.52-.58,2.64-.97,3.1-.73.6.31,1.01,1.99,1.7,4.77.62,2.49.94,4.27.53,4.85-.3.43-1.33.53-2.77.67Z"/>
            <path class="cls-26" d="M493.8,320.06c6.74,3.21,10.26-.44,10.91-1.23.23-.28.27-.66.09-1-.5-.92-3.03-1.66-4.49-1.51-.55.06-1.06.12-1.54.18.87-1,1.32-2.3,1.27-3.86v-.08c0-.3-.14-.57-.39-.76-.78-.59-2.72-.08-2.93-.02-.73.2-2.95,3.13-3.65,4.98.16,1.23.26,2.48.8,3.63-.03-.12-.05-.22-.08-.35ZM494.4,317.19c.49-1.17,2.24-3.62,2.78-4.04.47-.12,1.09-.2,1.45-.19-.04,2.37-1.46,3.79-4.23,4.23ZM500.46,317.75c.9-.1,2.15.28,2.77.59-1.05.98-3.85,2.79-8.77.47,1.16-.36,3.55-.8,6.01-1.06Z"/>
          </g>
          <g id="Black_Carrot-14" data-name="Black Carrot">
            <path class="cls-26" d="M475.06,318.33c-.62-.31-1.87-.68-2.77-.59-2.46.26-4.85.69-6.01,1.06,4.92,2.32,7.73.51,8.77-.47Z"/>
            <path class="cls-26" d="M470.47,312.95c-.36,0-.98.07-1.45.19-.54.42-2.29,2.86-2.78,4.04,2.77-.44,4.19-1.86,4.23-4.23Z"/>
            <path class="cls-20" d="M464.54,324.24c.41-.59.09-2.37-.53-4.85-.69-2.78-1.1-4.46-1.7-4.77-.46-.24-1.58.15-3.1.73-.04.01-.07.03-.11.05l1.35,5.7-2.55-5.1c-1.06.53-2.02,1.03-2.88,1.5l.93,3.71-1.97-3.14c-6.62,3.72-6.51,5.06-6.47,5.22.05.16.7,1.54,10.15.8.7-.05,1.42.19,2.12.43.68.23,1.38.47,1.98.4,1.44-.14,2.47-.24,2.77-.67Z"/>
            <path class="cls-20" d="M465.71,320.41c-.54-1.15-.63-2.4-.8-3.63-.02.05-.04.1-.06.15-.55-2.05-.99-3.11-1.88-3.57-1.01-.53-2.28-.09-4.27.66h0c-.11.04-.22.09-.33.15-.11.06-.29.15-.53.27-8.67,4.3-12.27,7.14-11.7,9.23.05.17.12.34.23.51.71,1.07,3.07,1.98,11.4,1.32.41-.03.96.16,1.55.36.79.27,1.69.57,2.59.47,1.87-.18,3.1-.31,3.78-1.26.63-.89.54-2.28.01-4.65ZM461.77,324.91c-.6.07-1.3-.17-1.98-.4-.7-.24-1.42-.48-2.12-.43-9.45.74-10.11-.64-10.15-.8-.04-.16-.15-1.5,6.47-5.22l1.97,3.14-.93-3.71c.86-.46,1.81-.96,2.88-1.5l2.55,5.1-1.35-5.7s.07-.03.11-.05c1.52-.58,2.64-.97,3.1-.73.6.31,1.01,1.99,1.7,4.77.62,2.49.94,4.27.53,4.85-.3.43-1.33.53-2.77.67Z"/>
            <path class="cls-26" d="M465.64,320.06c6.74,3.21,10.26-.44,10.91-1.23.23-.28.27-.66.09-1-.5-.92-3.03-1.66-4.49-1.51-.55.06-1.06.12-1.54.18.87-1,1.32-2.3,1.27-3.86v-.08c0-.3-.14-.57-.39-.76-.78-.59-2.72-.08-2.93-.02-.73.2-2.95,3.13-3.65,4.98.16,1.23.26,2.48.8,3.63-.03-.12-.05-.22-.08-.35ZM466.24,317.19c.49-1.17,2.24-3.62,2.78-4.04.47-.12,1.09-.2,1.45-.19-.04,2.37-1.46,3.79-4.23,4.23ZM472.3,317.75c.9-.1,2.15.28,2.77.59-1.05.98-3.85,2.79-8.77.47,1.16-.36,3.55-.8,6.01-1.06Z"/>
          </g>
          <g id="Black_Carrot-15" data-name="Black Carrot">
            <path class="cls-26" d="M446.9,318.33c-.62-.31-1.87-.68-2.77-.59-2.46.26-4.85.69-6.01,1.06,4.92,2.32,7.73.51,8.77-.47Z"/>
            <path class="cls-26" d="M442.3,312.95c-.36,0-.98.07-1.45.19-.54.42-2.29,2.86-2.78,4.04,2.77-.44,4.19-1.86,4.23-4.23Z"/>
            <path class="cls-20" d="M436.38,324.24c.41-.59.09-2.37-.53-4.85-.69-2.78-1.1-4.46-1.7-4.77-.46-.24-1.58.15-3.1.73-.04.01-.07.03-.11.05l1.35,5.7-2.55-5.1c-1.06.53-2.02,1.03-2.88,1.5l.93,3.71-1.97-3.14c-6.62,3.72-6.51,5.06-6.47,5.22.05.16.7,1.54,10.15.8.7-.05,1.42.19,2.12.43.68.23,1.38.47,1.98.4,1.44-.14,2.47-.24,2.77-.67Z"/>
            <path class="cls-20" d="M437.55,320.41c-.54-1.15-.63-2.4-.8-3.63-.02.05-.04.1-.06.15-.55-2.05-.99-3.11-1.88-3.57-1.01-.53-2.28-.09-4.27.66h0c-.11.04-.22.09-.33.15-.11.06-.29.15-.53.27-8.67,4.3-12.27,7.14-11.7,9.23.05.17.12.34.23.51.71,1.07,3.07,1.98,11.4,1.32.41-.03.96.16,1.55.36.79.27,1.69.57,2.59.47,1.87-.18,3.1-.31,3.78-1.26.63-.89.54-2.28.01-4.65ZM433.61,324.91c-.6.07-1.3-.17-1.98-.4-.7-.24-1.42-.48-2.12-.43-9.45.74-10.11-.64-10.15-.8-.04-.16-.15-1.5,6.47-5.22l1.97,3.14-.93-3.71c.86-.46,1.81-.96,2.88-1.5l2.55,5.1-1.35-5.7s.07-.03.11-.05c1.52-.58,2.64-.97,3.1-.73.6.31,1.01,1.99,1.7,4.77.62,2.49.94,4.27.53,4.85-.3.43-1.33.53-2.77.67Z"/>
            <path class="cls-26" d="M437.47,320.06c6.74,3.21,10.26-.44,10.91-1.23.23-.28.27-.66.09-1-.5-.92-3.03-1.66-4.49-1.51-.55.06-1.06.12-1.54.18.87-1,1.32-2.3,1.27-3.86v-.08c0-.3-.14-.57-.39-.76-.78-.59-2.72-.08-2.93-.02-.73.2-2.95,3.13-3.65,4.98.16,1.23.26,2.48.8,3.63-.03-.12-.05-.22-.08-.35ZM438.08,317.19c.49-1.17,2.24-3.62,2.78-4.04.47-.12,1.09-.2,1.45-.19-.04,2.37-1.46,3.79-4.23,4.23ZM444.14,317.75c.9-.1,2.15.28,2.77.59-1.05.98-3.85,2.79-8.77.47,1.16-.36,3.55-.8,6.01-1.06Z"/>
          </g>
          <g id="Black_Carrot-16" data-name="Black Carrot">
            <path class="cls-26" d="M529.07,302.63c-.67-.17-1.97-.28-2.83,0-2.35.76-4.6,1.68-5.66,2.28,5.29,1.26,7.67-1.1,8.49-2.27Z"/>
            <path class="cls-26" d="M523.46,298.32c-.35.07-.94.27-1.38.49-.44.52-1.65,3.27-1.89,4.52,2.62-1,3.71-2.69,3.26-5.01Z"/>
            <path class="cls-20" d="M519.99,310.58c.28-.66-.4-2.33-1.52-4.64-1.25-2.58-2-4.13-2.65-4.31-.5-.14-1.51.47-2.88,1.36-.03.02-.06.05-.1.07l2.5,5.3-3.55-4.47c-.93.74-1.76,1.43-2.51,2.06l1.68,3.44-2.58-2.67c-5.71,5.01-5.33,6.3-5.25,6.45.08.15,1.01,1.36,10.1-1.32.67-.2,1.43-.11,2.16-.02.71.08,1.45.17,2.02-.02,1.38-.44,2.36-.75,2.57-1.23Z"/>
            <path class="cls-20" d="M520.35,306.59c-.77-1.02-1.12-2.21-1.53-3.38,0,.05-.02.11-.03.16-.96-1.89-1.61-2.83-2.58-3.11-1.1-.31-2.25.38-4.04,1.53h0c-.1.06-.2.13-.29.21-.1.08-.25.2-.47.37-7.59,6-10.53,9.53-9.54,11.45.08.16.19.31.33.45.92.9,3.41,1.3,11.43-1.06.39-.12.97-.05,1.59.03.83.1,1.77.21,2.63-.08,1.79-.57,2.97-.94,3.44-2.02.43-1,.05-2.35-.95-4.55ZM517.42,311.81c-.57.19-1.31.1-2.02.02-.73-.09-1.49-.18-2.16.02-9.09,2.68-10.02,1.47-10.1,1.32-.08-.15-.46-1.44,5.25-6.45l2.58,2.67-1.68-3.44c.74-.63,1.58-1.32,2.51-2.06l3.55,4.47-2.5-5.3s.06-.05.1-.07c1.37-.88,2.38-1.5,2.88-1.36.65.18,1.4,1.74,2.65,4.31,1.12,2.31,1.8,3.98,1.52,4.64-.21.48-1.19.79-2.57,1.23Z"/>
            <path class="cls-26" d="M520.2,306.27c7.26,1.75,9.94-2.55,10.42-3.46.17-.32.12-.71-.12-.99-.68-.8-3.31-1-4.7-.55-.53.17-1.01.34-1.47.5.64-1.16.81-2.52.45-4.04l-.02-.07c-.06-.29-.26-.53-.53-.66-.89-.42-2.67.49-2.87.59-.67.35-2.24,3.67-2.54,5.63.42,1.17.77,2.37,1.53,3.38-.05-.11-.09-.21-.15-.32ZM520.2,303.33c.24-1.25,1.44-4,1.89-4.52.44-.22,1.03-.42,1.38-.49.45,2.33-.64,4.01-3.26,5.01ZM526.24,302.63c.86-.28,2.16-.17,2.83,0-.82,1.17-3.19,3.53-8.49,2.27,1.06-.6,3.31-1.51,5.66-2.28Z"/>
          </g>
          <g id="Black_Carrot-17" data-name="Black Carrot">
            <path class="cls-26" d="M477.48,299.16c.4.56,1.32,1.49,2.16,1.83,2.29.94,4.6,1.69,5.79,1.92-3.23-4.38-6.56-4.11-7.95-3.75Z"/>
            <path class="cls-26" d="M478.98,306.07c.31.17.89.4,1.37.52.67-.11,3.37-1.44,4.36-2.23-2.65-.93-4.57-.35-5.73,1.72Z"/>
            <path class="cls-20" d="M489.55,298.95c-.64.32-1.2,2.04-1.84,4.52-.71,2.77-1.14,4.45-.77,5,.29.43,1.46.62,3.08.83.04,0,.08,0,.12,0l1.51-5.66-.18,5.7c1.19.03,2.27.05,3.24.05l.94-3.71.25,3.7c7.6-.13,8.14-1.37,8.17-1.53.03-.16.11-1.69-8.56-5.52-.64-.28-1.16-.84-1.66-1.38-.49-.53-1-1.07-1.55-1.29-1.33-.56-2.29-.96-2.75-.72Z"/>
            <path class="cls-20" d="M486.7,301.77c-.07,1.27-.58,2.41-1.02,3.57.04-.03.08-.07.12-.1-.49,2.07-.6,3.2-.04,4.04.64.95,1.96,1.17,4.07,1.44h0c.12.02.24.02.36.03.12,0,.33,0,.59.02,9.67.33,14.19-.47,14.68-2.58.04-.17.06-.36.04-.56-.12-1.28-1.77-3.2-9.41-6.57-.37-.16-.77-.59-1.2-1.05-.57-.61-1.21-1.3-2.05-1.64-1.73-.72-2.88-1.2-3.92-.68-.98.49-1.56,1.75-2.22,4.09ZM492.3,299.68c.56.22,1.06.77,1.55,1.29.5.54,1.02,1.1,1.66,1.38,8.67,3.83,8.59,5.35,8.56,5.52-.04.16-.58,1.4-8.17,1.53l-.25-3.7-.94,3.71c-.98,0-2.05-.01-3.24-.05l.18-5.7-1.51,5.66s-.08,0-.12,0c-1.62-.21-2.78-.39-3.08-.83-.38-.56.05-2.23.77-5,.64-2.48,1.2-4.2,1.84-4.52.47-.23,1.42.17,2.75.72Z"/>
            <path class="cls-26" d="M486.6,302.11c-4.41-6.02-9.24-4.48-10.18-4.09-.34.14-.55.46-.55.84,0,1.05,1.88,2.9,3.23,3.45.52.21.99.4,1.44.57-1.24.47-2.25,1.4-2.96,2.8l-.04.07c-.14.26-.15.57-.02.85.41.89,2.35,1.36,2.58,1.41.74.17,4.08-1.35,5.58-2.65.44-1.16.95-2.3,1.02-3.57-.03.11-.06.22-.1.34ZM484.7,304.36c-.99.8-3.69,2.12-4.36,2.23-.47-.12-1.06-.34-1.37-.52,1.16-2.07,3.08-2.65,5.73-1.72ZM479.64,300.99c-.83-.34-1.76-1.27-2.16-1.83,1.39-.36,4.72-.63,7.95,3.75-1.19-.23-3.5-.98-5.79-1.92Z"/>
          </g>
          <g id="Black_Carrot-18" data-name="Black Carrot">
            <path class="cls-26" d="M479.47,305.13c-.62-.31-1.87-.68-2.77-.59-2.46.26-4.85.69-6.01,1.06,4.92,2.32,7.73.51,8.77-.47Z"/>
            <path class="cls-26" d="M474.87,299.75c-.36,0-.98.07-1.45.19-.54.42-2.29,2.86-2.78,4.04,2.77-.44,4.19-1.86,4.23-4.23Z"/>
            <path class="cls-20" d="M468.94,311.04c.41-.59.09-2.37-.53-4.85-.69-2.78-1.1-4.46-1.7-4.77-.46-.24-1.58.15-3.1.73-.04.01-.07.03-.11.05l1.35,5.7-2.55-5.1c-1.06.53-2.02,1.03-2.88,1.5l.93,3.71-1.97-3.14c-6.62,3.72-6.51,5.06-6.47,5.22.05.16.7,1.54,10.15.8.7-.05,1.42.19,2.12.43.68.23,1.38.47,1.98.4,1.44-.14,2.47-.24,2.77-.67Z"/>
            <path class="cls-20" d="M470.11,307.21c-.54-1.15-.63-2.4-.8-3.63-.02.05-.04.1-.06.15-.55-2.05-.99-3.11-1.88-3.57-1.01-.53-2.28-.09-4.27.66h0c-.11.04-.22.09-.33.15-.11.06-.29.15-.53.27-8.67,4.3-12.27,7.14-11.7,9.23.05.17.12.34.23.51.71,1.07,3.07,1.98,11.4,1.32.41-.03.96.16,1.55.36.79.27,1.69.57,2.59.47,1.87-.18,3.1-.31,3.78-1.26.63-.89.54-2.28.01-4.65ZM466.17,311.71c-.6.07-1.3-.17-1.98-.4-.7-.24-1.42-.48-2.12-.43-9.45.74-10.11-.64-10.15-.8-.04-.16-.15-1.5,6.47-5.22l1.97,3.14-.93-3.71c.86-.46,1.81-.96,2.88-1.5l2.55,5.1-1.35-5.7s.07-.03.11-.05c1.52-.58,2.64-.97,3.1-.73.6.31,1.01,1.99,1.7,4.77.62,2.49.94,4.27.53,4.85-.3.43-1.33.53-2.77.67Z"/>
            <path class="cls-26" d="M470.04,306.86c6.74,3.21,10.26-.44,10.91-1.23.23-.28.27-.66.09-1-.5-.92-3.03-1.66-4.49-1.51-.55.06-1.06.12-1.54.18.87-1,1.32-2.3,1.27-3.86v-.08c0-.3-.14-.57-.39-.76-.78-.59-2.72-.08-2.93-.02-.73.2-2.95,3.13-3.65,4.98.16,1.23.26,2.48.8,3.63-.03-.12-.05-.22-.08-.35ZM470.64,303.99c.49-1.17,2.24-3.62,2.78-4.04.47-.12,1.09-.2,1.45-.19-.04,2.37-1.46,3.79-4.23,4.23ZM476.7,304.55c.9-.1,2.15.28,2.77.59-1.05.98-3.85,2.79-8.77.47,1.16-.36,3.55-.8,6.01-1.06Z"/>
          </g>
          <g id="Black_Carrot-19" data-name="Black Carrot">
            <path class="cls-26" d="M430.5,295.39c.02.69.27,1.98.78,2.72,1.38,2.05,2.88,3.96,3.74,4.81-.25-5.44-3.17-7.07-4.52-7.54Z"/>
            <path class="cls-26" d="M427.9,301.98c.16.32.52.83.85,1.19.62.28,3.6.68,4.87.57-1.68-2.24-3.6-2.83-5.72-1.76Z"/>
            <path class="cls-20" d="M440.64,301.93c-.71-.09-2.13,1.03-4.04,2.74-2.13,1.91-3.42,3.06-3.42,3.73,0,.52.87,1.32,2.1,2.4.03.03.06.05.09.07l4.4-3.86-3.32,4.64c.97.69,1.86,1.3,2.67,1.84l2.84-2.56-1.85,3.21c6.39,4.11,7.52,3.39,7.64,3.27.12-.12,1.03-1.34-4.05-9.35-.37-.59-.5-1.34-.61-2.07-.11-.71-.23-1.44-.57-1.94-.8-1.2-1.37-2.07-1.89-2.13Z"/>
            <path class="cls-20" d="M436.71,302.69c-.77,1.01-1.82,1.68-2.83,2.4.05,0,.11-.01.16-.02-1.56,1.44-2.28,2.33-2.28,3.34,0,1.14.98,2.06,2.58,3.46h0c.09.08.18.15.28.22.1.07.27.19.48.35,7.85,5.65,12.06,7.5,13.63,6.02.13-.12.25-.27.35-.45.61-1.13.31-3.64-4.17-10.69-.22-.34-.31-.92-.41-1.54-.13-.82-.28-1.76-.8-2.5-1.04-1.57-1.72-2.6-2.88-2.75-1.08-.14-2.27.59-4.12,2.17ZM442.53,304.07c.34.49.46,1.23.57,1.94.12.73.24,1.48.61,2.07,5.08,8,4.17,9.23,4.05,9.35-.12.12-1.26.84-7.64-3.27l1.85-3.21-2.84,2.56c-.81-.54-1.7-1.15-2.67-1.84l3.32-4.64-4.4,3.86s-.06-.05-.09-.07c-1.23-1.07-2.09-1.88-2.1-2.4,0-.67,1.29-1.83,3.42-3.73,1.91-1.71,3.33-2.83,4.04-2.74.52.07,1.09.93,1.89,2.13Z"/>
            <path class="cls-26" d="M436.44,302.92c-.32-7.46-5.19-8.86-6.19-9.07-.36-.07-.71.07-.92.39-.58.88-.05,3.46.77,4.67.31.46.6.88.88,1.27-1.29-.3-2.65-.09-4.01.68l-.07.04c-.26.14-.44.39-.49.7-.16.97,1.2,2.44,1.36,2.6.52.55,4.15,1.14,6.11.89,1.01-.72,2.07-1.39,2.83-2.4-.09.08-.18.15-.27.23ZM433.61,303.73c-1.27.11-4.25-.29-4.87-.57-.33-.36-.69-.87-.85-1.19,2.11-1.08,4.03-.48,5.72,1.76ZM431.27,298.12c-.5-.75-.76-2.03-.78-2.72,1.35.47,4.27,2.1,4.52,7.54-.86-.85-2.36-2.76-3.74-4.81Z"/>
          </g>
          <g id="Black_Carrot-20" data-name="Black Carrot">
            <path class="cls-26" d="M471.1,295.01c-.62-.31-1.87-.68-2.77-.59-2.46.26-4.85.69-6.01,1.06,4.92,2.32,7.73.51,8.77-.47Z"/>
            <path class="cls-26" d="M466.51,289.63c-.36,0-.98.07-1.45.19-.54.42-2.29,2.86-2.78,4.04,2.77-.44,4.19-1.86,4.23-4.23Z"/>
            <path class="cls-20" d="M460.58,300.92c.41-.59.09-2.37-.53-4.85-.69-2.78-1.1-4.46-1.7-4.77-.46-.24-1.58.15-3.1.73-.04.01-.07.03-.11.05l1.35,5.7-2.55-5.1c-1.06.53-2.02,1.03-2.88,1.5l.93,3.71-1.97-3.14c-6.62,3.72-6.51,5.06-6.47,5.22.05.16.7,1.54,10.15.8.7-.05,1.42.19,2.12.43.68.23,1.38.47,1.98.4,1.44-.14,2.47-.24,2.77-.67Z"/>
            <path class="cls-20" d="M461.75,297.09c-.54-1.15-.63-2.4-.8-3.63-.02.05-.04.1-.06.15-.55-2.05-.99-3.11-1.88-3.57-1.01-.53-2.28-.09-4.27.66h0c-.11.04-.22.09-.33.15-.11.06-.29.15-.53.27-8.67,4.3-12.27,7.14-11.7,9.23.05.17.12.34.23.51.71,1.07,3.07,1.98,11.4,1.32.41-.03.96.16,1.55.36.79.27,1.69.57,2.59.47,1.87-.18,3.1-.31,3.78-1.26.63-.89.54-2.28.01-4.65ZM457.81,301.59c-.6.07-1.3-.17-1.98-.4-.7-.24-1.42-.48-2.12-.43-9.45.74-10.11-.64-10.15-.8-.04-.16-.15-1.5,6.47-5.22l1.97,3.14-.93-3.71c.86-.46,1.81-.96,2.88-1.5l2.55,5.1-1.35-5.7s.07-.03.11-.05c1.52-.58,2.64-.97,3.1-.73.6.31,1.01,1.99,1.7,4.77.62,2.49.94,4.27.53,4.85-.3.43-1.33.53-2.77.67Z"/>
            <path class="cls-26" d="M461.67,296.74c6.74,3.21,10.26-.44,10.91-1.23.23-.28.27-.66.09-1-.5-.92-3.03-1.66-4.49-1.51-.55.06-1.06.12-1.54.18.87-1,1.32-2.3,1.27-3.86v-.08c0-.3-.14-.57-.39-.76-.78-.59-2.72-.08-2.93-.02-.73.2-2.95,3.13-3.65,4.98.16,1.23.26,2.48.8,3.63-.03-.12-.05-.22-.08-.35ZM462.28,293.86c.49-1.17,2.24-3.62,2.78-4.04.47-.12,1.09-.2,1.45-.19-.04,2.37-1.46,3.79-4.23,4.23ZM468.34,294.42c.9-.1,2.15.28,2.77.59-1.05.98-3.85,2.79-8.77.47,1.16-.36,3.55-.8,6.01-1.06Z"/>
          </g>
          <g id="Black_Carrot-21" data-name="Black Carrot">
            <path class="cls-26" d="M426.51,311.96c-.67-.16-1.98-.23-2.83.07-2.33.82-4.56,1.79-5.6,2.41,5.32,1.13,7.64-1.29,8.43-2.48Z"/>
            <path class="cls-26" d="M420.8,307.79c-.35.08-.93.3-1.36.52-.43.53-1.56,3.31-1.77,4.57,2.59-1.07,3.65-2.78,3.14-5.09Z"/>
            <path class="cls-20" d="M417.63,320.13c.27-.67-.46-2.32-1.63-4.6-1.31-2.54-2.1-4.08-2.75-4.25-.51-.13-1.5.51-2.85,1.43-.03.02-.06.05-.09.07l2.63,5.23-3.66-4.38c-.91.76-1.73,1.47-2.46,2.12l1.76,3.4-2.64-2.6c-5.59,5.15-5.17,6.43-5.09,6.58.08.14,1.04,1.34,10.06-1.57.67-.21,1.43-.14,2.16-.07.71.07,1.45.14,2.02-.07,1.37-.47,2.35-.81,2.54-1.29Z"/>
            <path class="cls-20" d="M417.89,316.14c-.79-1-1.17-2.19-1.61-3.35,0,.05-.02.11-.02.16-1.01-1.87-1.68-2.79-2.66-3.04-1.11-.28-2.24.43-4,1.63h0c-.1.07-.19.14-.28.22-.09.08-.25.21-.46.38-7.44,6.18-10.3,9.78-9.25,11.68.09.16.2.31.34.45.94.87,3.44,1.21,11.4-1.34.39-.12.97-.07,1.59-.01.83.08,1.77.17,2.62-.14,1.78-.61,2.95-1.01,3.38-2.1.41-1.01,0-2.35-1.06-4.53ZM415.09,321.42c-.56.2-1.3.13-2.02.07-.73-.07-1.49-.14-2.16.07-9.02,2.9-9.98,1.71-10.06,1.57-.08-.15-.5-1.43,5.09-6.58l2.64,2.6-1.76-3.4c.73-.65,1.54-1.36,2.46-2.12l3.66,4.38-2.63-5.23s.06-.05.09-.07c1.35-.92,2.34-1.56,2.85-1.43.65.17,1.44,1.7,2.75,4.25,1.17,2.28,1.9,3.94,1.63,4.6-.19.48-1.17.82-2.54,1.29Z"/>
            <path class="cls-26" d="M417.74,315.82c7.3,1.57,9.88-2.79,10.33-3.71.16-.33.11-.71-.14-.99-.7-.78-3.33-.92-4.71-.43-.53.19-1,.36-1.45.53.62-1.17.75-2.54.35-4.05l-.02-.07c-.07-.29-.27-.53-.55-.65-.9-.39-2.66.55-2.86.66-.66.36-2.15,3.72-2.4,5.69.44,1.16.82,2.35,1.61,3.35-.05-.11-.1-.21-.15-.32ZM417.66,312.88c.21-1.26,1.35-4.04,1.77-4.57.43-.23,1.02-.45,1.36-.52.51,2.32-.55,4.03-3.14,5.09ZM423.68,312.03c.85-.3,2.15-.22,2.83-.07-.79,1.19-3.11,3.61-8.43,2.48,1.04-.62,3.27-1.59,5.6-2.41Z"/>
          </g>
          <g id="Black_Carrot-22" data-name="Black Carrot">
            <path class="cls-26" d="M64.66,318.33c.64-.31,1.94-.68,2.86-.59,2.54.26,5.02.69,6.22,1.06-5.09,2.32-8,.51-9.08-.47Z"/>
            <path class="cls-26" d="M69.42,312.95c.37,0,1.01.07,1.5.19.56.42,2.37,2.86,2.88,4.04-2.86-.44-4.33-1.86-4.37-4.23Z"/>
            <path class="cls-20" d="M75.55,324.24c-.43-.59-.09-2.37.54-4.85.71-2.78,1.14-4.46,1.76-4.77.48-.24,1.63.15,3.21.73.04.01.07.03.11.05l-1.4,5.7,2.64-5.1c1.1.53,2.09,1.03,2.98,1.5l-.97,3.71,2.04-3.14c6.85,3.72,6.74,5.06,6.69,5.22-.05.16-.73,1.54-10.51.8-.72-.05-1.47.19-2.19.43-.7.23-1.43.47-2.05.4-1.49-.14-2.55-.24-2.86-.67Z"/>
            <path class="cls-20" d="M74.34,320.41c.56-1.15.66-2.4.83-3.63.02.05.04.1.06.15.57-2.05,1.02-3.11,1.95-3.57,1.05-.53,2.36-.09,4.41.66h0c.11.04.23.09.34.15.11.06.3.15.55.27,8.97,4.3,12.7,7.14,12.1,9.23-.05.17-.12.34-.24.51-.74,1.07-3.18,1.98-11.8,1.32-.42-.03-1,.16-1.61.36-.82.27-1.74.57-2.68.47-1.93-.18-3.21-.31-3.91-1.26-.65-.89-.56-2.28-.01-4.65ZM78.42,324.91c.62.07,1.34-.17,2.05-.4.72-.24,1.47-.48,2.19-.43,9.78.74,10.46-.64,10.51-.8.05-.16.16-1.5-6.69-5.22l-2.04,3.14.97-3.71c-.89-.46-1.88-.96-2.98-1.5l-2.64,5.1,1.4-5.7s-.07-.03-.11-.05c-1.58-.58-2.73-.97-3.21-.73-.62.31-1.05,1.99-1.76,4.77-.64,2.49-.97,4.27-.54,4.85.31.43,1.38.53,2.86.67Z"/>
            <path class="cls-26" d="M74.42,320.06c-6.97,3.21-10.61-.44-11.29-1.23-.24-.28-.28-.66-.09-1,.52-.92,3.14-1.66,4.64-1.51.57.06,1.09.12,1.59.18-.9-1-1.36-2.3-1.32-3.86v-.08c0-.3.15-.57.4-.76.81-.59,2.81-.08,3.04-.02.75.2,3.05,3.13,3.78,4.98-.17,1.23-.27,2.48-.83,3.63.03-.12.05-.22.08-.35ZM73.79,317.19c-.51-1.17-2.32-3.62-2.88-4.04-.49-.12-1.13-.2-1.5-.19.04,2.37,1.51,3.79,4.37,4.23ZM67.52,317.75c-.93-.1-2.22.28-2.86.59,1.08.98,3.99,2.79,9.08.47-1.2-.36-3.67-.8-6.22-1.06Z"/>
          </g>
          <g id="Black_Carrot-23" data-name="Black Carrot">
            <path class="cls-26" d="M93.8,318.33c.64-.31,1.94-.68,2.86-.59,2.54.26,5.02.69,6.22,1.06-5.09,2.32-8,.51-9.08-.47Z"/>
            <path class="cls-26" d="M98.56,312.95c.37,0,1.01.07,1.5.19.56.42,2.37,2.86,2.88,4.04-2.86-.44-4.33-1.86-4.37-4.23Z"/>
            <path class="cls-20" d="M104.69,324.24c-.43-.59-.09-2.37.54-4.85.71-2.78,1.14-4.46,1.76-4.77.48-.24,1.63.15,3.21.73.04.01.07.03.11.05l-1.4,5.7,2.64-5.1c1.1.53,2.09,1.03,2.98,1.5l-.97,3.71,2.04-3.14c6.85,3.72,6.74,5.06,6.69,5.22-.05.16-.73,1.54-10.51.8-.72-.05-1.47.19-2.19.43-.7.23-1.43.47-2.05.4-1.49-.14-2.55-.24-2.86-.67Z"/>
            <path class="cls-20" d="M103.48,320.41c.56-1.15.66-2.4.83-3.63.02.05.04.1.06.15.57-2.05,1.02-3.11,1.95-3.57,1.05-.53,2.36-.09,4.41.66h0c.11.04.23.09.34.15.11.06.3.15.55.27,8.97,4.3,12.7,7.14,12.1,9.23-.05.17-.12.34-.24.51-.74,1.07-3.18,1.98-11.8,1.32-.42-.03-1,.16-1.61.36-.82.27-1.74.57-2.68.47-1.93-.18-3.21-.31-3.91-1.26-.65-.89-.56-2.28-.01-4.65ZM107.56,324.91c.62.07,1.34-.17,2.05-.4.72-.24,1.47-.48,2.19-.43,9.78.74,10.46-.64,10.51-.8.05-.16.16-1.5-6.69-5.22l-2.04,3.14.97-3.71c-.89-.46-1.88-.96-2.98-1.5l-2.64,5.1,1.4-5.7s-.07-.03-.11-.05c-1.58-.58-2.73-.97-3.21-.73-.62.31-1.05,1.99-1.76,4.77-.64,2.49-.97,4.27-.54,4.85.31.43,1.38.53,2.86.67Z"/>
            <path class="cls-26" d="M103.56,320.06c-6.97,3.21-10.61-.44-11.29-1.23-.24-.28-.28-.66-.09-1,.52-.92,3.14-1.66,4.64-1.51.57.06,1.09.12,1.59.18-.9-1-1.36-2.3-1.32-3.86v-.08c0-.3.15-.57.4-.76.81-.59,2.81-.08,3.04-.02.75.2,3.05,3.13,3.78,4.98-.17,1.23-.27,2.48-.83,3.63.03-.12.05-.22.08-.35ZM102.93,317.19c-.51-1.17-2.32-3.62-2.88-4.04-.49-.12-1.13-.2-1.5-.19.04,2.37,1.51,3.79,4.37,4.23ZM96.66,317.75c-.93-.1-2.22.28-2.86.59,1.08.98,3.99,2.79,9.08.47-1.2-.36-3.67-.8-6.22-1.06Z"/>
          </g>
          <g id="Black_Carrot-24" data-name="Black Carrot">
            <path class="cls-26" d="M122.94,318.33c.64-.31,1.94-.68,2.86-.59,2.54.26,5.02.69,6.22,1.06-5.09,2.32-8,.51-9.08-.47Z"/>
            <path class="cls-26" d="M127.7,312.95c.37,0,1.01.07,1.5.19.56.42,2.37,2.86,2.88,4.04-2.86-.44-4.33-1.86-4.37-4.23Z"/>
            <path class="cls-20" d="M133.83,324.24c-.43-.59-.09-2.37.54-4.85.71-2.78,1.14-4.46,1.76-4.77.48-.24,1.63.15,3.21.73.04.01.07.03.11.05l-1.4,5.7,2.64-5.1c1.1.53,2.09,1.03,2.98,1.5l-.97,3.71,2.04-3.14c6.85,3.72,6.74,5.06,6.69,5.22-.05.16-.73,1.54-10.51.8-.72-.05-1.47.19-2.19.43-.7.23-1.43.47-2.05.4-1.49-.14-2.55-.24-2.86-.67Z"/>
            <path class="cls-20" d="M132.62,320.41c.56-1.15.66-2.4.83-3.63.02.05.04.1.06.15.57-2.05,1.02-3.11,1.95-3.57,1.05-.53,2.36-.09,4.41.66h0c.11.04.23.09.34.15.11.06.3.15.55.27,8.97,4.3,12.7,7.14,12.1,9.23-.05.17-.12.34-.24.51-.74,1.07-3.18,1.98-11.8,1.32-.42-.03-1,.16-1.61.36-.82.27-1.74.57-2.68.47-1.93-.18-3.21-.31-3.91-1.26-.65-.89-.56-2.28-.01-4.65ZM136.7,324.91c.62.07,1.34-.17,2.05-.4.72-.24,1.47-.48,2.19-.43,9.78.74,10.46-.64,10.51-.8.05-.16.16-1.5-6.69-5.22l-2.04,3.14.97-3.71c-.89-.46-1.88-.96-2.98-1.5l-2.64,5.1,1.4-5.7s-.07-.03-.11-.05c-1.58-.58-2.73-.97-3.21-.73-.62.31-1.05,1.99-1.76,4.77-.64,2.49-.97,4.27-.54,4.85.31.43,1.38.53,2.86.67Z"/>
            <path class="cls-26" d="M132.7,320.06c-6.97,3.21-10.61-.44-11.29-1.23-.24-.28-.28-.66-.09-1,.52-.92,3.14-1.66,4.64-1.51.57.06,1.09.12,1.59.18-.9-1-1.36-2.3-1.32-3.86v-.08c0-.3.15-.57.4-.76.81-.59,2.81-.08,3.04-.02.75.2,3.05,3.13,3.78,4.98-.17,1.23-.27,2.48-.83,3.63.03-.12.05-.22.08-.35ZM132.07,317.19c-.51-1.17-2.32-3.62-2.88-4.04-.49-.12-1.13-.2-1.5-.19.04,2.37,1.51,3.79,4.37,4.23ZM125.81,317.75c-.93-.1-2.22.28-2.86.59,1.08.98,3.99,2.79,9.08.47-1.2-.36-3.67-.8-6.22-1.06Z"/>
          </g>
          <g id="Black_Carrot-25" data-name="Black Carrot">
            <path class="cls-26" d="M152.08,318.33c.64-.31,1.94-.68,2.86-.59,2.54.26,5.02.69,6.22,1.06-5.09,2.32-8,.51-9.08-.47Z"/>
            <path class="cls-26" d="M156.84,312.95c.37,0,1.01.07,1.5.19.56.42,2.37,2.86,2.88,4.04-2.86-.44-4.33-1.86-4.37-4.23Z"/>
            <path class="cls-20" d="M162.97,324.24c-.43-.59-.09-2.37.54-4.85.71-2.78,1.14-4.46,1.76-4.77.48-.24,1.63.15,3.21.73.04.01.07.03.11.05l-1.4,5.7,2.64-5.1c1.1.53,2.09,1.03,2.98,1.5l-.97,3.71,2.04-3.14c6.85,3.72,6.74,5.06,6.69,5.22-.05.16-.73,1.54-10.51.8-.72-.05-1.47.19-2.19.43-.7.23-1.43.47-2.05.4-1.49-.14-2.55-.24-2.86-.67Z"/>
            <path class="cls-20" d="M161.76,320.41c.56-1.15.66-2.4.83-3.63.02.05.04.1.06.15.57-2.05,1.02-3.11,1.95-3.57,1.05-.53,2.36-.09,4.41.66h0c.11.04.23.09.34.15.11.06.3.15.55.27,8.97,4.3,12.7,7.14,12.1,9.23-.05.17-.12.34-.24.51-.74,1.07-3.18,1.98-11.8,1.32-.42-.03-1,.16-1.61.36-.82.27-1.74.57-2.68.47-1.93-.18-3.21-.31-3.91-1.26-.65-.89-.56-2.28-.01-4.65ZM165.84,324.91c.62.07,1.34-.17,2.05-.4.72-.24,1.47-.48,2.19-.43,9.78.74,10.46-.64,10.51-.8.05-.16.16-1.5-6.69-5.22l-2.04,3.14.97-3.71c-.89-.46-1.88-.96-2.98-1.5l-2.64,5.1,1.4-5.7s-.07-.03-.11-.05c-1.58-.58-2.73-.97-3.21-.73-.62.31-1.05,1.99-1.76,4.77-.64,2.49-.97,4.27-.54,4.85.31.43,1.38.53,2.86.67Z"/>
            <path class="cls-26" d="M161.84,320.06c-6.97,3.21-10.61-.44-11.29-1.23-.24-.28-.28-.66-.09-1,.52-.92,3.14-1.66,4.64-1.51.57.06,1.09.12,1.59.18-.9-1-1.36-2.3-1.32-3.86v-.08c0-.3.15-.57.4-.76.81-.59,2.81-.08,3.04-.02.75.2,3.05,3.13,3.78,4.98-.17,1.23-.27,2.48-.83,3.63.03-.12.05-.22.08-.35ZM161.22,317.19c-.51-1.17-2.32-3.62-2.88-4.04-.49-.12-1.13-.2-1.5-.19.04,2.37,1.51,3.79,4.37,4.23ZM154.95,317.75c-.93-.1-2.22.28-2.86.59,1.08.98,3.99,2.79,9.08.47-1.2-.36-3.67-.8-6.22-1.06Z"/>
          </g>
          <g id="Black_Carrot-26" data-name="Black Carrot">
            <path class="cls-26" d="M67.06,302.63c.69-.17,2.04-.28,2.93,0,2.43.76,4.76,1.68,5.85,2.28-5.48,1.26-7.93-1.1-8.78-2.27Z"/>
            <path class="cls-26" d="M72.86,298.32c.36.07.97.27,1.42.49.46.52,1.7,3.27,1.95,4.52-2.71-1-3.84-2.69-3.38-5.01Z"/>
            <path class="cls-20" d="M76.45,310.58c-.29-.66.42-2.33,1.57-4.64,1.29-2.58,2.07-4.13,2.74-4.31.52-.14,1.56.47,2.98,1.36.03.02.07.05.1.07l-2.59,5.3,3.67-4.47c.96.74,1.83,1.43,2.59,2.06l-1.74,3.44,2.67-2.67c5.91,5.01,5.51,6.3,5.43,6.45-.08.15-1.04,1.36-10.45-1.32-.69-.2-1.48-.11-2.24-.02-.74.08-1.5.17-2.09-.02-1.43-.44-2.45-.75-2.66-1.23Z"/>
            <path class="cls-20" d="M76.08,306.59c.79-1.02,1.15-2.21,1.58-3.38,0,.05.02.11.03.16.99-1.89,1.66-2.83,2.67-3.11,1.14-.31,2.33.38,4.18,1.53h0c.1.06.2.13.3.21.1.08.26.2.48.37,7.85,6,10.9,9.53,9.87,11.45-.08.16-.19.31-.34.45-.95.9-3.53,1.3-11.83-1.06-.4-.12-1.01-.05-1.65.03-.86.1-1.83.21-2.72-.08-1.85-.57-3.08-.94-3.55-2.02-.45-1-.06-2.35.98-4.55ZM79.11,311.81c.59.19,1.35.1,2.09.02.76-.09,1.54-.18,2.24.02,9.41,2.68,10.37,1.47,10.45,1.32.08-.15.48-1.44-5.43-6.45l-2.67,2.67,1.74-3.44c-.77-.63-1.63-1.32-2.59-2.06l-3.67,4.47,2.59-5.3s-.07-.05-.1-.07c-1.42-.88-2.46-1.5-2.98-1.36-.67.18-1.45,1.74-2.74,4.31-1.16,2.31-1.87,3.98-1.57,4.64.21.48,1.23.79,2.66,1.23Z"/>
            <path class="cls-26" d="M76.23,306.27c-7.51,1.75-10.29-2.55-10.78-3.46-.18-.32-.13-.71.12-.99.71-.8,3.42-1,4.86-.55.55.17,1.05.34,1.52.5-.67-1.16-.84-2.52-.46-4.04l.02-.07c.07-.29.27-.53.55-.66.92-.42,2.77.49,2.97.59.69.35,2.32,3.67,2.63,5.63-.43,1.17-.79,2.37-1.58,3.38.05-.11.1-.21.15-.32ZM76.24,303.33c-.25-1.25-1.49-4-1.95-4.52-.45-.22-1.06-.42-1.42-.49-.47,2.33.67,4.01,3.38,5.01ZM69.99,302.63c-.89-.28-2.23-.17-2.93,0,.85,1.17,3.3,3.53,8.78,2.27-1.09-.6-3.42-1.51-5.85-2.28Z"/>
          </g>
          <g id="Black_Carrot-27" data-name="Black Carrot">
            <path class="cls-26" d="M120.44,299.16c-.41.56-1.37,1.49-2.23,1.83-2.37.94-4.76,1.69-5.99,1.92,3.34-4.38,6.79-4.11,8.22-3.75Z"/>
            <path class="cls-26" d="M118.89,306.07c-.32.17-.92.4-1.41.52-.7-.11-3.49-1.44-4.51-2.23,2.74-.93,4.73-.35,5.93,1.72Z"/>
            <path class="cls-20" d="M107.95,298.95c.67.32,1.24,2.04,1.9,4.52.74,2.77,1.18,4.45.79,5-.3.43-1.51.62-3.18.83-.04,0-.08,0-.12,0l-1.57-5.66.18,5.7c-1.23.03-2.35.05-3.36.05l-.97-3.71-.26,3.7c-7.86-.13-8.42-1.37-8.46-1.53-.04-.16-.11-1.69,8.86-5.52.66-.28,1.2-.84,1.72-1.38.51-.53,1.03-1.07,1.61-1.29,1.38-.56,2.37-.96,2.85-.72Z"/>
            <path class="cls-20" d="M110.9,301.77c.07,1.27.6,2.41,1.05,3.57-.04-.03-.09-.07-.13-.1.51,2.07.62,3.2.04,4.04-.66.95-2.03,1.17-4.21,1.44h0c-.12.02-.24.02-.37.03-.13,0-.34,0-.62.02-10,.33-14.69-.47-15.19-2.58-.04-.17-.06-.36-.04-.56.13-1.28,1.83-3.2,9.74-6.57.39-.16.8-.59,1.24-1.05.59-.61,1.25-1.3,2.13-1.64,1.79-.72,2.98-1.2,4.06-.68,1.01.49,1.61,1.75,2.29,4.09ZM105.1,299.68c-.58.22-1.1.77-1.61,1.29-.52.54-1.06,1.1-1.72,1.38-8.97,3.83-8.89,5.35-8.86,5.52.04.16.6,1.4,8.46,1.53l.26-3.7.97,3.71c1.01,0,2.13-.01,3.36-.05l-.18-5.7,1.57,5.66s.08,0,.12,0c1.67-.21,2.88-.39,3.18-.83.39-.56-.06-2.23-.79-5-.66-2.48-1.24-4.2-1.9-4.52-.48-.23-1.47.17-2.85.72Z"/>
            <path class="cls-26" d="M111,302.11c4.56-6.02,9.56-4.48,10.54-4.09.35.14.57.46.57.84,0,1.05-1.95,2.9-3.35,3.45-.53.21-1.02.4-1.49.57,1.28.47,2.33,1.4,3.06,2.8l.04.07c.14.26.15.57.02.85-.42.89-2.44,1.36-2.67,1.41-.76.17-4.22-1.35-5.77-2.65-.45-1.16-.98-2.3-1.05-3.57.03.11.07.22.1.34ZM112.97,304.36c1.03.8,3.82,2.12,4.51,2.23.49-.12,1.09-.34,1.41-.52-1.2-2.07-3.19-2.65-5.93-1.72ZM118.21,300.99c.86-.34,1.82-1.27,2.23-1.83-1.43-.36-4.88-.63-8.22,3.75,1.23-.23,3.62-.98,5.99-1.92Z"/>
          </g>
          <g id="Black_Carrot-28" data-name="Black Carrot">
            <path class="cls-26" d="M118.39,305.13c.64-.31,1.94-.68,2.86-.59,2.54.26,5.02.69,6.22,1.06-5.09,2.32-8,.51-9.08-.47Z"/>
            <path class="cls-26" d="M123.15,299.75c.37,0,1.01.07,1.5.19.56.42,2.37,2.86,2.88,4.04-2.86-.44-4.33-1.86-4.37-4.23Z"/>
            <path class="cls-20" d="M129.28,311.04c-.43-.59-.09-2.37.54-4.85.71-2.78,1.14-4.46,1.76-4.77.48-.24,1.63.15,3.21.73.04.01.07.03.11.05l-1.4,5.7,2.64-5.1c1.1.53,2.09,1.03,2.98,1.5l-.97,3.71,2.04-3.14c6.85,3.72,6.74,5.06,6.69,5.22-.05.16-.73,1.54-10.51.8-.72-.05-1.47.19-2.19.43-.7.23-1.43.47-2.05.4-1.49-.14-2.55-.24-2.86-.67Z"/>
            <path class="cls-20" d="M128.07,307.21c.56-1.15.66-2.4.83-3.63.02.05.04.1.06.15.57-2.05,1.02-3.11,1.95-3.57,1.05-.53,2.36-.09,4.41.66h0c.11.04.23.09.34.15.11.06.3.15.55.27,8.97,4.3,12.7,7.14,12.1,9.23-.05.17-.12.34-.24.51-.74,1.07-3.18,1.98-11.8,1.32-.42-.03-1,.16-1.61.36-.82.27-1.74.57-2.68.47-1.93-.18-3.21-.31-3.91-1.26-.65-.89-.56-2.28-.01-4.65ZM132.14,311.71c.62.07,1.34-.17,2.05-.4.72-.24,1.47-.48,2.19-.43,9.78.74,10.46-.64,10.51-.8.05-.16.16-1.5-6.69-5.22l-2.04,3.14.97-3.71c-.89-.46-1.88-.96-2.98-1.5l-2.64,5.1,1.4-5.7s-.07-.03-.11-.05c-1.58-.58-2.73-.97-3.21-.73-.62.31-1.05,1.99-1.76,4.77-.64,2.49-.97,4.27-.54,4.85.31.43,1.38.53,2.86.67Z"/>
            <path class="cls-26" d="M128.15,306.86c-6.97,3.21-10.61-.44-11.29-1.23-.24-.28-.28-.66-.09-1,.52-.92,3.14-1.66,4.64-1.51.57.06,1.09.12,1.59.18-.9-1-1.36-2.3-1.32-3.86v-.08c0-.3.15-.57.4-.76.81-.59,2.81-.08,3.04-.02.75.2,3.05,3.13,3.78,4.98-.17,1.23-.27,2.48-.83,3.63.03-.12.05-.22.08-.35ZM127.52,303.99c-.51-1.17-2.32-3.62-2.88-4.04-.49-.12-1.13-.2-1.5-.19.04,2.37,1.51,3.79,4.37,4.23ZM121.25,304.55c-.93-.1-2.22.28-2.86.59,1.08.98,3.99,2.79,9.08.47-1.2-.36-3.67-.8-6.22-1.06Z"/>
          </g>
          <g id="Black_Carrot-29" data-name="Black Carrot">
            <path class="cls-26" d="M169.06,295.39c-.02.69-.28,1.98-.8,2.72-1.43,2.05-2.98,3.96-3.88,4.81.26-5.44,3.28-7.07,4.68-7.54Z"/>
            <path class="cls-26" d="M171.75,301.98c-.17.32-.54.83-.88,1.19-.64.28-3.73.68-5.04.57,1.74-2.24,3.73-2.83,5.92-1.76Z"/>
            <path class="cls-20" d="M158.56,301.93c.74-.09,2.21,1.03,4.18,2.74,2.21,1.91,3.54,3.06,3.54,3.73,0,.52-.9,1.32-2.17,2.4-.03.03-.06.05-.1.07l-4.56-3.86,3.43,4.64c-1,.69-1.92,1.3-2.76,1.84l-2.94-2.56,1.92,3.21c-6.61,4.11-7.78,3.39-7.91,3.27-.12-.12-1.07-1.34,4.19-9.35.39-.59.51-1.34.64-2.07.12-.71.24-1.44.59-1.94.83-1.2,1.42-2.07,1.95-2.13Z"/>
            <path class="cls-20" d="M162.63,302.69c.79,1.01,1.89,1.68,2.93,2.4-.05,0-.11-.01-.16-.02,1.61,1.44,2.36,2.33,2.36,3.34,0,1.14-1.02,2.06-2.67,3.46h0c-.09.08-.19.15-.29.22-.1.07-.28.19-.5.35-8.13,5.65-12.48,7.5-14.11,6.02-.13-.12-.26-.27-.36-.45-.63-1.13-.32-3.64,4.31-10.69.23-.34.32-.92.43-1.54.14-.82.29-1.76.83-2.5,1.07-1.57,1.78-2.6,2.98-2.75,1.12-.14,2.35.59,4.26,2.17ZM156.61,304.07c-.35.49-.47,1.23-.59,1.94-.12.73-.25,1.48-.64,2.07-5.25,8-4.31,9.23-4.19,9.35.13.12,1.3.84,7.91-3.27l-1.92-3.21,2.94,2.56c.84-.54,1.76-1.15,2.76-1.84l-3.43-4.64,4.56,3.86s.07-.05.1-.07c1.27-1.07,2.17-1.88,2.17-2.4,0-.67-1.33-1.83-3.54-3.73-1.98-1.71-3.45-2.83-4.18-2.74-.53.07-1.13.93-1.95,2.13Z"/>
            <path class="cls-26" d="M162.91,302.92c.33-7.46,5.37-8.86,6.4-9.07.37-.07.74.07.96.39.6.88.05,3.46-.79,4.67-.32.46-.62.88-.91,1.27,1.33-.3,2.74-.09,4.15.68l.07.04c.27.14.46.39.51.7.16.97-1.25,2.44-1.41,2.6-.54.55-4.29,1.14-6.32.89-1.05-.72-2.14-1.39-2.93-2.4.09.08.18.15.28.23ZM165.83,303.73c1.31.11,4.39-.29,5.04-.57.34-.36.71-.87.88-1.19-2.19-1.08-4.17-.48-5.92,1.76ZM168.26,298.12c.52-.75.78-2.03.8-2.72-1.4.47-4.42,2.1-4.68,7.54.89-.85,2.44-2.76,3.88-4.81Z"/>
          </g>
          <g id="Black_Carrot-30" data-name="Black Carrot">
            <path class="cls-26" d="M127.04,295.01c.64-.31,1.94-.68,2.86-.59,2.54.26,5.02.69,6.22,1.06-5.09,2.32-8,.51-9.08-.47Z"/>
            <path class="cls-26" d="M131.8,289.63c.37,0,1.01.07,1.5.19.56.42,2.37,2.86,2.88,4.04-2.86-.44-4.33-1.86-4.37-4.23Z"/>
            <path class="cls-20" d="M137.93,300.92c-.43-.59-.09-2.37.54-4.85.71-2.78,1.14-4.46,1.76-4.77.48-.24,1.63.15,3.21.73.04.01.07.03.11.05l-1.4,5.7,2.64-5.1c1.1.53,2.09,1.03,2.98,1.5l-.97,3.71,2.04-3.14c6.85,3.72,6.74,5.06,6.69,5.22-.05.16-.73,1.54-10.51.8-.72-.05-1.47.19-2.19.43-.7.23-1.43.47-2.05.4-1.49-.14-2.55-.24-2.86-.67Z"/>
            <path class="cls-20" d="M136.72,297.09c.56-1.15.66-2.4.83-3.63.02.05.04.1.06.15.57-2.05,1.02-3.11,1.95-3.57,1.05-.53,2.36-.09,4.41.66h0c.11.04.23.09.34.15.11.06.3.15.55.27,8.97,4.3,12.7,7.14,12.1,9.23-.05.17-.12.34-.24.51-.74,1.07-3.18,1.98-11.8,1.32-.42-.03-1,.16-1.61.36-.82.27-1.74.57-2.68.47-1.93-.18-3.21-.31-3.91-1.26-.65-.89-.56-2.28-.01-4.65ZM140.8,301.59c.62.07,1.34-.17,2.05-.4.72-.24,1.47-.48,2.19-.43,9.78.74,10.46-.64,10.51-.8.05-.16.16-1.5-6.69-5.22l-2.04,3.14.97-3.71c-.89-.46-1.88-.96-2.98-1.5l-2.64,5.1,1.4-5.7s-.07-.03-.11-.05c-1.58-.58-2.73-.97-3.21-.73-.62.31-1.05,1.99-1.76,4.77-.64,2.49-.97,4.27-.54,4.85.31.43,1.38.53,2.86.67Z"/>
            <path class="cls-26" d="M136.8,296.74c-6.97,3.21-10.61-.44-11.29-1.23-.24-.28-.28-.66-.09-1,.52-.92,3.14-1.66,4.64-1.51.57.06,1.09.12,1.59.18-.9-1-1.36-2.3-1.32-3.86v-.08c0-.3.15-.57.4-.76.81-.59,2.81-.08,3.04-.02.75.2,3.05,3.13,3.78,4.98-.17,1.23-.27,2.48-.83,3.63.03-.12.05-.22.08-.35ZM136.17,293.86c-.51-1.17-2.32-3.62-2.88-4.04-.49-.12-1.13-.2-1.5-.19.04,2.37,1.51,3.79,4.37,4.23ZM129.9,294.42c-.93-.1-2.22.28-2.86.59,1.08.98,3.99,2.79,9.08.47-1.2-.36-3.67-.8-6.22-1.06Z"/>
          </g>
          <g id="Black_Carrot-31" data-name="Black Carrot">
            <path class="cls-26" d="M175.36,313.25c.7-.16,2.05-.23,2.93.07,2.41.82,4.72,1.79,5.8,2.41-5.51,1.13-7.9-1.29-8.72-2.48Z"/>
            <path class="cls-26" d="M181.28,309.08c.36.08.96.3,1.41.52.44.53,1.62,3.31,1.84,4.57-2.68-1.07-3.77-2.78-3.25-5.09Z"/>
            <path class="cls-20" d="M184.55,321.43c-.28-.67.47-2.32,1.69-4.6,1.35-2.54,2.17-4.08,2.85-4.25.52-.13,1.55.51,2.95,1.43.03.02.07.05.1.07l-2.72,5.23,3.78-4.38c.94.76,1.79,1.47,2.54,2.12l-1.83,3.4,2.74-2.6c5.78,5.15,5.35,6.43,5.27,6.58-.09.14-1.08,1.34-10.41-1.57-.69-.21-1.48-.14-2.24-.07-.74.07-1.5.14-2.09-.07-1.41-.47-2.43-.81-2.63-1.29Z"/>
            <path class="cls-20" d="M184.29,317.43c.82-1,1.21-2.19,1.67-3.35,0,.05.02.11.02.16,1.04-1.87,1.74-2.79,2.75-3.04,1.15-.28,2.32.43,4.14,1.63h0c.1.07.2.14.29.22.1.08.26.21.47.38,7.7,6.18,10.65,9.78,9.57,11.68-.09.16-.2.31-.36.45-.97.87-3.56,1.21-11.8-1.34-.4-.12-1.01-.07-1.65-.01-.86.08-1.83.17-2.72-.14-1.84-.61-3.05-1.01-3.5-2.1-.42-1.01,0-2.35,1.1-4.53ZM187.18,322.71c.58.2,1.35.13,2.09.07.76-.07,1.55-.14,2.24.07,9.34,2.9,10.33,1.71,10.41,1.57.08-.15.51-1.43-5.27-6.58l-2.74,2.6,1.83-3.4c-.75-.65-1.6-1.36-2.54-2.12l-3.78,4.38,2.72-5.23s-.06-.05-.1-.07c-1.4-.92-2.42-1.56-2.95-1.43-.68.17-1.49,1.7-2.85,4.25-1.21,2.28-1.97,3.94-1.69,4.6.2.48,1.21.82,2.63,1.29Z"/>
            <path class="cls-26" d="M184.44,317.11c-7.55,1.57-10.22-2.79-10.69-3.71-.17-.33-.11-.71.15-.99.73-.78,3.45-.92,4.88-.43.54.19,1.04.36,1.5.53-.64-1.17-.78-2.54-.36-4.05l.02-.07c.07-.29.28-.53.57-.65.93-.39,2.75.55,2.96.66.68.36,2.23,3.72,2.49,5.69-.46,1.16-.85,2.35-1.67,3.35.05-.11.1-.21.16-.32ZM184.52,314.17c-.22-1.26-1.39-4.04-1.84-4.57-.45-.23-1.05-.45-1.41-.52-.53,2.32.56,4.03,3.25,5.09ZM178.29,313.32c-.88-.3-2.23-.22-2.93-.07.82,1.19,3.21,3.61,8.72,2.48-1.08-.62-3.38-1.59-5.8-2.41Z"/>
          </g>
          <g>
            <g id="Vendor">
              <polygon class="cls-12" points="208.16 225.77 176.26 225.77 182.65 189.41 209.61 189.41 208.16 225.77"/>
              <path class="cls-12" d="M297.89,330.74c4.12,19.46-14.36,19.37-22.95,10.36-8.54-8.95-29.02-60.05-31.52-74.66-3.46-20.24,15.97-24.07,22.2-20.09,11.74,7.5,27.37,61.22,32.27,84.39Z"/>
              <g>
                <g>
                  <path class="cls-12" d="M107.25,448.31c-.46,2.56.25,3.77,1.02,3.93.6.12,1.25-.39,1.42-1.39-.61,2.2.45,3.35,1.62,3.26.74-.06,1.52-.62,1.94-1.73.81-2.18.41-17.98,3.03-24.85-.6,4.68-1.5,9.66-1.46,12.18.02,1.52.43,2.5,1.83,2.79,1.83.39,2.75-.65,3.14-2.42,1.22-5.56,5.38-15.77,5.75-19.11,1.07-7.33-.26-17.84-.26-17.84,0,0-11.37-1.76-14.14,2.84-1.34,2.23-2.61,17.61-3.25,20.62-.55,2.59-2.2,23.33-.64,21.72Z"/>
                  <path class="cls-12" d="M109.38,431.08c.03,6.38.06,12.76.09,19.13"/>
                  <path class="cls-12" d="M107.38,444.43c.07,1.54-.14,3.87-.14,3.87"/>
                  <path class="cls-12" d="M116.94,422.56c-.24,2.06-.38,2.67-.62,4.73"/>
                </g>
                <path class="cls-12" d="M117.93,331.95c-3.4,19.61,14.66,18.79,22.78,9.44,8.06-9.29,26.44-61.17,28.41-75.87,2.73-20.36-16.39-23.41-22.35-19.18-11.24,7.97-24.79,62.28-28.83,85.62Z"/>
                <path class="cls-12" d="M146.98,329.42c-.94,23.14-21.52,74.47-21.52,74.47l-12.91.75s-.93-82.53,13.01-95.06c6.63-5.96,21.86,9.19,21.42,19.84Z"/>
              </g>
              <g>
                <g>
                  <path class="cls-12" d="M195.28,654.42s-9.92,10.51-13.4,8.78c-2.64-1.31-3.96-15.8-3.96-15.8l-.73-11.88,17.26,4.06.84,14.83Z"/>
                  <path class="cls-7" d="M198.53,334.98c-28.79-14.46-37.35-2.99-40.2,9.44-12.07,52.54,5.71,144.43,9.52,171.15,0,0,0,0,0,.01-6.71,45.65,1.11,94.38,7.02,125.83,1.96,10.43,23.81,6.55,23.22-4.12,0,0,19-256.69,19.28-261.33,1.93-31.71-10.54-36.82-18.84-40.99Z"/>
                </g>
                <g>
                  <path class="cls-12" d="M252.97,656.7s-9.6,10.9-13.14,9.32c-2.68-1.2-4.43-15.63-4.43-15.63l-1.08-11.84,17.37,3.36,1.28,14.78Z"/>
                  <path class="cls-7" d="M246.8,337.32c-29.19-13.29-37.41-1.49-39.9,11.06-10.52,53,9.97,144.11,14.56,170.66,0,0,0,0,0,.01-5.36,45.89,3.89,94.28,10.72,125.48,2.27,10.34,23.98,5.59,23.09-5.05,0,0,11.42-257.3,11.57-261.95,1-31.77-11.62-36.37-20.03-40.2Z"/>
                </g>
                <path class="cls-5" d="M210.37,424.68c-1.35,10.43.46,25.14,1.16,39.08"/>
                <path class="cls-27" d="M174.32,668.94c4.69,4.27,54.12,4.4,57.71,1.49-3.89-1.57-32.32-17.92-34.95-22.15-4.92,1.39-4.18,10.19-9.15,11.01-5,.82-11.8-7.92-12.88-6.61-1.08,1.31-2.65,14.49-.71,16.27h-.01Z"/>
                <path class="cls-27" d="M233.18,669.85c4.69,4.27,54.12,4.4,57.71,1.49-3.89-1.57-32.32-17.92-34.95-22.15-4.92,1.39-4.18,10.19-9.15,11.01-5,.82-11.8-7.92-12.88-6.61-1.08,1.31-2.65,14.49-.71,16.27h-.01Z"/>
              </g>
              <g>
                <path class="cls-28" d="M155.58,230.35c.22-12.74,19.63-19.73,24.72-22.67.88-.51,1.98-.31,2.75.39l6.83,7.38c.55.51,5.31,2.37,6.02,2.23,12.6-2.47,11.14-8.71,12.85-11.96.55-1.04,2.84-.9,3.91-.61,4.33,1.15,20.61,3.41,32.41,12.35.55.41.91,1.05,1.03,1.77,1.85,11.86,17.8,115.11,17.79,158.52-.47.86-.84,1.53-1.3,2.38-8.06,4.62-42.9,14-51.56,14.87-17.25,1.75-42.25,2.34-54.01.23-.72-.73-1.26-1.28-1.98-2.02-5.21-23.21.1-137.78.54-162.87Z"/>
                <path class="cls-28" d="M120.64,290.46l35.2,11.24s19.04-25.32,15.23-41.96c-2.58-11.28-8.66-40.73-13.23-36.8-13.37,11.6-37.19,67.52-37.19,67.52Z"/>
                <path class="cls-28" d="M288.43,289.34l-30.73,22.29-22.65-86.68s9.49-7.69,10.88-6.83c21.03,12.96,42.51,71.22,42.51,71.22Z"/>
              </g>
              <path class="cls-6" d="M161.79,265.24c15.27-29.41,10.01-53.57,15.51-57.55.96-.69,2.19-.27,3.07.77l-2.51,60.01c-.1,2.41,1.9,4.39,4.31,4.24,11.2-.68,39.46-3.48,40.09-3.62,13.82-2.96-15.33-58.21-13.57-62.82.56-1.47,1.75-1.53,2.94-1.08,4.95,1.9,22.48,48.44,35.98,62.63.28,1.88,27.91,125.8,29.36,190.2v.03c-4.59,5.76-47.57,19.28-57.77,20.2-19.86,1.78-49.14,1.37-61.39-2.69l-.02-.02c-7.37-26.93-3.31-196.24,3.99-210.31Z"/>
              <path class="cls-12" d="M184.25,189.96l25.28,1.2-.24,6.43s-5.24,5.56-9.78,4.67c-4.54-.89-9.87-3.29-12.04-5.29s-4.19-4.05-4.19-4.64.97-2.37.97-2.37Z"/>
              <g>
                <path class="cls-19" d="M175.93,156.98c1.57-9.53,22.71-14.28,34.99-9.29.37.16,7.82.39,7.45,6.72.1,3.04-7.71,3.09-7.91,3.2-.03.01-.05.03-.08.04-.06,1.39-.69,3.17-.69,3.17,0,0,4.17,10.02.71,15.69-4.97-4.91-3.77.95-6.14,1.22-2.36,7.27-2.51,10.3-4.98,12.87-2.51,2.61-16.38,1.27-16.39,1.33-2.84-.69-8.08-8.5-10.28-12.55-3.71-6.87-.21-7.76-3.8-13.81-2.17-3.66,3.51-9.06,7.11-8.58Z"/>
                <path class="cls-12" d="M211.75,179.74c-1.09-5.96-.7-15.73-3.68-19.41-.36-.45-.75-.83-1.16-1.18-6.65-1.79-17.8-.39-21.74.19-1.74.97-3.23,2.34-4.22,4.33-2.15,4.31.22,13.74.38,19.81.2,7.76,1.56,7.2,7.85,11.25,1.86,1.19,10.69,3.2,12.89,2.53,2.23-.31,4.12-.97,5.69-2.58,3.28-4.62,5.4-7.33,4-14.94Z"/>
                <path class="cls-12" d="M180.11,170.6c-7.44-4.48-4.81,6.06-3,8.4.66.86,3.23,1.92,4.58,1.98l-1.57-10.38Z"/>
              </g>
              <ellipse class="cls-9" cx="189.76" cy="173.18" rx=".99" ry="2.44" transform="translate(-20.8 25.99) rotate(-7.43)"/>
              <ellipse class="cls-25" cx="202.27" cy="172" rx=".99" ry="2.44" transform="translate(-20.54 27.6) rotate(-7.43)"/>
              <path class="cls-3" d="M193.15,187s7.26,1.79,10.59-.38"/>
              <path class="cls-2" d="M196.92,175.63s.98,2.9,1.58,3.81-.98.98-.98.98"/>
            </g>
            <g>
              <g>
                <path class="cls-12" d="M312.64,446.59c.55,2.54-.13,3.78-.92,3.97-.61.15-1.29-.33-1.5-1.33.7,2.18-.35,3.37-1.54,3.33-.76-.03-1.58-.56-2.03-1.65-.9-2.15-1.01-17.95-3.92-24.71.77,4.65,1.85,9.59,1.9,12.12.03,1.52-.35,2.51-1.78,2.87-1.86.46-2.83-.54-3.29-2.29-1.43-5.51-6.02-15.54-6.5-18.86-1.34-7.28-.33-17.84-.33-17.84,0,0,11.55-2.22,14.53,2.26,1.44,2.17,3.24,17.49,4,20.47.65,2.57,3.02,23.23,1.37,21.68Z"/>
                <path class="cls-12" d="M309.88,429.46c.18,6.37.36,12.75.54,19.12"/>
                <path class="cls-12" d="M312.37,442.72c-.02,1.54.27,3.87.27,3.87"/>
                <path class="cls-12" d="M301.89,421.25c.31,2.05.48,2.65.79,4.7"/>
              </g>
              <path class="cls-12" d="M268.14,329.41c1.73,23.09,24.44,73.54,24.44,73.54l13.21.22s-1.77-82.51-16.42-94.47c-6.96-5.68-22.02,10.08-21.22,20.7Z"/>
            </g>
          </g>
          <g>
            <path class="cls-18" d="M9.09,423.53h575.81s9-3.77,9-16.75-9.13-15.29-9.13-15.29H9.09s-6.69,3.65-6.69,16.92,6.69,15.12,6.69,15.12Z"/>
            <g>
              <polygon id="Bottom" class="cls-24" points="29.11 423.48 567.28 423.48 567.28 672.53 29.12 672.53 29.11 423.48"/>
              <path class="cls-14" d="M418.2,516.81s-28.16-48.57-121.42-48.57-117.46,49.17-117.46,49.17H29.01l.14,41.14h150.03s23.99,49.46,121.46,49.46,118.08-49.4,118.08-49.4h148.58v-41.8h-149.09ZM172.97,542.36H40.56v-6.83l.26.04h132.15v6.79ZM557.74,542.36h-132.41v-6.83l.26.04h132.15v6.79Z"/>
              <text class="cls-31" transform="translate(213.08 556.61)"><tspan class="cls-33" x="0" y="0">C</tspan><tspan class="cls-30" x="34.38" y="0">a</tspan><tspan class="cls-32" x="63.3" y="0">r</tspan><tspan class="cls-34" x="83.16" y="0">r</tspan><tspan x="102.18" y="0">ots</tspan></text>
            </g>
          </g>
          <g id="Man_3" data-name="Man 3">
            <path class="cls-12" d="M481.83,790.41s6.26,13.06,10.53,13.63c3.23.43,10.11-9.61,10.11-9.61l-2.57-15.86-19.69,2.44,1.62,9.4Z"/>
            <g>
              <g>
                <path class="cls-8" d="M503.13,809.27c-4.39,3.9-50.67,4.02-54.02,1.36,3.64-1.43,30.26-16.36,32.72-20.22,4.6,1.27,3.91,9.3,8.57,10.05,4.68.75,8.22-4.64,12.06-6.03,0,0,2.49,13.23.66,14.85Z"/>
                <path class="cls-8" d="M432.17,659.87c3.19,12.51,35.68,15.77,41.95-.07,9.78-24.7,41.37-107.31,47.24-134.77,2.68-12.52-10.88-54.48-46.54-49.86-10.28,1.33-10.34-33.76-20.46-4.12-12.07,35.34-26.43,172.2-22.19,188.83Z"/>
                <path class="cls-8" d="M501.39,775.81c.81,10.72-22.31,17.37-24.71,7.02l-43.82-114.56c-3.2-17.09,2.86-29.9,13.33-32.27,5.57-1.26,18.15,1.68,23.35,10.81,23.54,41.34,29.27,94.8,31.86,129.01Z"/>
              </g>
              <g>
                <path class="cls-12" d="M511.2,791.86s11.6,10.51,15.69,8.78c3.09-1.31,4.64-15.8,4.64-15.8l.86-11.88-20.19,4.06-.99,14.83Z"/>
                <path class="cls-8" d="M532.53,812.13c-3.82,1.29-15.74,1.27-15.74,1.27,0,0-26.98-4.62-26.95-7.29-.76-2.95,17.5-10.82,21.68-17.58,2.46-2.59,9.82,1.57,13.25,2,2.69.34,1.74.13,4.13-.56,1.45-.41,2.93-1.41,2.75.08-.6,4.91,1.88,11.69.88,22.07Z"/>
                <path class="cls-8" d="M507.4,472.42c33.68-14.46,43.7-2.99,47.04,9.44,14.13,52.54-6.69,144.42-11.14,171.15,0,0,0,0,0,.01,7.85,45.65-1.3,94.38-8.21,125.83-2.3,10.43-27.85,6.55-27.17-4.12,0,0-22.23-256.69-22.56-261.33-2.26-31.71,12.33-36.82,22.04-40.98Z"/>
              </g>
              <path class="cls-4" d="M516.42,556.29c-2.69,10.27-10.56,23.46-16.91,36.33"/>
            </g>
            <g>
              <polygon class="cls-12" points="489.65 364.15 522.22 364.15 521.22 321.42 493.68 321.42 489.65 364.15"/>
              <g>
                <path class="cls-12" d="M517,318.65c.76-6.03,4-15.23,2.34-19.66-1.93-5.16-7.29-6.68-11.98-7.63-4.68-.95-10.21-1.64-14,2.36-3.26,3.44-3.86,13.17-5.51,19.02-2.11,7.46-.33,10.3,2.4,15.13,1.36,1.72,3.12,2.5,5.26,2.97,2.06.83,10.83-.53,12.75-1.58,6.51-3.57,7.77-2.91,8.74-10.61Z"/>
                <path class="cls-23" d="M527.62,296.54c-.57-10.19-19.41-16.9-31.05-12.61-.35.14-4.56.02-4.8,6.72-.37,3.21,4.14,3.66,4.32,3.79.02.02.05.03.07.05-.07,1.47.34,3.4.34,3.4,0,0-4.7,10.25-2.06,16.51,4.97-4.79,3.35,1.31,5.48,1.78,1.49,7.87,1.36,11.08,3.37,13.99,2.05,2.96,16.79,2.82,16.79,2.89,2.65-.5,6.15-8.5,8.52-12.61,4-6.95,5.26-23.88-.99-23.92Z"/>
                <path class="cls-12" d="M495.66,313.33c6.73-4.07,3.81,6.28,2.1,8.52-.63.83-2.92,1.74-4.09,1.73l1.99-10.25Z"/>
              </g>
            </g>
            <path class="cls-21" d="M570.68,378.88c-7.41-21.69-42.04-37.21-42.04-37.21l-8.16-.79c-4.21-1.01-25.04,3.65-25.04,3.65,0,0-22.8,6.55-33.68,21.8,0,0-15.62,93.49-15.17,138.59,4.68,4.14,59.6,11.33,69.82,12.27,19.87,1.83,29.71-11.42,41.8-13.89,6.56-18.52,20.81-100.01,12.47-124.42Z"/>
            <g>
              <path class="cls-12" d="M586.94,461.84c.61,19.66-32.98,4.26-30.19-1.5,10-20.68,1.33-56.54.38-71.12-1.32-20.18-3.43-19.51,3.34-14.59,12.76,9.27,29.87,53.41,26.47,87.22Z"/>
              <path class="cls-12" d="M587.12,464.89c-4.83,22.15-33.67,68.78-33.67,68.78l-22.13-2.93s21.41-67.11,28.32-77.75c5.2-8,29.7,1.71,27.48,11.9Z"/>
            </g>
            <g>
              <path class="cls-12" d="M503.82,477.13c-.93,19.64-20.68,14.74-28.73,3.89-7.99-10.78-15.61-61.98-15.43-76.59.26-20.23,18.22-21.75,24.58-16.32,12,10.24,16.87,65.76,19.57,89.02Z"/>
              <path class="cls-12" d="M475.43,481.38c11.31,19.64,52.93,55.34,52.93,55.34l20.21-9.51s-40.74-57.47-50.55-65.51c-7.38-6.05-27.79,10.64-22.59,19.67Z"/>
              <g>
                <g>
                  <path class="cls-12" d="M564.84,556.66l-3.78-4.99,3.81,3.66s4.02-.25.32-6.08c-2.28-3.59-10.87-14.71-10.87-14.71,0,0,3.54.88,4.49.8,6-.55,5.42-5.21,5.42-5.21l-4.14.61-12.7-6.55-3.62.59c-1.84-7.58-25.96-3.78-16.24,10.97l10.89,13.61c.08.23,9.92,12.06,11.07,11.35,1.15-.71,1.39-2.24.54-3.42,0,0,7.3,7.45,8.86,6.59,1.51-.82,1.1-3.39-.04-5.07,1.24.92,4.67,2.96,5.75,2.37,1.43-.78,1.54-2.8.23-4.52Z"/>
                  <path class="cls-1" d="M560.9,551.42c-2.04-1.92-4.09-4.63-5.38-6.78"/>
                  <path class="cls-1" d="M558.25,557.87c-1.63-1.8-5.81-7.25-7.47-10.02"/>
                  <path class="cls-1" d="M550.03,557.3c-1.86-1.69-3.82-4.59-5.14-6.72"/>
                </g>
                <path class="cls-22" d="M553.7,536.75c-3.09,4.14-9.55,7.08-14,8.39,5.75-2.94,3.29-10.36.29-14.62,4.54,3.46,4.66,10.8,11.95,5.9l1.76.34Z"/>
              </g>
            </g>
            <g>
              <path class="cls-21" d="M586.95,429.58l-26.04,8.38s-44.4-56.3-35.59-71.03c5.97-9.98,28.07-16.21,43.16,8.4,10.76,15.35,18.47,54.25,18.47,54.25Z"/>
              <path class="cls-21" d="M459.66,439.66l39.85-7.07-13.93-64.24s-17.32-8.48-18.88-7.67c-26.29,13.56-7.04,78.99-7.04,78.99Z"/>
              <path class="cls-1" d="M485.58,368.35c11.69,13.01,14.85,25.98,13.93,46.31"/>
            </g>
          </g>
        </g>
      </g>
    </g>
  </g>
</svg>