<?xml version="1.0" encoding="UTF-8"?>
<svg id="Layer_2" data-name="Layer 2" xmlns="http://www.w3.org/2000/svg" viewBox="0 0 76.94 60.26">
  <defs>
    <style>
      .cls-1 {
        stroke-linecap: round;
        stroke-linejoin: round;
      }

      .cls-1, .cls-2, .cls-3 {
        stroke: #090909;
        stroke-width: 3.3px;
      }

      .cls-1, .cls-3 {
        fill: none;
      }

      .cls-4 {
        fill: #8bbd8b;
      }

      .cls-4, .cls-5, .cls-6, .cls-7, .cls-8, .cls-9 {
        stroke-width: 0px;
      }

      .cls-2, .cls-3 {
        stroke-miterlimit: 10;
      }

      .cls-2, .cls-8 {
        fill: #f6f6f6;
      }

      .cls-5 {
        fill: #ffa573;
      }

      .cls-6 {
        fill: #c5773c;
      }

      .cls-7 {
        fill: #94e094;
      }

      .cls-9 {
        fill: #ccc;
      }
    </style>
  </defs>
  <g id="Logo">
    <g id="Logo_With_Wordmark" data-name="Logo With Wordmark">
      <g id="Logo-2" data-name="Logo">
        <g id="Carrot">
          <path class="cls-7" d="M60.99.98c-1.16.45-3.83.97-4.86,4.57s-2.32,7.47-1.28,9.09,1.23,2.89,4.1,2.99,10.76-1.85,12.06-3.32,3.96-3.95,3.05-5.64-4.91-1.98-5.84-1.37-3.18,2.29-4.28,2.25-1.52,0-1.19-1.71.52-5.21-.1-5.97-1.67-.9-1.67-.9Z"/>
          <path class="cls-4" d="M76.85,9.29c.23-.67.02-1.4-.54-1.87-1.55-1.32-6.66-.9-9.19.4-.96.49-1.84.96-2.66,1.4.88-2.42.77-5.09-.39-7.9l-.06-.13c-.22-.54-.66-.94-1.23-1.11-1.83-.52-4.97,1.76-5.33,2.03-1.17.88-3.15,7.69-3.13,11.55,1.21,1.95,2.46,3.86,3.8,5.5,14.3,1,18.1-8,18.73-9.86ZM57.02,13.5c.07-2.48,1.53-8.13,2.21-9.26.77-.55,1.84-1.13,2.48-1.37h.01c1.59,4.33.01,7.9-4.7,10.63ZM58.24,16.4c1.84-1.46,5.88-3.92,10.14-6.12,1.56-.79,4.09-.99,5.43-.87-1.21,2.51-5.03,7.75-15.57,6.99Z"/>
          <path class="cls-5" d="M46.75,9.53s-2.62,1.11-4.53,2.73-9.11,9.68-10.94,12.28-6.9,13.27-2.83,14.42,14.12-5.59,15.38-5.73,9.99-2.13,11.41-2.88,5.42-2.35,3.98-4.92-8.23-14.83-12.47-15.9Z"/>
          <path class="cls-6" d="M54.32,13.66c0,.12,0,.24,0,.35-2.43-3.33-3.97-4.94-5.91-5.16-2.21-.26-4.2,1.43-7.27,4.18-.17.16-.33.32-.49.5-.16.18-.42.47-.77.85-12.7,13.85-17.25,21.53-14.74,24.92.2.28.46.54.78.77,2.04,1.44,6.95,1.42,21.59-5.57.72-.34,1.85-.38,3.06-.44,1.62-.07,3.45-.15,5.01-.97,3.26-1.64,5.41-2.73,5.96-4.93.54-2.15-.72-4.74-3.62-9.01h.01c.06.01.12.01.19.02-1.34-1.64-2.59-3.54-3.8-5.5ZM58.87,27.49c-.24.98-2.05,1.89-4.55,3.15h0c-1.03.54-2.48.59-3.87.64-1.44.06-2.91.13-4.14.71-16.6,7.95-18.76,5.91-18.97,5.66-.2-.26-1.33-2.62,8.07-13.99l5.77,4.31-4.29-6.07c1.23-1.44,2.62-3.02,4.17-4.72l8.19,7.47-6.44-9.38c.04-.06.11-.11.16-.16,2.35-2.12,4.1-3.6,5.11-3.49,1.3.14,3.22,2.9,6.42,7.45,2.85,4.08,4.69,7.08,4.35,8.43Z"/>
        </g>
        <g>
          <polygon class="cls-8" points="3.79 42.76 17.91 57.02 28.95 48.76 43.84 48.64 67.66 35.21 71.97 27.51 70.11 24.77 65.45 25.31 62.41 30.21 58 33.25 54.23 35.31 52.27 34.57 49.08 31.88 35.7 31.83 22.86 27.32 13.25 31.93 5.99 40.16 3.1 42.27 3.79 42.76"/>
          <polygon class="cls-9" points="6.85 40.01 3.79 42.76 17.36 56.83 21.27 53.29 6.85 40.01"/>
          <path class="cls-1" d="M2.31,42.97s10.59-10.44,13.14-12.94,7.7-3.7,11.44-1.9c3.75,1.8,5.1,3.15,7.65,3.2s11.54.25,13.54.25c5.35,0,5,8.88-.05,8.88h-11.29c-3.75,0-6.25-3.04-9.45-3.04s-3.54.14-4.36.28"/>
          <path class="cls-3" d="M1.17,41.82l16.16,16.13s6.18-5.94,7.69-7.44,2.81-1.75,3.95-1.75h14.15c1.26,0,22.37-11.63,23.47-12.73s2.32-1.55,4.8-5.82-3.78-7.44-6.35-4.43-2.77,4.64-4.19,5.45-9.56,5.73-9.56,5.73"/>
          <line class="cls-2" x1="7.13" y1="38.58" x2="21.71" y2="53.16"/>
        </g>
      </g>
    </g>
  </g>
</svg>