<?xml version="1.0" encoding="UTF-8"?>
<svg id="Layer_2" data-name="Layer 2" xmlns="http://www.w3.org/2000/svg" xmlns:xlink="http://www.w3.org/1999/xlink" viewBox="0 0 200 200">
  <defs>
    <style>
      .cls-1 {
        fill: #704821;
      }

      .cls-1, .cls-2, .cls-3, .cls-4, .cls-5, .cls-6, .cls-7, .cls-8, .cls-9 {
        stroke-width: 0px;
      }

      .cls-2 {
        fill: none;
      }

      .cls-3 {
        fill: #47321a;
      }

      .cls-4 {
        fill: url(#linear-gradient);
      }

      .cls-5 {
        fill: #261515;
      }

      .cls-6 {
        fill: #efbcac;
      }

      .cls-7 {
        fill: #397f37;
      }

      .cls-8 {
        fill: url(#linear-gradient-2);
      }

      .cls-9 {
        fill: #eaa492;
      }
    </style>
    <linearGradient id="linear-gradient" x1="-30.6" y1="-97.5" x2="-30.6" y2="-102.4" gradientTransform="translate(131.5 152.9) rotate(-5.1)" gradientUnits="userSpaceOnUse">
      <stop offset="0" stop-color="#442523"/>
      <stop offset="1" stop-color="#302420"/>
    </linearGradient>
    <linearGradient id="linear-gradient-2" x1="-18" y1="-97.1" x2="-18" y2="-102" xlink:href="#linear-gradient"/>
  </defs>
  <g id="Layer_46" data-name="Layer 46">
    <g>
      <path class="cls-2" d="M83.3,63.5s0,0,0,0c0,0-.2,0-.2,0,.1,0,.2.1.2.1Z"/>
      <path class="cls-2" d="M78,58s0,0,0,0c0,0,0,0,0-.1,0,0,0,0,0,.1Z"/>
      <path class="cls-2" d="M83.3,66.4c0-.1,0-.3,0-.4,0-.8,0-1.6,0-2.5v2.9c0,0,0,0,0,0Z"/>
      <polygon class="cls-2" points="80.8 52.1 80.8 52.1 80.8 52.1 80.8 52.1"/>
      <path class="cls-2" d="M8.2,197.8c2.2-7.8,5-16.6,8-25.4l-6.9-2.3s28.5-54.8,43.7-65.8c.1,0,.3-.1.4-.2,6.4-7.8,20.5-11.9,24.9-14,.5-.3,1.1-.4,1.6-.2.2,0,.4,0,.5.2l3.8-17.5c-.2-.4-.4-.8-.5-1.2-.2,0-.3,0-.3,0h.1c-4.4-3.9-7-9.5-7.1-15.3,0-3.4,0-6.4,0-6.8,0-.2.3-.7,0-1-.6-.9-2.2-1.1-3.2-.6-.7.4-1.7.3-2.3-.2l-.6-.4c-1-.8-1.2-2.2-.5-3.3l1.1-1.7,1.9-2.1c.5-.6,2.6-.3,3.2.1l.5.8c.7,1.1,2,1.8,3.4,1.6l2.1-.3,5.4-2.8c.3-.1.6-.2.9-.3l5-.7c.2,0,.5,0,.7,0l6.7.3c.1,0,.3,0,.4,0l6.4,1c1.7.3,3.1,1.2,4,2.7l1.4,2.3c.3.4.4.9.5,1.4l1.3,6.7-1.2,7.6-.3-8-.2-.4c.4,4,.3,8.5.8,11.8.9,6.2-.4,9.1-2.8,12.3v1.3c-.1,0-.4,4.1-.4,4.1,0,0,0,0,0,0l-.6,7.7c.3-.2.8-.3,1.3-.4,0,0,0,0,.1,0,.9,0,1.9,0,2.6.3,4.7,1.3,22.5,4.3,35.2,13.8.2.2.4.4.6.6.1,0,.2,0,.3,0,22.6,13.9,43.9,73.1,43.9,73.1l-1.7,1c2.4,7.7,4.5,15.5,6.3,22.6h1.4V0H0v200h7.3c.3-.8.6-1.5.9-2.2Z"/>
      <path class="cls-2" d="M42.6,200h1.2c0-.9.1-1.9.2-2.8-.5,1-.9,1.9-1.4,2.8Z"/>
      <path class="cls-2" d="M160.4,196.7c0,1.1.2,2.2.3,3.3h1.5c-.5-1.2-1-2.3-1.5-3.5l-.3.2Z"/>
      <path class="cls-2" d="M78.1,52.7c-.2.2-.3.5-.3.8,0,0-.7,1.1.2,4.4-.4-1.9-.6-4,.1-5.2Z"/>
      <path class="cls-6" d="M88.6,98.2c.6.5,5.7,2.6,6.5,2.5,14-1.9,12.6-8.2,14.6-11.4,0-.1.2-.2.4-.3l.6-7.7c-.1.1-5.5,5.3-9.9,4.3-4.5-1.1-9.7-3.7-11.8-5.8-2.1-2.1-4-4.2-4-4.8,0-.2.2-.7.4-1.1-.4-.4-.8-.8-1.1-1.3l-3.8,17.5c.3.1.6.3.9.5l7.2,7.7Z"/>
      <polygon class="cls-6" points="111 77.1 111.1 75.8 111.1 75.8 111 77.1"/>
      <path class="cls-6" d="M160.7,196.5c.5,1.2,1,2.4,1.5,3.5h36.4c-1.8-7.1-3.9-14.9-6.3-22.6l-31.6,19Z"/>
      <path class="cls-6" d="M45,182l-28.8-9.6c-3.1,8.8-5.8,17.6-8,25.4,1.7-3.8,3.6-6.8,5.7-8.4,5.3-4,14.8,2.7,19.7,10.6h9c.5-.9.9-1.9,1.4-2.8.3-5.1.6-10.2,1-15.2Z"/>
      <path class="cls-6" d="M14,189.4c-2.2,1.6-4.1,4.5-5.7,8.4-.3.7-.6,1.5-.9,2.2h26.4c-4.9-8-14.4-14.6-19.7-10.6Z"/>
      <path class="cls-7" d="M159.3,197.3l-21.4-87.6s9.6-6.5,11.9-6.4c-.2-.2-.3-.4-.6-.6-12.6-9.5-30.4-12.4-35.2-13.8-.6-.2-1.7-.3-2.6-.3.4,0,.8.1,1.3.3,4.9,2.1,20.5,49.3,33.4,64,0,.7,3.5,20,7.7,47.1h6.9c0-1.1-.2-2.2-.3-3.3l-1.1.7Z"/>
      <path class="cls-7" d="M47.6,182.9l-2.6-.9c-.3,5-.7,10.1-1,15.2,0,.9-.1,1.9-.2,2.8h8.6c.9-10.1,1.9-19.3,2.9-27.2-4.1,6-7.8,10.1-7.8,10.1Z"/>
      <path class="cls-7" d="M65.2,137.5c10.9-24.5,8.1-44.2,13.1-47.5-4.5,2.1-18.6,6.3-24.9,14,4.5-1.8,9.2,20.7,11.8,33.5Z"/>
      <path class="cls-7" d="M81.4,90.9l-4.9,59.9c-.2,2.4,1.7,4.5,4.1,4.4,11.2-.2,39.6-1.9,40.2-2,13.9-2.4-13-58.8-11-63.3.4-.9.9-1.2,1.6-1.2-.5,0-.9.1-1.3.4-.1,0-.3.2-.4.3-2,3.2-.7,9.5-14.6,11.4-.8.1-5.9-2-6.5-2.5l-7.2-7.7c-.3-.2-.5-.4-.9-.5-.2,0-.4-.1-.5-.2.5.2,1,.6,1.4,1.1Z"/>
      <path class="cls-7" d="M47.6,182.9s3.7-4.1,7.8-10.1c1.7-13.5,3.5-23,5.1-25.9,1.8-3.2,3.4-6.3,4.7-9.4-2.6-12.7-7.3-35.3-11.8-33.5-.1,0-.3.1-.4.2-15.2,11-43.7,65.8-43.7,65.8l6.9,2.3,28.8,9.6,2.6.9Z"/>
      <path class="cls-7" d="M137.9,109.7l21.4,87.6,1.1-.7.3-.2,31.6-19,1.7-1s-21.3-59.2-43.9-73.1c0,0-.2,0-.3,0-2.3,0-11.9,6.4-11.9,6.4Z"/>
      <path class="cls-3" d="M146.1,152.9c-12.9-14.7-28.5-61.9-33.4-64-.4-.2-.9-.3-1.3-.3,0,0,0,0-.1,0-.6,0-1.2.4-1.6,1.2-1.9,4.5,24.9,60.9,11,63.3-.6.1-29,1.8-40.2,2-2.4,0-4.3-2-4.1-4.4l4.9-59.9c-.4-.5-.9-.9-1.4-1.1-.5-.2-1.1-.1-1.6.2-5,3.3-2.2,23-13.1,47.5-1.4,3.1-2.9,6.2-4.7,9.4-1.6,2.8-3.4,12.4-5.1,25.9-1,7.9-2,17.1-2.9,27.2h101.3c-4.1-27.1-7.6-46.3-7.7-47.1Z"/>
      <path class="cls-9" d="M109.3,78.2c-1.6,1.6-3.5,2.1-5.8,2.3-2.2.6-11-1.8-12.8-3-2.5-1.8-4.2-2.7-5.4-3.8-.2.4-.4.9-.4,1.1,0,.6,1.9,2.7,4,4.8,2.1,2.1,7.3,4.7,11.8,5.8,4.5,1.1,9.8-4.2,9.9-4.3,0,0,0,0,0,0l.3-4.1v-1.3c-.5.8-1.1,1.6-1.7,2.4Z"/>
      <path class="cls-1" d="M83.6,71.1h-.1s.1,0,.3.1h0c0,0,0,0-.1-.1Z"/>
      <path class="cls-6" d="M85.3,73.8c1.1,1.1,2.8,2,5.4,3.8,1.8,1.3,10.6,3.6,12.8,3,2.2-.2,4.2-.8,5.8-2.3.7-.9,1.3-1.7,1.8-2.4,0,0,0,0,0,0,2.4-3.2,3.6-6.1,2.8-12.3-.5-3.3-.4-7.8-.8-11.8l-2.1-4.2-2.6-4.3-21.4.7-.9,4-3.4,5.1,1.2,10.4c-.2,0-.3,0-.5,0,0,0,0,0,0,0h0s0,0,0,0c0,.9,0,1.7,0,2.5,0,.2,0,.3,0,.4l.4,4.8h0c.1.5.3.9.5,1.2.3.5.6.9,1.1,1.3ZM104.5,52.9c.5,0,1.1,1,1.2,2.3.1,1.3-.2,2.5-.8,2.5-.5,0-1.1-1-1.2-2.3-.1-1.3.2-2.5.8-2.5ZM92,53.6c.5,0,1.1,1,1.2,2.3.1,1.3-.2,2.5-.8,2.5s-1.1-1-1.2-2.3c-.1-1.3.2-2.5.8-2.5Z"/>
      <path class="cls-6" d="M80.8,52.1s0,0,0,0c-1.3-.5-2.3,0-2.7.6-.7,1.1-.6,3.3-.1,5.2h0s0,0,0,.1c.8,2.9,4.2,4.9,5.1,5.4,0,0,.2,0,.2,0,.2,0,.4,0,.5,0l-1.2-10.4-1.8-1Z"/>
      <path class="cls-6" d="M92.4,58.5c.5,0,.9-1.2.8-2.5-.1-1.3-.7-2.4-1.2-2.3-.5,0-.9,1.2-.8,2.5.1,1.3.7,2.4,1.2,2.3Z"/>
      <path class="cls-4" d="M92.4,58.5c.5,0,.9-1.2.8-2.5-.1-1.3-.7-2.4-1.2-2.3-.5,0-.9,1.2-.8,2.5.1,1.3.7,2.4,1.2,2.3Z"/>
      <path class="cls-6" d="M104.9,57.8c.5,0,.9-1.2.8-2.5-.1-1.3-.7-2.4-1.2-2.3s-.9,1.2-.8,2.5c.1,1.3.7,2.4,1.2,2.3Z"/>
      <path class="cls-8" d="M104.9,57.8c.5,0,.9-1.2.8-2.5-.1-1.3-.7-2.4-1.2-2.3s-.9,1.2-.8,2.5c.1,1.3.7,2.4,1.2,2.3Z"/>
      <path class="cls-5" d="M83.8,71.2l-.4-4.8h0s0-2.9,0-2.9h0s0,0,0,0c0,0,0,0-.2-.1-.9-.5-4.2-2.4-5.1-5.4,0,0,0,0,0,0,0,0,0,0,0-.1h0c-.9-3.3-.2-4.4-.2-4.4,0-.3.2-.6.3-.8.5-.7,1.4-1,2.7-.6,0,0,0,0,0,0h0s1.8,1,1.8,1l3.4-5.1.9-4,21.4-.7,2.6,4.3,2.1,4.2.2.4.3,8,1.2-7.6-1.3-6.7c0-.5-.3-.9-.5-1.4l-1.4-2.3c-.9-1.5-2.3-2.4-4-2.7l-6.4-1c-.1,0-.3,0-.4,0l-6.7-.3c-.2,0-.5,0-.7,0l-5,.7c-.3,0-.6.1-.9.3l-5.4,2.8-2.1.3c-1.3.2-2.6-.5-3.4-1.6l-.5-.8c-.6-.4-2.7-.7-3.2-.1l-1.9,2.1-1.1,1.7c-.7,1.1-.4,2.5.5,3.3l.6.4c.7.5,1.6.6,2.3.2.9-.5,2.6-.3,3.2.6.2.3,0,.8,0,1,0,.3,0,3.4,0,6.8,0,5.9,2.6,11.5,7.1,15.3,0,0,0,0,.1.1h0Z"/>
    </g>
  </g>
</svg>