<?xml version="1.0" encoding="UTF-8"?>
<svg id="Layer_2" data-name="Layer 2" xmlns="http://www.w3.org/2000/svg" xmlns:xlink="http://www.w3.org/1999/xlink" viewBox="0 0 200 200">
  <defs>
    <style>
      .cls-1 {
        fill: #704821;
      }

      .cls-1, .cls-2, .cls-3, .cls-4, .cls-5, .cls-6, .cls-7, .cls-8, .cls-9 {
        stroke-width: 0px;
      }

      .cls-2 {
        fill: #d6968a;
      }

      .cls-3 {
        fill: none;
      }

      .cls-4 {
        fill: url(#linear-gradient);
      }

      .cls-5 {
        fill: #5b3939;
      }

      .cls-6 {
        fill: #efbcac;
      }

      .cls-7 {
        fill: #000;
      }

      .cls-8 {
        fill: #ededed;
      }

      .cls-9 {
        fill: url(#linear-gradient-2);
      }
    </style>
    <linearGradient id="linear-gradient" x1="-73.9" y1="-186.1" x2="-73.9" y2="-191" gradientTransform="translate(189 234.7) rotate(-7.4)" gradientUnits="userSpaceOnUse">
      <stop offset="0" stop-color="#442523"/>
      <stop offset="1" stop-color="#302420"/>
    </linearGradient>
    <linearGradient id="linear-gradient-2" x1="-61.3" y1="-185.7" x2="-61.4" y2="-190.5" xlink:href="#linear-gradient"/>
  </defs>
  <g id="Vendor_2" data-name="Vendor 2">
    <g>
      <path class="cls-3" d="M28.6,176.6l-6.4-2s23.8-55.9,37.2-67.5c.1,0,.2-.2.3-.2,4.1-5.9,12.1-10.1,17.6-12.8.4-1,.9-1.8,1.6-2.3.7-.5,1.4-.4,2.1,0l2.3-13.3c-2.9-2.1-7.1-8.4-9-11.9-3.7-6.9-.2-7.8-3.8-13.8-2.2-3.7,3.5-9.1,7.1-8.6,1.6-9.5,22.7-14.3,35-9.3.4.2,7.8.4,7.5,6.7.1,3-7.7,3.1-7.9,3.2,0,0,0,0,0,0,0,.6-.2,1.3-.3,1.9,1,3.8,3,12.8,1.7,18.1.8,5.5-.3,8.3-2.4,11.4v1.3c0,0-.2,4.1-.2,4.1,0,0,0,0,0,0l-.3,7.9c.8-.7,2.7-.6,3.7-.4,4.3,1.2,20.6,3.4,32.4,12.4.2.2.4.4.6.6.1,0,.2,0,.3,0,21,13,42.5,71.2,42.5,71.2l-1.5,1.1c2.8,8.7,5.4,17.6,7.4,25.5h4.1V0H0v200h22.7c1.6-7.3,3.6-15.4,5.8-23.4Z"/>
      <path class="cls-3" d="M160.2,195c.2,1.7.4,3.3.6,5h2c-.8-1.7-1.5-3.4-2.3-5.2l-.3.2Z"/>
      <polygon class="cls-6" points="111 77.6 111.1 76.3 111.1 76.3 111 77.6"/>
      <path class="cls-6" d="M81.9,91.8c.9-.5,2-.3,2.8.4l6.8,7.4c.6.5,5.3,2.4,6,2.2,12.6-2.5,11.1-8.7,12.9-12,0-.1.1-.2.2-.3l.3-7.9c0,.1-5.3,5.5-9.8,4.7-4.5-.9-9.9-3.3-12-5.3-.7-.6-1.3-1.3-1.9-1.8-1.5,0-2.5-.2-2.5-.2-.4,0-.8-.3-1.2-.6l-2.3,13.3c.1,0,.3.2.4.3.2,0,.3-.2.5-.3Z"/>
      <path class="cls-6" d="M160.5,194.8c.7,1.7,1.5,3.5,2.3,5.2h33.1c-2-7.8-4.6-16.7-7.4-25.5l-28,20.3Z"/>
      <path class="cls-6" d="M28.6,176.6c-2.2,8-4.2,16.1-5.8,23.4h.4c1.2-2.8,2.5-5,4-6.3,3.9-3.5,10.9.4,15.8,6.3h11.8c0-5,.2-10,.3-14.9l-26.5-8.4Z"/>
      <path class="cls-6" d="M27.1,193.7c-1.5,1.4-2.8,3.5-4,6.3h19.8c-4.9-6-11.9-9.8-15.8-6.3Z"/>
      <path class="cls-7" d="M70.1,132.9c5.8-18.4,4.8-32.9,7.1-38.8-5.5,2.7-13.5,6.8-17.6,12.8,3.4-1.7,7.5,13.6,10.4,26.1Z"/>
      <path class="cls-7" d="M159.3,195.7l-4.7-17.8c1.3,6.5,2.8,14,4.4,22.1h1.8c-.2-1.7-.4-3.3-.6-5l-1,.7Z"/>
      <path class="cls-7" d="M97.5,101.8c-.7.1-5.5-1.7-6-2.2l-6.8-7.4c-.8-.7-1.9-.9-2.8-.4-.1,0-.3.2-.5.3.2.1.4.3.5.5l-2.5,60c-.1,2.4,1.9,4.4,4.3,4.2,11.2-.7,39.5-3.5,40.1-3.6,13.8-3-15.3-58.2-13.6-62.8.6-1.5,1.8-1.5,2.9-1.1,4.7,1.8,20.8,44.1,34,60.4l-10.6-40.7s8.5-6.9,10.6-6.9c-.2-.2-.3-.4-.6-.6-11.8-8.9-28.1-11.2-32.4-12.4-1-.3-2.9-.4-3.7.4,0,0-.2.2-.2.3-1.7,3.3-.3,9.5-12.9,12Z"/>
      <path class="cls-7" d="M58.6,184.1c-.8,1.1-1.2,1.7-1.2,1.7l-2.4-.8c-.1,5-.2,10-.3,14.9h3c.3-5.6.6-10.9,1-15.9Z"/>
      <path class="cls-7" d="M57.4,185.8s.5-.6,1.2-1.7c1.3-18.1,2.9-31.3,4.7-34.8,3-5.7,5.1-11.2,6.8-16.4-2.9-12.5-7-27.8-10.4-26.1-.1,0-.2.1-.3.2-13.4,11.6-37.2,67.5-37.2,67.5l6.4,2,26.5,8.4,2.4.8Z"/>
      <path class="cls-7" d="M136.6,109.1l10.6,40.7c.7.8,1.3,1.6,1.9,2.2,0,.5,2.3,10.5,5.4,26l4.7,17.8,1-.7.3-.2,28-20.3,1.5-1.1s-21.5-58.3-42.5-71.2c0,0-.2,0-.3,0-2.1,0-10.6,6.9-10.6,6.9Z"/>
      <path class="cls-8" d="M154.6,177.9c-3.2-15.5-5.3-25.4-5.4-26-.6-.7-1.3-1.4-1.9-2.2-13.2-16.3-29.3-58.6-34-60.4-1.2-.5-2.4-.4-2.9,1.1-1.8,4.6,27.4,59.9,13.6,62.8-.6.1-28.9,2.9-40.1,3.6-2.4.1-4.4-1.8-4.3-4.2l2.5-60c-.2-.2-.3-.4-.5-.5-.1-.1-.3-.2-.4-.3-.7-.4-1.5-.5-2.1,0-.7.5-1.2,1.3-1.6,2.3-2.3,5.9-1.3,20.5-7.1,38.8-1.6,5.2-3.8,10.7-6.8,16.4-1.8,3.5-3.4,16.6-4.7,34.8-.4,5-.7,10.3-1,15.9h101.3c-1.6-8.1-3.1-15.6-4.4-22.1Z"/>
      <path class="cls-2" d="M109.3,78.8c-1.6,1.6-3.5,2.3-5.7,2.6-1.9.6-8.7-.8-11.7-2-1.8,0-3.5,0-4.8-.1.6.6,1.3,1.2,1.9,1.8,2.2,2,7.5,4.4,12,5.3,4.5.9,9.7-4.6,9.8-4.7,0,0,0,0,0,0l.2-4.1v-1.3c-.5.8-1.1,1.6-1.7,2.5Z"/>
      <path class="cls-5" d="M112.9,61.8c.1.7.3,1.4.4,2.1,0,.4.1.7.2,1,1.2-5.3-.8-14.3-1.7-18.1-.2.7-.4,1.3-.4,1.3,0,0,3.3,8,1.6,13.8Z"/>
      <path class="cls-1" d="M87.1,79.2c1.3,0,3,.1,4.8.1-.5-.2-.9-.4-1.1-.5-6.2-4-7.6-3.5-7.8-11.1-1-.2-2.1-.8-2.5-1.3-1.2-1.6-3-8.7,1.6-6.3-.2-2,0-3.7,1.2-5.6,1-1.4,8.8-9.8,10.6-10.8,3.9-.6,6.4,2.9,13.1,4.7.4.4.8.7,1.2,1.2,2.6,3.2,3.8,7.2,4.8,12.2,1.8-5.7-1.6-13.8-1.6-13.8,0,0,.2-.5.4-1.3.1-.6.3-1.3.3-1.9,0,0,0,0,0,0,.2-.1,8-.2,7.9-3.2.4-6.3-7.1-6.6-7.5-6.7-12.3-5-33.4-.2-35,9.3-3.6-.5-9.3,4.9-7.1,8.6,3.6,6.1,0,6.9,3.8,13.8,1.9,3.5,6.1,9.9,9,11.9.4.3.9.5,1.2.6,0,0,1,0,2.5.2Z"/>
      <path class="cls-6" d="M112.9,61.8c-1-5-2.2-8.9-4.8-12.2-.4-.4-.8-.8-1.2-1.2-6.6-1.8-9.2-5.3-13.1-4.7-1.7,1-9.6,9.4-10.6,10.8-1.3,2-1.5,3.7-1.2,5.6.2,0,.4.2.5.3l1.1,7.4c-.2,0-.5,0-.8-.1.2,7.6,1.6,7.1,7.8,11.1.3.2.7.3,1.1.5,3,1.2,9.8,2.6,11.7,2,2.2-.3,4.1-1,5.7-2.6.6-.9,1.2-1.7,1.7-2.5h0c2.1-3.2,3.2-6,2.4-11.4,0-.3,0-.7-.2-1-.1-.7-.3-1.4-.4-2.1ZM103.5,53.7c.5,0,1.1,1,1.3,2.3.2,1.3-.1,2.5-.7,2.5-.5,0-1.1-1-1.3-2.3-.2-1.3.1-2.5.7-2.5ZM91,54.9c.5,0,1.1,1,1.3,2.3.2,1.3-.1,2.5-.7,2.5s-1.1-1-1.3-2.3.1-2.5.7-2.5Z"/>
      <path class="cls-6" d="M82.5,60.4c-.2-.1-.4-.2-.5-.3-4.6-2.4-2.8,4.7-1.6,6.3.4.5,1.5,1,2.5,1.3.3,0,.6.1.8.1l-1.1-7.4Z"/>
      <path class="cls-6" d="M91.6,59.7c.5,0,.8-1.2.7-2.5-.2-1.3-.8-2.4-1.3-2.3-.5,0-.8,1.2-.7,2.5s.8,2.4,1.3,2.3Z"/>
      <path class="cls-4" d="M91.6,59.7c.5,0,.8-1.2.7-2.5-.2-1.3-.8-2.4-1.3-2.3-.5,0-.8,1.2-.7,2.5s.8,2.4,1.3,2.3Z"/>
      <path class="cls-6" d="M104.1,58.5c.5,0,.8-1.2.7-2.5-.2-1.3-.8-2.4-1.3-2.3-.5,0-.8,1.2-.7,2.5.2,1.3.8,2.4,1.3,2.3Z"/>
      <path class="cls-9" d="M104.1,58.5c.5,0,.8-1.2.7-2.5-.2-1.3-.8-2.4-1.3-2.3-.5,0-.8,1.2-.7,2.5.2,1.3.8,2.4,1.3,2.3Z"/>
    </g>
  </g>
</svg>