<?xml version="1.0" encoding="UTF-8"?>
<svg id="Layer_2" data-name="Layer 2" xmlns="http://www.w3.org/2000/svg" xmlns:xlink="http://www.w3.org/1999/xlink" viewBox="0 0 200 200">
  <defs>
    <style>
      .cls-1 {
        fill: #515151;
      }

      .cls-1, .cls-2, .cls-3, .cls-4, .cls-5, .cls-6, .cls-7, .cls-8 {
        stroke-width: 0px;
      }

      .cls-2 {
        fill: none;
      }

      .cls-3 {
        fill: #c18174;
      }

      .cls-4 {
        fill: url(#linear-gradient);
      }

      .cls-5 {
        fill: #e0e0e0;
      }

      .cls-6 {
        fill: #0a0909;
      }

      .cls-7 {
        fill: #9e6e66;
      }

      .cls-8 {
        fill: url(#linear-gradient-2);
      }
    </style>
    <linearGradient id="linear-gradient" x1="-75.2" y1="-196" x2="-75.2" y2="-200.9" gradientTransform="translate(192.2 242.2) rotate(-7.4)" gradientUnits="userSpaceOnUse">
      <stop offset="0" stop-color="#442523"/>
      <stop offset="1" stop-color="#302420"/>
    </linearGradient>
    <linearGradient id="linear-gradient-2" x1="-62.7" y1="-195.6" x2="-62.7" y2="-200.5" xlink:href="#linear-gradient"/>
  </defs>
  <g id="Ben">
    <g>
      <path class="cls-2" d="M160.9,192.9c.3,2.4.5,4.8.8,7.1h2.7c-1.1-2.4-2.2-4.8-3.2-7.3l-.3.2Z"/>
      <path class="cls-2" d="M54.6,200h.7c0-.6,0-1.3,0-1.9-.3.6-.5,1.3-.8,1.9Z"/>
      <path class="cls-2" d="M29.2,174.4l-6.4-2s23.8-55.9,37.2-67.5c.1,0,.2-.2.3-.2,4.1-5.9,12.1-10.1,17.6-12.8.4-1,.9-1.8,1.6-2.3.7-.5,1.4-.4,2.1,0l2.8-16c-2.9-1.5-7.6-8.5-9.6-12.3-3.7-6.9-.2-7.8-3.8-13.8-2.2-3.7,3.5-9.1,7.1-8.6,1.6-9.5,22.7-14.3,35-9.3.4.2,7.8.4,7.5,6.7.1,3-7.7,3.1-7.9,3.2,0,0,0,0,0,0,0,1.4-.7,3.2-.7,3.2,0,0,3.4,8.3,1.5,14.1.2,1.7.3,3.4.6,4.9,1.1,6.1,0,9.1-2.3,12.4v1.3c0,0-.2,4.1-.2,4.1,0,0,0,0,0,0l-.3,7.9c.8-.7,2.7-.6,3.7-.4,4.3,1.2,20.6,3.4,32.4,12.4.2.2.4.4.6.6.1,0,.2,0,.3,0,21,13,42.5,71.2,42.5,71.2l-1.5,1.1c3.1,9.6,5.8,19.3,8,27.6h2.9V0H0v200h22.9c1.7-7.8,3.9-16.7,6.3-25.6Z"/>
      <polygon class="cls-3" points="111.7 75.4 111.7 74.1 111.7 74.1 111.7 75.4"/>
      <path class="cls-3" d="M82.5,89.6c.9-.5,2-.3,2.8.4l6.8,7.4c.6.5,5.3,2.4,6,2.2,12.6-2.5,11.1-8.7,12.9-12,0-.1.1-.2.2-.3l.3-7.9c0,.1-5.3,5.5-9.8,4.7-4.5-.9-9.9-3.3-12-5.3-2.2-2-4.2-4-4.2-4.6s0-.2,0-.4c-.3,0-.5,0-.5,0-.2,0-.4-.1-.6-.3l-2.8,16c.1,0,.3.2.4.3.2,0,.3-.2.5-.3Z"/>
      <path class="cls-3" d="M161.2,192.7c1.1,2.5,2.1,5,3.2,7.3h32.7c-2.1-8.3-4.9-18.1-8-27.6l-28,20.3Z"/>
      <path class="cls-3" d="M55.7,182.9l-26.5-8.4c-2.4,8.8-4.6,17.7-6.3,25.6h0c1.4-3.8,3-6.8,4.8-8.5,4.4-3.9,12.5,1.4,17.4,8.5h9.4c.3-.6.5-1.2.8-1.9,0-5.1.2-10.2.3-15.2Z"/>
      <path class="cls-3" d="M27.8,191.5c-1.9,1.7-3.5,4.6-4.8,8.5h22.3c-4.9-7.1-13-12.4-17.4-8.5Z"/>
      <path class="cls-5" d="M159.9,193.6l-4.7-17.8c1.4,7.1,3.1,15.3,4.8,24.3h1.6c-.3-2.4-.5-4.7-.8-7.1l-1,.7Z"/>
      <path class="cls-5" d="M70.8,130.8c5.8-18.4,4.8-32.9,7.1-38.8-5.5,2.7-13.5,6.8-17.6,12.8,3.4-1.7,7.5,13.6,10.4,26.1Z"/>
      <path class="cls-5" d="M98.1,99.6c-.7.1-5.5-1.7-6-2.2l-6.8-7.4c-.8-.7-1.9-.9-2.8-.4-.1,0-.3.2-.5.3.2.1.4.3.5.5l-2.5,60c-.1,2.4,1.9,4.4,4.3,4.2,11.2-.7,39.5-3.5,40.1-3.6,13.8-3-15.3-58.2-13.6-62.8.6-1.5,1.8-1.5,2.9-1.1,4.7,1.8,20.8,44.1,34,60.4l-10.6-40.7s8.5-6.9,10.6-6.9c-.2-.2-.3-.4-.6-.6-11.8-8.9-28.1-11.2-32.4-12.4-1-.3-2.9-.4-3.7.4,0,0-.2.2-.2.3-1.7,3.3-.3,9.5-12.9,12Z"/>
      <path class="cls-5" d="M59.3,181.9c-.8,1.1-1.2,1.7-1.2,1.7l-2.4-.8c-.1,5-.2,10.1-.3,15.2,0,.6,0,1.3,0,1.9h2.9c.3-6.4.7-12.5,1.1-18.1Z"/>
      <path class="cls-5" d="M58.1,183.7s.5-.6,1.2-1.7c1.3-18.1,2.9-31.3,4.7-34.8,3-5.7,5.1-11.2,6.8-16.4-2.9-12.5-7-27.8-10.4-26.1-.1,0-.2.1-.3.2-13.4,11.6-37.2,67.5-37.2,67.5l6.4,2,26.5,8.4,2.4.8Z"/>
      <path class="cls-5" d="M137.3,106.9l10.6,40.7c.7.8,1.3,1.6,1.9,2.2,0,.5,2.3,10.5,5.4,26l4.7,17.8,1-.7.3-.2,28-20.3,1.5-1.1s-21.5-58.3-42.5-71.2c0,0-.2,0-.3,0-2.1,0-10.6,6.9-10.6,6.9Z"/>
      <path class="cls-1" d="M155.3,175.7c-3.2-15.5-5.3-25.4-5.4-26-.6-.7-1.3-1.4-1.9-2.2-13.2-16.3-29.3-58.6-34-60.4-1.2-.5-2.4-.4-2.9,1.1-1.8,4.6,27.4,59.9,13.6,62.8-.6.1-28.9,2.9-40.1,3.6-2.4.1-4.4-1.8-4.3-4.2l2.5-60c-.2-.2-.3-.4-.5-.5-.1-.1-.3-.2-.4-.3-.7-.4-1.5-.5-2.1,0-.7.5-1.2,1.3-1.6,2.3-2.3,5.9-1.3,20.5-7.1,38.8-1.6,5.2-3.8,10.7-6.8,16.4-1.8,3.5-3.4,16.6-4.7,34.8-.4,5.6-.8,11.7-1.1,18.1h101.9c-1.7-9-3.4-17.2-4.8-24.3Z"/>
      <path class="cls-7" d="M110,76.6c-1.6,1.6-3.5,2.3-5.7,2.6-2.2.7-11-1.3-12.9-2.5-1.8-1.2-3.3-2-4.3-2.7-.6,0-1.1,0-1.5,0,0,.2,0,.3,0,.4,0,.6,2,2.6,4.2,4.6,2.2,2,7.5,4.4,12,5.3,4.5.9,9.7-4.6,9.8-4.7,0,0,0,0,0,0l.2-4.1v-1.3c-.5.8-1.1,1.6-1.7,2.5Z"/>
      <path class="cls-6" d="M85.6,73.9c.3,0,.8,0,1.5,0-2.6-1.7-3.4-3.1-3.5-8.6,0-.8,0-1.7-.2-2.6-1.4-.2-3.5-1.2-4.1-1.9-1.8-2.3-4.4-12.9,3-8.4-.1-2.8,0-5.2.8-6.9,1-2,2.5-3.4,4.2-4.3,3.9-.6,15.1-2,21.7-.2.4.4.8.7,1.2,1.2,2.3,2.8,2.6,9.1,3.1,14.5,2-5.8-1.5-14.1-1.5-14.1,0,0,.6-1.8.7-3.2,0,0,0,0,0,0,.2-.1,8-.2,7.9-3.2.4-6.3-7.1-6.6-7.5-6.7-12.3-5-33.4-.2-35,9.3-3.6-.5-9.3,4.9-7.1,8.6,3.6,6.1,0,6.9,3.8,13.8,2,3.8,6.7,10.8,9.6,12.3.2.1.4.2.6.3,0,0,.2,0,.5,0Z"/>
      <path class="cls-3" d="M109.1,41.1c-6.6-1.8-17.8-.4-21.7.2-1.7,1-3.2,2.3-4.2,4.3-.8,1.7-1,4.2-.8,6.9,0,0,0,0,0,0l1.6,10.4c-.2,0-.3,0-.5,0,0,.9.1,1.8.2,2.6.1,5.5.9,6.8,3.5,8.6,1.1.7,2.5,1.5,4.3,2.7,1.9,1.2,10.7,3.2,12.9,2.5,2.2-.3,4.1-1,5.7-2.6.6-.9,1.2-1.7,1.7-2.5,0,0,0,0,0,0,2.2-3.3,3.4-6.3,2.3-12.4-.3-1.4-.4-3.1-.6-4.9-.5-5.5-.8-11.8-3.1-14.5-.4-.4-.8-.8-1.2-1.2ZM104.2,51.5c.5,0,1.1,1,1.3,2.3s-.1,2.5-.7,2.5-1.1-1-1.3-2.3c-.2-1.3.1-2.5.7-2.5ZM91.7,52.7c.5,0,1.1,1,1.3,2.3s-.1,2.5-.7,2.5c-.5,0-1.1-1-1.3-2.3-.2-1.3.1-2.5.7-2.5Z"/>
      <path class="cls-3" d="M82.3,52.6s0,0,0,0c-7.4-4.5-4.8,6.1-3,8.4.6.8,2.7,1.7,4.1,1.9.2,0,.4,0,.5,0l-1.6-10.4Z"/>
      <path class="cls-3" d="M92.3,57.6c.5,0,.8-1.2.7-2.5s-.8-2.4-1.3-2.3c-.5,0-.8,1.2-.7,2.5.2,1.3.8,2.4,1.3,2.3Z"/>
      <path class="cls-4" d="M92.3,57.6c.5,0,.8-1.2.7-2.5s-.8-2.4-1.3-2.3c-.5,0-.8,1.2-.7,2.5.2,1.3.8,2.4,1.3,2.3Z"/>
      <path class="cls-3" d="M104.8,56.4c.5,0,.8-1.2.7-2.5s-.8-2.4-1.3-2.3-.8,1.2-.7,2.5c.2,1.3.8,2.4,1.3,2.3Z"/>
      <path class="cls-8" d="M104.8,56.4c.5,0,.8-1.2.7-2.5s-.8-2.4-1.3-2.3-.8,1.2-.7,2.5c.2,1.3.8,2.4,1.3,2.3Z"/>
    </g>
  </g>
</svg>